<svg id="logo-gendercomics" xmlns="http://www.w3.org/2000/svg" width="281.668" height="218.711" viewBox="0 0 281.668 218.711">
  <path id="Pfad_439" data-name="Pfad 439" d="M.834,44.33A43.5,43.5,0,0,1,44.33.834" transform="translate(0 0)" fill="none" stroke="#a3bd8a" stroke-linecap="round" stroke-width="1.668"/>
  <line id="Linie_62" data-name="Linie 62" x2="193.203" transform="translate(44.33 0.834)" fill="none" stroke="#a3bd8a" stroke-linecap="round" stroke-width="1.668"/>
  <line id="Linie_63" data-name="Linie 63" y2="86.603" transform="translate(0.834 44.33)" fill="none" stroke="#a3bd8a" stroke-linecap="round" stroke-width="1.668"/>
  <line id="Linie_64" data-name="Linie 64" y2="86.603" transform="translate(280.834 44.33)" fill="none" stroke="#a3bd8a" stroke-linecap="round" stroke-width="1.668"/>
  <path id="Pfad_440" data-name="Pfad 440" d="M111.263,199.173A43.447,43.447,0,0,1,154.71,242.62v.049" transform="translate(-13.804 -24.792)" fill="none" stroke="#a3bd8a" stroke-linecap="round" stroke-width="1.668"/>
  <path id="Pfad_441" data-name="Pfad 441" d="M273.181,192.966a43.447,43.447,0,0,0,41.7-43.447" transform="translate(-34.043 -18.586)" fill="none" stroke="#a3bd8a" stroke-linecap="round" stroke-width="1.668"/>
  <line id="Linie_65" data-name="Linie 65" x2="53.129" transform="translate(44.33 174.429)" fill="none" stroke="#a3bd8a" stroke-linecap="round" stroke-width="1.668"/>
  <path id="Pfad_442" data-name="Pfad 442" d="M.834,149.519a43.5,43.5,0,0,0,43.5,43.5H.834Z" transform="translate(0 -18.586)" fill="#f76a6a"/>
  <path id="Pfad_443" data-name="Pfad 443" d="M.834,149.519a43.5,43.5,0,0,0,43.5,43.5H.834Z" transform="translate(0 -18.586)" fill="none" stroke="#f76a6a" stroke-linecap="round" stroke-linejoin="round" stroke-width="1.668"/>
  <path id="Pfad_444" data-name="Pfad 444" d="M314.627,44.33a43.448,43.448,0,0,0-43.4-43.5h43.4Z" transform="translate(-33.793 0)" fill="#f76a6a"/>
  <path id="Pfad_445" data-name="Pfad 445" d="M314.627,44.33a43.448,43.448,0,0,0-43.4-43.5h43.4Z" transform="translate(-33.793 0)" fill="none" stroke="#f76a6a" stroke-linecap="round" stroke-linejoin="round" stroke-width="1.668"/>
  <path id="Pfad_446" data-name="Pfad 446" d="M121.849,55.75V50.787a1.022,1.022,0,0,0-1.022-1.021H100.441a1.021,1.021,0,0,0-1.021,1.021v36.83a.973.973,0,0,0,.971.975h20.436a.974.974,0,0,0,1.021-.924c0-.016,0-.033,0-.05V82.656a1.022,1.022,0,0,0-1.022-1.022H107.4a.973.973,0,0,1-.973-.973V76.136a.972.972,0,0,1,.923-1.02l.05,0h7.444a.972.972,0,0,0,1.02-.923c0-.017,0-.033,0-.05V69.179a1.022,1.022,0,0,0-1.022-1.022H107.4a.973.973,0,0,1-.973-.973V57.745a.973.973,0,0,1,.973-.973h13.428a1.022,1.022,0,0,0,1.022-1.022" transform="translate(-12.323 -6.117)" fill="#434343"/>
  <path id="Pfad_447" data-name="Pfad 447" d="M232.89,55.75V50.787a1.022,1.022,0,0,0-1.022-1.021H211.482a1.07,1.07,0,0,0-1.021,1.021v36.83a1.022,1.022,0,0,0,1.021.974h20.386a.974.974,0,0,0,1.021-.924c0-.016,0-.033,0-.05V82.656a1.022,1.022,0,0,0-1.022-1.022H218.44a.973.973,0,0,1-.973-.973V76.136a.972.972,0,0,1,.923-1.02l.05,0h7.493a.973.973,0,0,0,.973-.973V69.179a.974.974,0,0,0-.923-1.021H218.44a.973.973,0,0,1-.973-.973V57.745a.973.973,0,0,1,.973-.973h13.428a1.022,1.022,0,0,0,1.022-1.022" transform="translate(-26.203 -6.117)" fill="#434343"/>
  <path id="Pfad_448" data-name="Pfad 448" d="M181.706,88.59h-9a1.168,1.168,0,0,1-1.168-1.167V50.982a1.168,1.168,0,0,1,1.118-1.215l.05,0h9.244a19.413,19.413,0,0,1,19.414,19.412c0,.066,0,.13,0,.2A19.543,19.543,0,0,1,181.706,88.59m-2.628-6.957h2.676a12.455,12.455,0,1,0,1.739-24.85,12.618,12.618,0,0,0-1.544-.012h-2.871a.584.584,0,0,0-.584.585V81.05a.583.583,0,0,0,.584.584" transform="translate(-21.338 -6.116)" fill="#434343"/>
  <path id="Pfad_449" data-name="Pfad 449" d="M69.178,88.591A19.261,19.261,0,0,1,55.458,82.9,19.407,19.407,0,0,1,81.974,54.583a1.216,1.216,0,0,1,.08,1.718l-.032.034-3.259,3.258a1.167,1.167,0,0,1-1.606.049,12.45,12.45,0,0,0-7.979-2.87,12.114,12.114,0,0,0-8.758,3.649,12.407,12.407,0,1,0,20.532,12.8.388.388,0,0,0-.214-.507.376.376,0,0,0-.176-.027H70.394a1.217,1.217,0,0,1-1.216-1.218V66.892a1.217,1.217,0,0,1,1.216-1.168h16.98a1.217,1.217,0,0,1,1.216,1.168v2.286A19.459,19.459,0,0,1,82.9,82.9a19.261,19.261,0,0,1-13.72,5.692" transform="translate(-6.116 -6.117)" fill="#434343"/>
  <path id="Pfad_450" data-name="Pfad 450" d="M153.473,50.94V71.423a.389.389,0,0,1-.681.292l-7.2-7.493-14.012-14.6a.584.584,0,0,0-1.021.389V87.381a1.168,1.168,0,0,0,1.167,1.168h4.622a1.168,1.168,0,0,0,1.168-1.168V66.849a.389.389,0,0,1,.681-.243l7.2,7.493,14.012,14.645a.584.584,0,0,0,1.021-.389V50.94a1.215,1.215,0,0,0-1.167-1.216H154.69a1.216,1.216,0,0,0-1.216,1.216" transform="translate(-16.216 -6.074)" fill="#434343"/>
  <path id="Pfad_451" data-name="Pfad 451" d="M261.706,88.494h5.255a1.168,1.168,0,0,0,1.021-1.752l-7.93-14.4a.68.68,0,0,1,.291-.827,11.433,11.433,0,0,0,6.471-10.266,11.662,11.662,0,0,0-11.629-11.483H242.1a1.216,1.216,0,0,0-1.167,1.216V87.423a1.168,1.168,0,0,0,1.167,1.168h4.574a1.217,1.217,0,0,0,1.216-1.168V73.9a1.217,1.217,0,0,1,1.216-1.217h2.481a1.268,1.268,0,0,1,1.07.633l8.028,14.6a1.167,1.167,0,0,0,1.021.585m-12.6-31.722h6.13a4.476,4.476,0,1,1,.1,8.952h-6.227a1.216,1.216,0,0,1-1.216-1.216V57.939a1.216,1.216,0,0,1,1.216-1.167" transform="translate(-30.012 -6.117)" fill="#434343"/>
  <path id="Pfad_452" data-name="Pfad 452" d="M170.182,144h-4.574a1.216,1.216,0,0,1-1.216-1.216V122.5l-9.146,9.877a.439.439,0,0,1-.584,0l-9.2-9.877v20.289A1.216,1.216,0,0,1,144.3,144h-4.574a1.216,1.216,0,0,1-1.216-1.216V105.76a.389.389,0,0,1,.681-.243l15.472,16.591a.34.34,0,0,0,.467.116.332.332,0,0,0,.117-.116l15.423-16.591a.389.389,0,0,1,.681.243v37.026A1.216,1.216,0,0,1,170.182,144" transform="translate(-17.209 -13.069)" fill="#434343"/>
  <path id="Pfad_453" data-name="Pfad 453" d="M108.379,143.973a19.413,19.413,0,1,1,19.413-19.413,19.413,19.413,0,0,1-19.413,19.413m0-31.868a12.455,12.455,0,1,0,12.456,12.456A12.455,12.455,0,0,0,108.379,112.1Z" transform="translate(-11.017 -13.039)" fill="#434343"/>
  <path id="Pfad_454" data-name="Pfad 454" d="M187.489,105.147h4.525a1.216,1.216,0,0,1,1.216,1.216v36.393a1.216,1.216,0,0,1-1.216,1.216h-4.525a1.216,1.216,0,0,1-1.216-1.216V106.363a1.216,1.216,0,0,1,1.216-1.216" transform="translate(-23.18 -13.039)" fill="#434343"/>
  <path id="Pfad_455" data-name="Pfad 455" d="M69.18,143.973a19.417,19.417,0,1,1,12.553-34.252,1.217,1.217,0,0,1,.13,1.715l-.032.037-3.211,3.308a1.217,1.217,0,0,1-1.606.1,12.5,12.5,0,0,0-20.289,9.682A12.651,12.651,0,0,0,69.18,137.016a12.511,12.511,0,0,0,7.152-2.287,1.216,1.216,0,0,1,1.557.2l2.968,3.552a1.266,1.266,0,0,1-.194,1.752,19.413,19.413,0,0,1-11.483,3.746" transform="translate(-6.118 -13.04)" fill="#434343"/>
  <path id="Pfad_456" data-name="Pfad 456" d="M220.475,143.972A19.364,19.364,0,0,1,206.8,110.84a19.075,19.075,0,0,1,13.672-5.693,19.363,19.363,0,0,1,12.553,4.574,1.216,1.216,0,0,1,.129,1.715l-.032.037-3.211,3.308a1.217,1.217,0,0,1-1.606.1,12.311,12.311,0,0,0-7.833-2.774,12.507,12.507,0,0,0-8.758,3.65,12.309,12.309,0,0,0-3.649,8.806,12.116,12.116,0,0,0,3.649,8.758,12.36,12.36,0,0,0,8.758,3.7,12.511,12.511,0,0,0,7.152-2.287,1.265,1.265,0,0,1,1.606.2l2.919,3.552a1.167,1.167,0,0,1-.067,1.649,1.31,1.31,0,0,1-.128.1,19.408,19.408,0,0,1-11.482,3.746" transform="translate(-25.028 -13.039)" fill="#434343"/>
  <path id="Pfad_457" data-name="Pfad 457" d="M254.922,143.973c-6.909,0-12.65-4.671-13.38-10.7a1.217,1.217,0,0,1,1.115-1.31c.034,0,.067,0,.1,0h4.622a1.217,1.217,0,0,1,1.168.876c.535,2.383,3.211,4.184,6.373,4.184s6.471-2.287,6.471-5.06c0-3.747-1.46-4.622-7.59-6.666-2.773-.924-9.341-3.113-9.341-10.7,0-5.205,4.671-9.439,10.461-9.439s9.585,3.5,10.315,8.076a1.168,1.168,0,0,1-.956,1.347,1.223,1.223,0,0,1-.211.016h-4.72a1.167,1.167,0,0,1-1.119-.681,3.542,3.542,0,0,0-3.308-1.8c-1.557,0-3.5,1.118-3.5,2.481s.681,2.774,4.573,4.087,6.179,2.141,8.368,3.941a12.349,12.349,0,0,1,3.99,9.342c0,6.617-6.033,12.017-13.429,12.017" transform="translate(-30.088 -13.039)" fill="#434343"/>
  <path id="Pfad_458" data-name="Pfad 458" d="M217.828,198.8a1.46,1.46,0,1,1-1.46-1.46,1.46,1.46,0,0,1,1.46,1.46" transform="translate(-26.759 -24.563)" fill="#434343"/>
  <path id="Pfad_459" data-name="Pfad 459" d="M225.855,190.283v7.639a.583.583,0,0,1-.533.63l-.051,0H224.1a.633.633,0,0,1-.633-.633V184.737a.633.633,0,0,1,.633-.633h.486a1.314,1.314,0,0,1,1.265,1.314v.1a5.938,5.938,0,0,1,9.488,4.962v7.445a.633.633,0,0,1-.633.633h-1.119a.633.633,0,0,1-.633-.633V190.38a3.6,3.6,0,0,0-3.065-3.6,3.5,3.5,0,0,0-4,2.926A3.434,3.434,0,0,0,225.855,190.283Z" transform="translate(-27.83 -22.909)" fill="#434343"/>
  <path id="Pfad_460" data-name="Pfad 460" d="M240.835,193.619a6.99,6.99,0,0,1,10.023-8.076,6.768,6.768,0,0,1,2.482,2.335,6.963,6.963,0,0,1,.827,1.849,3.148,3.148,0,0,1,.194.633.631.631,0,0,1-.438.681l-9.682,2.822a.487.487,0,0,0-.3.62.492.492,0,0,0,.055.109,4.6,4.6,0,0,0,7.249-.291.535.535,0,0,1,.73-.2l1.119.584a.632.632,0,0,1,.2.872l0,0a7.009,7.009,0,0,1-9.1,2.237,6.805,6.805,0,0,1-2.919-3.065Zm2.141-2.53a.438.438,0,0,0,.584.487l7.833-2.286a3.886,3.886,0,0,0-1.7-1.606,4.331,4.331,0,0,0-2.189-.585,3.791,3.791,0,0,0-1.265.2,4.525,4.525,0,0,0-2.724,2.189,3.693,3.693,0,0,0-.535,1.606" transform="translate(-29.966 -22.985)" fill="#434343"/>
  <path id="Pfad_461" data-name="Pfad 461" d="M263.221,178.292V183.4a.584.584,0,0,0,.584.585h3.114a.583.583,0,0,1,.584.584v1.216a.583.583,0,0,1-.584.584H263.8a.584.584,0,0,0-.584.584h0v5.935a2.578,2.578,0,0,0,1.995,2.481.585.585,0,0,1,.487.536v1.264a.584.584,0,0,1-.582.586l-.051,0a4.915,4.915,0,0,1-4.233-4.866v-5.936a.584.584,0,0,0-.584-.584H258.7a.583.583,0,0,1-.584-.584v-1.216a.583.583,0,0,1,.584-.584h1.557a.633.633,0,0,0,.584-.585v-4.281a.586.586,0,0,1,.243-.486l1.217-.827a.583.583,0,0,1,.924.486" transform="translate(-32.16 -22.108)" fill="#434343"/>
</svg>
