<svg xmlns="http://www.w3.org/2000/svg" width="408.787" height="41.178" viewBox="0 0 408.787 41.178">
  <g id="logo-gendercomics-h" transform="translate(-778.495 -421.985)">
    <g id="Gruppe_322" data-name="Gruppe 322" transform="translate(778.495 422.103)">
      <g id="Gruppe_321" data-name="Gruppe 321">
        <path id="Pfad_427" data-name="Pfad 427" d="M799.1,445.039v-4.271a1.387,1.387,0,0,1,1.386-1.386h17.436a1.387,1.387,0,0,1,1.386,1.386V442.9a19.943,19.943,0,1,1-7.159-15.418,1.4,1.4,0,0,1,.107,2.053l-3,3.048a1.377,1.377,0,0,1-1.858.1,13.163,13.163,0,0,0-21.373,11.73,13.164,13.164,0,0,0,25.566,2.647.489.489,0,0,0-.467-.634H800.482A1.384,1.384,0,0,1,799.1,445.039Z" transform="translate(-778.887 -422.373)" fill="#fff"/>
        <path id="Pfad_428" data-name="Pfad 428" d="M863.4,424.778h19.838c.612,0,1.112.241,1.112.538v5a1.115,1.115,0,0,1-1.112,1.112H870.446a1.115,1.115,0,0,0-1.112,1.113v9.238a1.115,1.115,0,0,0,1.112,1.112H876.9a1.116,1.116,0,0,1,1.112,1.113v4.423a1.115,1.115,0,0,1-1.112,1.112h-6.451a1.115,1.115,0,0,0-1.112,1.112v4.5a1.115,1.115,0,0,0,1.112,1.112h12.791a1.115,1.115,0,0,1,1.112,1.113v5.027c0,.286-.5.515-1.112.515H863.4c-.611,0-1.112-.233-1.112-.515V425.319C862.286,425.023,862.787,424.782,863.4,424.778Z" transform="translate(-816.799 -423.322)" fill="#fff"/>
        <path id="Pfad_429" data-name="Pfad 429" d="M935.445,423.509h4.823a11.077,11.077,0,0,1,1.112.029v39.068c0,.612-.341.746-.753.293l-20.742-22.648c-.416-.449-.753-.319-.753.293v20.079a1.116,1.116,0,0,1-1.112,1.112H913.2a1.116,1.116,0,0,1-1.112-1.112V422.667c0-.611.338-.741.749-.289l20.75,22.823c.412.452.749.322.749-.29V423.538A11.1,11.1,0,0,1,935.445,423.509Z" transform="translate(-839.437 -422.109)" fill="#fff"/>
        <path id="Pfad_430" data-name="Pfad 430" d="M1003.74,445.02A19.225,19.225,0,0,1,991.164,461.5a21.241,21.241,0,0,1-7.593,1.416h-7.733a1.351,1.351,0,0,1-1.353-1.353V426.131a1.351,1.351,0,0,1,1.353-1.353h7.733a21.193,21.193,0,0,1,6.621,1.075C998.457,428.57,1004.3,436.2,1003.74,445.02Zm-7.011-1.172c0-6.848-5.9-12.419-13.161-12.419h-1.542a.5.5,0,0,0-.5.5v23.849a.5.5,0,0,0,.5.5h1.542C990.827,456.272,996.729,450.7,996.729,443.848Z" transform="translate(-867.803 -423.322)" fill="#fff"/>
        <path id="Pfad_431" data-name="Pfad 431" d="M1038.6,424.778h19.838c.612,0,1.112.241,1.112.538v5a1.115,1.115,0,0,1-1.112,1.112h-12.79a1.116,1.116,0,0,0-1.113,1.113v9.238a1.115,1.115,0,0,0,1.113,1.112h6.451a1.116,1.116,0,0,1,1.113,1.113v4.423a1.115,1.115,0,0,1-1.113,1.112h-6.451a1.116,1.116,0,0,0-1.113,1.112v4.5a1.115,1.115,0,0,0,1.113,1.112h12.79a1.115,1.115,0,0,1,1.112,1.113v5.027c0,.286-.5.515-1.112.515H1038.6c-.611,0-1.112-.233-1.112-.515V425.319C1037.485,425.023,1037.986,424.782,1038.6,424.778Z" transform="translate(-896.442 -423.322)" fill="#fff"/>
        <path id="Pfad_432" data-name="Pfad 432" d="M1106.863,445.753a1.375,1.375,0,0,0-.512,1.876l7.667,13.28a1.374,1.374,0,0,1-1.191,2.061h-4.96a1.373,1.373,0,0,1-1.19-.685l-8.208-14.222a1.379,1.379,0,0,0-1.19-.686h-1.672a1.374,1.374,0,0,0-1.375,1.376V461.58a1.376,1.376,0,0,1-1.375,1.376h-4.3a1.376,1.376,0,0,1-1.376-1.376V426.168a1.383,1.383,0,0,1,1.383-1.383h14.192a9.514,9.514,0,0,1,7.611,3.615,11.694,11.694,0,0,1,2.4,7.114A11.845,11.845,0,0,1,1106.863,445.753Zm-12.635-13.687v6.892a1.375,1.375,0,0,0,1.376,1.376h5.3a4.827,4.827,0,0,0,4.8-5.3,4.961,4.961,0,0,0-5.009-4.337H1095.6A1.374,1.374,0,0,0,1094.228,432.066Z" transform="translate(-919.035 -423.325)" fill="#fff"/>
      </g>
    </g>
    <g id="Gruppe_323" data-name="Gruppe 323" transform="translate(990.679 421.985)">
      <path id="Pfad_433" data-name="Pfad 433" d="M785.037,528.508a13.174,13.174,0,0,0,13.15,13.71,12.98,12.98,0,0,0,7.255-2.176,1.374,1.374,0,0,1,1.835.281l2.692,3.329a1.4,1.4,0,0,1-.308,2.032,20.724,20.724,0,0,1-11.478,3.573,20.21,20.21,0,1,1,6.454-39.279,20.417,20.417,0,0,1,6.6,3.652,1.4,1.4,0,0,1,.107,2.053l-3,3.048a1.38,1.38,0,0,1-1.861.1,13.158,13.158,0,0,0-21.44,9.68Z" transform="translate(-777.974 -508.08)" fill="#fff"/>
      <path id="Pfad_434" data-name="Pfad 434" d="M882.363,529.049a20.29,20.29,0,1,1-13.587-19.07A20.231,20.231,0,0,1,882.363,529.049Zm-7.052,0a13.161,13.161,0,1,0-13.161,13.161A13.176,13.176,0,0,0,875.312,529.049Z" transform="translate(-807.055 -508.08)" fill="#fff"/>
      <path id="Pfad_435" data-name="Pfad 435" d="M955.37,512.62c.415-.452,1.09-1.19,1.5-1.638l2.266-2.461c.416-.453.753-.319.753.293v37.956a1.116,1.116,0,0,1-1.112,1.112h-4.824a1.116,1.116,0,0,1-1.112-1.112v-19.89c0-.611-.337-.742-.753-.293l-7.948,8.646a1.011,1.011,0,0,1-1.505,0l-7.948-8.646c-.416-.452-.753-.319-.753.293v19.89a1.116,1.116,0,0,1-1.112,1.112H928a1.116,1.116,0,0,1-1.112-1.112v-37.96c0-.611.338-.741.753-.292l2.265,2.461c.416.453,1.09,1.19,1.505,1.639l11.226,12.208a1.011,1.011,0,0,0,1.505,0Z" transform="translate(-845.669 -507.812)" fill="#fff"/>
      <path id="Pfad_436" data-name="Pfad 436" d="M1001.334,512.04a1.115,1.115,0,0,1,1.112-1.112h4.824a1.115,1.115,0,0,1,1.112,1.112v35.947a1.116,1.116,0,0,1-1.112,1.112h-4.824a1.116,1.116,0,0,1-1.112-1.112Z" transform="translate(-879.51 -509.029)" fill="#fff"/>
      <path id="Pfad_437" data-name="Pfad 437" d="M1030.46,528.508a13.175,13.175,0,0,0,13.151,13.71,12.982,12.982,0,0,0,7.255-2.176,1.374,1.374,0,0,1,1.835.281l2.691,3.329a1.4,1.4,0,0,1-.307,2.032,20.721,20.721,0,0,1-11.478,3.573,20.21,20.21,0,1,1,6.454-39.279,20.407,20.407,0,0,1,6.595,3.652,1.4,1.4,0,0,1,.108,2.053l-3,3.048a1.38,1.38,0,0,1-1.861.1,13.158,13.158,0,0,0-21.44,9.68Z" transform="translate(-889.54 -508.08)" fill="#fff"/>
      <path id="Pfad_438" data-name="Pfad 438" d="M1115.174,534.11a12.483,12.483,0,0,1-3.07,9.65,13.2,13.2,0,0,1-1.3,1.239,14.361,14.361,0,0,1-8.156,3.555c-.5.048-.994.07-1.487.07a14.535,14.535,0,0,1-8.823-2.936c-.278-.208-.493-.464-.749-.689a12.969,12.969,0,0,1-4.115-6.659,1.347,1.347,0,0,1,1.186-1.645l4.363-.423a1.358,1.358,0,0,1,1.42.986,6.5,6.5,0,0,0,2.332,3.3,7.214,7.214,0,0,0,5.149,1.427,7.1,7.1,0,0,0,4.727-2.388,6.211,6.211,0,0,0,1.528-4.8c-.434-3.893-3.14-5.023-7.545-6.432a25.715,25.715,0,0,1-3.373-1.238c-5.895-2.826-8.286-7.623-6.4-12.828a9.984,9.984,0,0,1,4.253-5.076,12.455,12.455,0,0,1,9.387-1.431,11.028,11.028,0,0,1,3.218,1.431,10.649,10.649,0,0,1,4.964,6.944,1.355,1.355,0,0,1-1.29,1.624l-4.379.089a1.368,1.368,0,0,1-1.356-.927,4.663,4.663,0,0,0-2.87-2.758c-2.035-.485-4.5.13-5.257,2.22-.345.95-1.06,2.918,2.936,4.834a20.443,20.443,0,0,0,2.432.868C1107.14,523.474,1114.243,525.736,1115.174,534.11Z" transform="translate(-918.649 -507.447)" fill="#fff"/>
    </g>
  </g>
</svg>
