<svg xmlns="http://www.w3.org/2000/svg" width="955.551" height="430" viewBox="0 0 955.551 430">
  <g id="logo-GENDERCOMICS-twolines" transform="translate(-395.013 -283.794)">
    <path id="Pfad_8" data-name="Pfad 8" d="M288.813,118.867V94.426a4.89,4.89,0,0,0-4.888-4.89H183.715a4.89,4.89,0,0,0-4.888,4.89V275.293a4.888,4.888,0,0,0,4.888,4.888H283.926a4.888,4.888,0,0,0,4.888-4.888V250.85a4.888,4.888,0,0,0-4.888-4.888H217.933a4.888,4.888,0,0,1-4.888-4.888v-22.2a4.89,4.89,0,0,1,4.888-4.89H254.6a4.888,4.888,0,0,0,4.888-4.888V184.656a4.89,4.89,0,0,0-4.888-4.89H217.933a4.888,4.888,0,0,1-4.888-4.888V128.644a4.888,4.888,0,0,1,4.888-4.89h65.993a4.888,4.888,0,0,0,4.888-4.888" transform="translate(429.577 195.815)" fill="#434343"/>
    <path id="Pfad_9" data-name="Pfad 9" d="M488.521,118.867V94.426a4.89,4.89,0,0,0-4.888-4.89H383.423a4.89,4.89,0,0,0-4.888,4.89V275.293a4.888,4.888,0,0,0,4.888,4.888H483.634a4.888,4.888,0,0,0,4.888-4.888V250.85a4.888,4.888,0,0,0-4.888-4.888H417.641a4.888,4.888,0,0,1-4.888-4.888v-22.2a4.89,4.89,0,0,1,4.888-4.89H454.3a4.888,4.888,0,0,0,4.888-4.888V184.656a4.89,4.89,0,0,0-4.888-4.89H417.641a4.888,4.888,0,0,1-4.888-4.888V128.644a4.888,4.888,0,0,1,4.888-4.89h65.993a4.888,4.888,0,0,0,4.888-4.888" transform="translate(706.947 195.815)" fill="#434343"/>
    <path id="Pfad_10" data-name="Pfad 10" d="M358.561,280.18H314.317a5.868,5.868,0,0,1-5.867-5.867V95.4a5.868,5.868,0,0,1,5.867-5.867h45.46A95.426,95.426,0,0,1,455.094,185.8c-.506,52.476-44.053,94.382-96.532,94.382M345.6,245.962h13.249c33.533,0,61.514-26.626,62.022-60.154a61.171,61.171,0,0,0-61.1-62.053H345.6a2.934,2.934,0,0,0-2.934,2.934V243.029a2.934,2.934,0,0,0,2.934,2.934" transform="translate(609.607 195.815)" fill="#434343"/>
    <path id="Pfad_11" data-name="Pfad 11" d="M184.821,280.179a95.321,95.321,0,0,1,0-190.642,96.068,96.068,0,0,1,62.847,23.657,5.866,5.866,0,0,1,.263,8.555l-15.946,15.946a5.875,5.875,0,0,1-7.929.327,61.6,61.6,0,0,0-39.235-14.269,61.1,61.1,0,1,0,43.1,104.2,61.424,61.424,0,0,0,14.713-23.39,1.964,1.964,0,0,0-1.856-2.6H190.688a5.867,5.867,0,0,1-5.867-5.867V173.614a5.865,5.865,0,0,1,5.867-5.865h83.589a5.864,5.864,0,0,1,5.865,5.865v11.244a95.69,95.69,0,0,1-95.321,95.321" transform="translate(305.513 195.816)" fill="#434343"/>
    <path id="Pfad_12" data-name="Pfad 12" d="M347.33,96.308V196.976a1.955,1.955,0,0,1-3.366,1.355l-35.226-36.758-.06.057L239.835,89.794a2.933,2.933,0,0,0-5.05,2.031V275.219a5.865,5.865,0,0,0,5.865,5.867h22.486A5.867,5.867,0,0,0,269,275.219V174.551a1.954,1.954,0,0,1,3.366-1.352l35.224,36.755.06-.057L376.5,281.733a2.933,2.933,0,0,0,5.05-2.028V96.308a5.867,5.867,0,0,0-5.867-5.867H353.2a5.867,5.867,0,0,0-5.867,5.867" transform="translate(507.296 194.91)" fill="#434343"/>
    <path id="Pfad_13" data-name="Pfad 13" d="M535.364,279.691h25.664A5.866,5.866,0,0,0,566.166,271l-38.831-70.6a2.934,2.934,0,0,1,1.309-4.054,56.283,56.283,0,0,0,31.724-50.479c.057-30.981-26.161-56.325-57.144-56.325H439.138a5.866,5.866,0,0,0-5.865,5.867v178.91a5.866,5.866,0,0,0,5.865,5.867h22.487a5.866,5.866,0,0,0,5.865-5.867v-66.48a5.868,5.868,0,0,1,5.867-5.867H485.68A5.866,5.866,0,0,1,490.819,205l39.4,71.647a5.873,5.873,0,0,0,5.141,3.039M473.356,123.754h30.255c11.913,0,22.071,9.245,22.522,21.149a22.021,22.021,0,0,1-21.983,22.845h-30.8a5.866,5.866,0,0,1-5.867-5.865V129.621a5.867,5.867,0,0,1,5.867-5.867" transform="translate(782.971 195.815)" fill="#434343"/>
    <path id="Pfad_14" data-name="Pfad 14" d="M404.556,379.14H382.069a5.865,5.865,0,0,1-5.865-5.867V273.616L331.2,322.084a1.959,1.959,0,0,1-2.867,0l-45-48.468v99.657a5.867,5.867,0,0,1-5.867,5.867H254.974a5.865,5.865,0,0,1-5.865-5.867V191.458a1.955,1.955,0,0,1,3.387-1.331L328.331,271.8a1.959,1.959,0,0,0,2.867,0l75.835-81.671a1.957,1.957,0,0,1,3.39,1.331V373.273a5.867,5.867,0,0,1-5.867,5.867" transform="translate(527.19 334.651)" fill="#434343"/>
    <path id="Pfad_15" data-name="Pfad 15" d="M255.3,379.724A95.322,95.322,0,1,1,350.618,284.4,95.43,95.43,0,0,1,255.3,379.724m0-156.426a61.1,61.1,0,1,0,61.1,61.1,61.171,61.171,0,0,0-61.1-61.1" transform="translate(403.395 334.069)" fill="#434343"/>
    <path id="Pfad_16" data-name="Pfad 16" d="M363.351,379.722H340.865A5.865,5.865,0,0,1,335,373.855V194.945a5.864,5.864,0,0,1,5.865-5.865h22.487a5.866,5.866,0,0,1,5.867,5.865v178.91a5.867,5.867,0,0,1-5.867,5.867" transform="translate(646.482 334.069)" fill="#434343"/>
    <path id="Pfad_17" data-name="Pfad 17" d="M184.821,379.722a95.321,95.321,0,1,1,61.566-168.1,5.881,5.881,0,0,1,.437,8.571L231.16,236.413a5.876,5.876,0,0,1-7.941.451,61.106,61.106,0,1,0-3.376,97.6,5.812,5.812,0,0,1,7.807.972l14.541,17.331a5.868,5.868,0,0,1-1.008,8.5,95.5,95.5,0,0,1-56.363,18.449" transform="translate(305.513 334.069)" fill="#434343"/>
    <path id="Pfad_18" data-name="Pfad 18" d="M456.95,379.722a95.321,95.321,0,1,1,61.566-168.1,5.882,5.882,0,0,1,.437,8.571l-15.664,16.218a5.876,5.876,0,0,1-7.941.451,61.106,61.106,0,1,0-3.375,97.6,5.812,5.812,0,0,1,7.807.972l14.541,17.331a5.868,5.868,0,0,1-1.008,8.5,95.5,95.5,0,0,1-56.363,18.449" transform="translate(683.467 334.069)" fill="#434343"/>
    <path id="Pfad_19" data-name="Pfad 19" d="M500.035,379.722c-33.92,0-61.944-23-65.591-52.477a5.855,5.855,0,0,1,5.834-6.531H463a5.883,5.883,0,0,1,5.772,4.451c2.695,11.553,15.688,20.339,31.261,20.339,17.52,0,31.774-11.12,31.774-24.789,0-18.4-7.047-22.623-37.185-32.67-13.738-4.577-45.917-15.3-45.917-52.527,0-25.606,23.027-46.437,51.327-46.437,25.731,0,47.1,17.219,50.771,39.591a5.88,5.88,0,0,1-5.791,6.847h-23.2a5.811,5.811,0,0,1-5.387-3.423c-2.131-5.021-8.777-8.8-16.395-8.8-9.274,0-17.109,5.6-17.109,12.222,0,8.686,3.251,13.643,22.52,20.067,16.612,5.535,30.174,10.48,40.933,19.379,13.22,10.934,19.648,25.9,19.648,45.752,0,32.536-29.605,59.008-65.993,59.008" transform="translate(784.536 334.069)" fill="#434343"/>
  </g>
</svg>
