<?xml version="1.0" encoding="UTF-8"?><svg id="Ebene_1" xmlns="http://www.w3.org/2000/svg" viewBox="0 0 455 360"><defs><style>.cls-1{fill:#003a78;}</style></defs><path class="cls-1" d="m196.9,204.15v14.21c0,2.16.48,4.88,4.71,4.88,2.07,0,4-.7,5.19-2.46.92-1.32.92-3.04.92-4.13v-12.49h4.27v17.95c0,.44.09,2.9.13,4.13h-4.31l-.09-3.78c-.79,1.54-2.29,4-7.04,4-5.45,0-8.01-3.12-8.01-7.48v-14.82h4.22Z"/><path class="cls-1" d="m217.26,206.71l-.04-2.55h4.13l.04,3.56c.48-.92,2.07-4,7.08-4,1.98,0,8.01.75,8.01,7.52v15h-4.22v-14.03c0-1.45-.18-2.77-1.19-3.78-1.06-1.01-2.51-1.5-3.92-1.5-2.99,0-5.76,2.16-5.76,6.6v12.71h-4.14v-19.53Z"/><path class="cls-1" d="m240.98,194.56h4.97v4.53h-4.97v-4.53Zm.44,9.59h4.14v22.08h-4.14v-22.08Z"/><path class="cls-1" d="m249.38,204.15h4.62l7.04,17.51,6.86-17.51h4.58l-9.68,22.08h-4.18l-9.24-22.08Z"/><path class="cls-1" d="m278.15,215.94c-.09,4.58,1.8,7.96,6.33,7.96,2.68,0,4.84-1.41,5.19-4.58h4.14c-.13,1.1-.31,2.9-1.89,4.62-.97,1.1-3.17,2.95-7.61,2.95-6.95,0-10.25-4.31-10.25-11.31,0-4.36.88-7.96,4.35-10.38,2.11-1.5,4.75-1.63,6.03-1.63,9.9,0,9.68,8.75,9.59,12.36h-15.88Zm11.66-2.9c.04-2.11-.35-6.51-5.45-6.51-2.68,0-5.94,1.63-6.03,6.51h11.48Z"/><path class="cls-1" d="m298.56,208.64c0-1.49-.09-3.03-.22-4.49h4.18l.09,4.27c.79-3.08,3.43-4.09,5.28-4.36,1.23-.18,2.15-.13,2.86-.09v4.05c-.22-.09-.48-.13-.79-.18-.31-.04-.7-.04-1.19-.04-4.88,0-6.03,2.9-6.03,6.69v11.75h-4.18v-17.6Z"/><path class="cls-1" d="m317.82,219.68c-.04,1.67.84,4,4.84,4,1.72,0,2.99-.31,3.87-1.41.44-.57.7-1.32.7-2.07,0-2.16-1.54-2.55-4.84-3.3-4.62-1.06-8.49-1.98-8.49-6.6,0-4.05,3.52-6.69,8.62-6.69,2.77,0,6.64.79,7.96,3.43.57,1.23.57,2.29.57,3.21h-4.22c.13-3.34-2.77-3.61-4.27-3.61-.62,0-4.49,0-4.49,3.17,0,2.02,1.98,2.51,3.12,2.82,6.11,1.45,7.43,1.8,8.75,3.04,1.23,1.14,1.67,2.68,1.67,4.09,0,2.46-1.36,4.58-2.99,5.59-1.94,1.19-4.27,1.5-6.56,1.5-4.49,0-8.67-1.85-8.62-7.17h4.35Z"/><path class="cls-1" d="m335.29,194.56h4.97v4.53h-4.97v-4.53Zm.44,9.59h4.13v22.08h-4.13v-22.08Z"/><path class="cls-1" d="m344.31,204.07h3.92v-4.62l4.09-1.32v5.94h4.93v3.04h-4.93v13.24c0,1.1,0,2.95,2.95,2.95.84,0,1.63-.13,1.98-.22v3.21c-.75.13-1.94.26-3.43.26-3.78,0-5.59-1.1-5.59-4.71v-14.74h-3.92v-3.04Z"/><path class="cls-1" d="m375.58,226.24c-.31-1.1-.4-2.15-.4-3.3-1.98,3.65-4.97,4-6.82,4-5.06,0-7.79-2.86-7.79-6.51,0-1.76.62-4.58,3.87-6.47,2.37-1.32,5.89-1.45,7.65-1.45,1.06,0,1.72.04,2.99.13,0-2.73,0-3.92-.79-4.88-.84-1.1-2.64-1.45-3.83-1.45-4.18,0-4.4,2.86-4.44,3.74h-4.14c.13-1.14.26-2.68,1.54-4.18,1.67-1.85,4.79-2.38,7.13-2.38,3.21,0,6.64,1.01,7.83,3.26.7,1.32.75,2.37.75,3.39l-.18,10.56c0,.35.04,3.3.35,5.54h-3.74Zm-11.35-31.63h4.05v4.49h-4.05v-4.49Zm8.49,20.76c-1.67,0-7.96,0-7.96,4.49,0,1.41.88,3.83,4.58,3.83,2.11,0,3.7-.84,4.71-2.38.92-1.5.97-2.73,1.06-5.81-.75-.09-1.36-.13-2.38-.13Zm-.18-20.76h4.09v4.49h-4.09v-4.49Z"/><path class="cls-1" d="m382.31,204.07h3.92v-4.62l4.09-1.32v5.94h4.93v3.04h-4.93v13.24c0,1.1,0,2.95,2.95,2.95.84,0,1.63-.13,1.98-.22v3.21c-.75.13-1.94.26-3.43.26-3.78,0-5.59-1.1-5.59-4.71v-14.74h-3.92v-3.04Z"/><path class="cls-1" d="m204.16,241.05c-.7-.04-1.58-.09-2.42-.09-3.34,0-3.34,1.67-3.34,3.21v3.47h5.15v2.99h-5.15v19.09h-4.09v-19.09h-4.35v-2.99h4.35v-2.51c0-3.04.18-4.13.92-5.28.92-1.41,2.68-2.42,5.54-2.42,1.19,0,2.51.18,3.39.31v3.3Z"/><path class="cls-1" d="m211.55,247.64v14.21c0,2.16.48,4.88,4.71,4.88,2.07,0,4-.7,5.19-2.46.92-1.32.92-3.04.92-4.13v-12.49h4.27v17.95c0,.44.09,2.9.13,4.13h-4.31l-.09-3.78c-.79,1.54-2.29,4-7.04,4-5.45,0-8.01-3.12-8.01-7.48v-14.82h4.22Zm-.44-9.55h4.05v4.49h-4.05v-4.49Zm8.31,0h4.09v4.49h-4.09v-4.49Z"/><path class="cls-1" d="m231.78,252.13c0-1.49-.09-3.03-.22-4.49h4.18l.09,4.27c.79-3.08,3.43-4.09,5.28-4.36,1.23-.18,2.15-.13,2.86-.09v4.05c-.22-.09-.48-.13-.79-.18-.31-.04-.7-.04-1.19-.04-4.88,0-6.03,2.9-6.03,6.69v11.75h-4.18v-17.6Z"/><path class="cls-1" d="m259.1,250.59l-.09-2.95h4.18v3.21c2.11-3.48,5.1-3.78,6.99-3.78,4.88,0,6.42,2.51,7.21,4.13.75-1.23,2.55-4.13,7.43-4.13,3.17,0,8.09,1.32,8.09,7.83v14.82h-4.18v-14.16c0-1.94-.35-2.77-.75-3.34-.7-1.01-2.11-1.94-4.22-1.94-2.68,0-4.13,1.54-4.71,2.33-.97,1.36-.97,3.78-.97,4.75v12.36h-4.18v-14.61c0-2.73-1.58-4.84-4.84-4.84-2.81,0-4.35,1.76-4.84,2.42-.92,1.28-.97,3.08-.97,4.49v12.54h-4.18v-19.14Z"/><path class="cls-1" d="m301.59,247.64v14.21c0,2.16.48,4.88,4.71,4.88,2.07,0,4-.7,5.19-2.46.92-1.32.92-3.04.92-4.13v-12.49h4.27v17.95c0,.44.09,2.9.13,4.13h-4.31l-.09-3.78c-.79,1.54-2.29,4-7.04,4-5.45,0-8.01-3.12-8.01-7.48v-14.82h4.22Z"/><path class="cls-1" d="m325.3,263.17c-.04,1.67.84,4,4.84,4,1.72,0,2.99-.31,3.87-1.41.44-.57.7-1.32.7-2.07,0-2.16-1.54-2.55-4.84-3.3-4.62-1.06-8.49-1.98-8.49-6.6,0-4.05,3.52-6.69,8.62-6.69,2.77,0,6.64.79,7.96,3.43.57,1.23.57,2.29.57,3.21h-4.22c.13-3.34-2.77-3.61-4.27-3.61-.62,0-4.49,0-4.49,3.17,0,2.02,1.98,2.51,3.12,2.82,6.11,1.45,7.43,1.8,8.75,3.04,1.23,1.14,1.67,2.68,1.67,4.09,0,2.46-1.36,4.58-2.99,5.59-1.94,1.19-4.27,1.5-6.55,1.5-4.49,0-8.67-1.85-8.62-7.17h4.36Z"/><path class="cls-1" d="m342.77,238.05h4.97v4.53h-4.97v-4.53Zm.44,9.59h4.14v22.08h-4.14v-22.08Z"/><path class="cls-1" d="m352.22,237.75h4.09v18.92l8.27-9.02h5.41l-9.33,9.37,9.9,12.71h-5.41l-8.84-11.92v11.92h-4.09v-31.98Z"/><path class="cls-1" d="m388.78,247.64v14.21c0,2.16.48,4.88,4.71,4.88,2.07,0,4-.7,5.19-2.46.92-1.32.92-3.04.92-4.13v-12.49h4.27v17.95c0,.44.09,2.9.13,4.13h-4.31l-.09-3.78c-.79,1.54-2.29,4-7.04,4-5.46,0-8.01-3.12-8.01-7.48v-14.82h4.22Z"/><path class="cls-1" d="m408.49,250.2l-.04-2.55h4.14l.04,3.56c.48-.92,2.07-4,7.08-4,1.98,0,8.01.75,8.01,7.52v15h-4.22v-14.03c0-1.45-.18-2.77-1.19-3.78-1.06-1.01-2.51-1.5-3.92-1.5-2.99,0-5.76,2.16-5.76,6.6v12.71h-4.13v-19.53Z"/><path class="cls-1" d="m448.56,238.01h4.13v28.2c0,.48.09,2.38.18,3.52h-4.13l-.09-3.52c-.35.62-.84,1.54-1.98,2.33-1.8,1.23-3.96,1.63-5.45,1.63-2.95,0-9.5-1.54-9.5-11.22,0-8.4,4.79-12.05,9.99-12.05,4.75,0,6.33,2.81,6.86,3.74v-12.63Zm-1.54,14.21c-.88-1.14-2.51-2.24-4.84-2.24-6.07,0-6.07,7.35-6.07,8.84,0,3.92,1.01,8.45,6.07,8.45,6.51,0,6.51-7.17,6.51-8.89,0-3.21-.75-4.97-1.67-6.16Z"/><path class="cls-1" d="m208.42,281.5h4.13v28.2c0,.48.09,2.38.18,3.52h-4.13l-.09-3.52c-.35.62-.84,1.54-1.98,2.33-1.8,1.23-3.96,1.63-5.45,1.63-2.95,0-9.5-1.54-9.5-11.22,0-8.4,4.79-12.05,9.99-12.05,4.75,0,6.33,2.81,6.86,3.74v-12.63Zm-1.54,14.21c-.88-1.14-2.51-2.24-4.84-2.24-6.07,0-6.07,7.35-6.07,8.84,0,3.92,1.01,8.45,6.07,8.45,6.51,0,6.51-7.17,6.51-8.89,0-3.21-.75-4.97-1.67-6.16Z"/><path class="cls-1" d="m231.47,313.22c-.31-1.1-.4-2.15-.4-3.3-1.98,3.65-4.97,4-6.82,4-5.06,0-7.79-2.86-7.79-6.51,0-1.76.62-4.58,3.87-6.47,2.38-1.32,5.89-1.45,7.65-1.45,1.06,0,1.72.04,2.99.13,0-2.73,0-3.92-.79-4.88-.84-1.1-2.64-1.45-3.83-1.45-4.18,0-4.4,2.86-4.44,3.74h-4.14c.13-1.14.26-2.68,1.54-4.18,1.67-1.85,4.79-2.38,7.13-2.38,3.21,0,6.64,1.01,7.83,3.26.7,1.32.75,2.37.75,3.39l-.18,10.56c0,.35.04,3.3.35,5.54h-3.74Zm-2.86-10.87c-1.67,0-7.96,0-7.96,4.49,0,1.41.88,3.83,4.58,3.83,2.11,0,3.69-.84,4.71-2.38.92-1.5.97-2.73,1.06-5.81-.75-.09-1.36-.13-2.37-.13Z"/><path class="cls-1" d="m239.83,295.62c0-1.49-.09-3.03-.22-4.49h4.18l.09,4.27c.79-3.08,3.43-4.09,5.28-4.36,1.23-.18,2.16-.13,2.86-.09v4.05c-.22-.09-.48-.13-.79-.18-.31-.04-.7-.04-1.19-.04-4.88,0-6.03,2.9-6.03,6.69v11.75h-4.18v-17.6Z"/><path class="cls-1" d="m258.88,306.66c-.04,1.67.84,4,4.84,4,1.71,0,2.99-.31,3.87-1.41.44-.57.7-1.32.7-2.07,0-2.16-1.54-2.55-4.84-3.3-4.62-1.06-8.49-1.98-8.49-6.6,0-4.05,3.52-6.69,8.62-6.69,2.77,0,6.64.79,7.96,3.43.57,1.23.57,2.29.57,3.21h-4.22c.13-3.34-2.77-3.61-4.27-3.61-.62,0-4.49,0-4.49,3.17,0,2.02,1.98,2.51,3.12,2.82,6.12,1.45,7.43,1.8,8.75,3.04,1.23,1.14,1.67,2.68,1.67,4.09,0,2.46-1.36,4.58-2.99,5.59-1.94,1.19-4.27,1.5-6.55,1.5-4.49,0-8.67-1.85-8.62-7.17h4.36Z"/><path class="cls-1" d="m274.89,291.05h3.92v-4.62l4.09-1.32v5.94h4.93v3.04h-4.93v13.24c0,1.1,0,2.95,2.95,2.95.84,0,1.63-.13,1.98-.22v3.21c-.75.13-1.94.26-3.43.26-3.78,0-5.59-1.1-5.59-4.71v-14.74h-3.92v-3.04Z"/><path class="cls-1" d="m294.55,302.92c-.09,4.58,1.8,7.96,6.33,7.96,2.68,0,4.84-1.41,5.19-4.58h4.14c-.13,1.1-.31,2.9-1.89,4.62-.97,1.1-3.17,2.95-7.61,2.95-6.95,0-10.25-4.31-10.25-11.31,0-4.36.88-7.96,4.35-10.38,2.11-1.5,4.75-1.63,6.03-1.63,9.9,0,9.68,8.75,9.59,12.36h-15.88Zm11.66-2.9c.04-2.11-.35-6.51-5.46-6.51-2.68,0-5.94,1.63-6.03,6.51h11.48Z"/><path class="cls-1" d="m314.61,281.5h4.13v31.72h-4.13v-31.72Z"/><path class="cls-1" d="m323.54,281.5h4.13v31.72h-4.13v-31.72Z"/><path class="cls-1" d="m335.77,302.92c-.09,4.58,1.8,7.96,6.33,7.96,2.68,0,4.84-1.41,5.19-4.58h4.13c-.13,1.1-.31,2.9-1.89,4.62-.97,1.1-3.17,2.95-7.61,2.95-6.95,0-10.25-4.31-10.25-11.31,0-4.36.88-7.96,4.36-10.38,2.11-1.5,4.75-1.63,6.03-1.63,9.9,0,9.68,8.75,9.59,12.36h-15.88Zm11.66-2.9c.04-2.11-.35-6.51-5.45-6.51-2.68,0-5.94,1.63-6.03,6.51h11.48Z"/><path class="cls-1" d="m356.1,293.69l-.04-2.55h4.13l.04,3.56c.48-.92,2.07-4,7.08-4,1.98,0,8.01.75,8.01,7.52v15h-4.22v-14.03c0-1.45-.18-2.77-1.19-3.78-1.06-1.01-2.51-1.5-3.92-1.5-2.99,0-5.76,2.16-5.76,6.6v12.71h-4.14v-19.53Z"/><path class="cls-1" d="m396.39,281.5h4.13v28.2c0,.48.09,2.38.18,3.52h-4.13l-.09-3.52c-.35.62-.84,1.54-1.98,2.33-1.8,1.23-3.96,1.63-5.45,1.63-2.95,0-9.5-1.54-9.5-11.22,0-8.4,4.79-12.05,9.99-12.05,4.75,0,6.33,2.81,6.86,3.74v-12.63Zm-1.54,14.21c-.88-1.14-2.51-2.24-4.84-2.24-6.07,0-6.07,7.35-6.07,8.84,0,3.92,1.01,8.45,6.07,8.45,6.51,0,6.51-7.17,6.51-8.89,0-3.21-.75-4.97-1.67-6.16Z"/><path class="cls-1" d="m408.62,302.92c-.09,4.58,1.8,7.96,6.33,7.96,2.68,0,4.84-1.41,5.19-4.58h4.13c-.13,1.1-.31,2.9-1.89,4.62-.97,1.1-3.17,2.95-7.61,2.95-6.95,0-10.25-4.31-10.25-11.31,0-4.36.88-7.96,4.36-10.38,2.11-1.5,4.75-1.63,6.03-1.63,9.9,0,9.68,8.75,9.59,12.36h-15.88Zm11.66-2.9c.04-2.11-.35-6.51-5.45-6.51-2.68,0-5.94,1.63-6.03,6.51h11.48Z"/><path class="cls-1" d="m192.81,324.73h4.09v18.92l8.27-9.02h5.41l-9.33,9.37,9.9,12.71h-5.41l-8.84-11.92v11.92h-4.09v-31.98Z"/><path class="cls-1" d="m218.01,334.62v14.21c0,2.16.48,4.88,4.71,4.88,2.07,0,4-.7,5.19-2.46.92-1.32.92-3.04.92-4.13v-12.49h4.27v17.95c0,.44.09,2.9.13,4.13h-4.31l-.09-3.78c-.79,1.54-2.29,4-7.04,4-5.45,0-8.01-3.12-8.01-7.48v-14.82h4.22Z"/><path class="cls-1" d="m238.16,337.18l-.04-2.55h4.13l.04,3.56c.48-.92,2.07-4,7.08-4,1.98,0,8.01.75,8.01,7.52v15h-4.22v-14.03c0-1.45-.18-2.77-1.19-3.78-1.06-1.01-2.51-1.5-3.92-1.5-2.99,0-5.76,2.16-5.76,6.6v12.71h-4.14v-19.53Z"/><path class="cls-1" d="m265.52,350.15c-.04,1.67.84,4,4.84,4,1.72,0,2.99-.31,3.87-1.41.44-.57.7-1.32.7-2.07,0-2.16-1.54-2.55-4.84-3.3-4.62-1.06-8.49-1.98-8.49-6.6,0-4.05,3.52-6.69,8.62-6.69,2.77,0,6.64.79,7.96,3.43.57,1.23.57,2.29.57,3.21h-4.22c.13-3.34-2.77-3.61-4.27-3.61-.62,0-4.49,0-4.49,3.17,0,2.02,1.98,2.51,3.12,2.82,6.11,1.45,7.43,1.8,8.75,3.03,1.23,1.14,1.67,2.68,1.67,4.09,0,2.46-1.36,4.57-2.99,5.59-1.94,1.19-4.27,1.5-6.55,1.5-4.49,0-8.67-1.85-8.62-7.17h4.36Z"/><path class="cls-1" d="m281.75,334.54h3.92v-4.62l4.09-1.32v5.94h4.93v3.04h-4.93v13.24c0,1.1,0,2.95,2.95,2.95.84,0,1.63-.13,1.98-.22v3.21c-.75.13-1.94.26-3.43.26-3.78,0-5.59-1.1-5.59-4.71v-14.74h-3.92v-3.04Z"/><path class="cls-1" d="m311.45,334.62l5.32,17.6,5.59-17.6h5.41l5.02,17.42,5.54-17.42h4.27l-7.79,22.08h-4.75l-5.19-18.17-5.76,18.17h-4.88l-7.3-22.08h4.53Z"/><path class="cls-1" d="m346.51,325.04h4.97v4.53h-4.97v-4.53Zm.44,9.59h4.13v22.08h-4.13v-22.08Z"/><path class="cls-1" d="m359,346.41c-.09,4.58,1.8,7.96,6.33,7.96,2.68,0,4.84-1.41,5.19-4.58h4.13c-.13,1.1-.31,2.9-1.89,4.62-.97,1.1-3.17,2.95-7.61,2.95-6.95,0-10.25-4.31-10.25-11.31,0-4.35.88-7.96,4.36-10.38,2.11-1.5,4.75-1.63,6.03-1.63,9.9,0,9.68,8.75,9.59,12.36h-15.88Zm11.66-2.9c.04-2.11-.35-6.51-5.45-6.51-2.68,0-5.94,1.63-6.03,6.51h11.48Z"/><path class="cls-1" d="m378.88,337.18l-.04-2.55h4.13l.04,3.56c.48-.92,2.07-4,7.08-4,1.98,0,8.01.75,8.01,7.52v15h-4.22v-14.03c0-1.45-.18-2.77-1.19-3.78-1.06-1.01-2.51-1.5-3.92-1.5-2.99,0-5.76,2.16-5.76,6.6v12.71h-4.14v-19.53Z"/><path class="cls-1" d="m195.13,64.71l14.97,59.24c.75-3.42,1.5-6.63,2.46-10.04.76-2.66,1.5-5.3,2.45-7.95l13.05-41.25h26.13l15.89,57.13c1.33-5.29,2.84-10.59,4.54-15.88l13.25-41.25h30.28l-34.07,102.38h-29.14l-15.52-53.75-18.73,53.75h-28.02l-28.37-102.38h30.83Z"/><path class="cls-1" d="m124.82,165.31h-33.36c8.45-8.66,20.31-14.06,33.36-14.12-4.2-2.82-12.03-7.37-25.12-7.37-15.29,0-29.42,6.66-38.48,18.74-10.19,13.38-11.12,27.35-11.12,33.38,0,21.88,9.03,32.42,14.69,37.7,11.88,10.94,24.94,15.32,36.34,15.32,8.36,0,16.61-1.56,23.79-4.36-21.03-.17-39.08-14.06-44.8-33.26h44.8v4.25h0c-5.2,0-9.41,2.94-9.41,6.56s4.21,6.56,9.41,6.56h0v15.89c5.47-2.18,10.54-5.18,15.04-9.14,11.78-10.35,15.58-25.14,15.58-41.34v-29.18l.02-116.35c0-10.06-.37-14.79-1.52-19.53-3.79-15.94-15.35-22.2-21.04-24.28-6.07-2.27-12.33-2.27-14.22-2.27-7.96,0-14.98,1.32-21.81,5.3-7.21,3.99-10.24,8.17-12.52,11.02-2.07-3.04-3.79-5.5-6.64-8.17-8.53-7.78-17.81-7.96-22.18-7.96-12.71,0-20.49,5.11-24.08,8.91-2.29,2.08-3.8,4.75-4.37,5.5V4.77H2v102.41h28.59v-55.75c.2-4.56.38-6.83,1.15-8.92,2.27-6.83,8.53-10.8,15.55-10.8,10.43,0,13.66,6.63,14.6,10.61.76,2.46.76,5.12.76,7.78v57.08h30.34v-55.37c0-5.51.19-10.44,3.41-14.99,4.37-6.07,11.38-6.63,13.64-6.63,1.34,0,5.14.19,8.55,2.27,5.88,3.98,6.26,9.86,6.26,16.31l-.03,116.54Zm-36.48,3.5h36.58v7.04h-41.2c1.33-2.49,2.87-4.85,4.62-7.04Zm-6.32,10.54h42.9v7.12h-7.81c-1.01-2.87-4.71-5-9.13-5s-8.12,2.13-9.13,5h-19.27c.62-2.46,1.44-4.84,2.43-7.12Zm-3.19,10.62h20.16c1.19,2.68,4.76,4.62,8.99,4.62s7.81-1.95,8.99-4.62h7.94v7.12h-46.79c.05-2.43.29-4.8.69-7.12Zm.39,17.87c-.51-2.36-.83-4.77-.97-7.25h46.67v7.25h-45.7Z"/><path class="cls-1" d="m438.5,340.78c0,9.33-7.57,16.72-16.63,16.72s-16.63-7.39-16.63-16.72,7.74-16.63,16.63-16.63,16.63,7.39,16.63,16.63Zm-31.28,0c0,8.27,6.64,14.78,14.65,14.78s14.65-6.6,14.65-14.78-6.38-14.65-14.65-14.65-14.65,6.6-14.65,14.65Zm8.58-9.06h6.34c1.32,0,6.07,0,6.07,4.49,0,.53,0,3.34-3.34,4.31,1.85.44,2.46,1.23,2.73,3.43.26,2.2.44,3.87,1.06,5.63h-2.55c-.35-1.14-.53-1.85-.88-4.66-.26-2.73-.97-3.43-3.87-3.43h-3.08v8.1h-2.46v-17.86Zm2.46,7.66h3.87c1.23,0,3.52,0,3.52-2.73s-2.2-2.82-3.52-2.82h-3.87v5.54Z"/></svg>