<?xml version="1.0" encoding="utf-8"?>
<!-- Generator: Adobe Illustrator 23.0.4, SVG Export Plug-In . SVG Version: 6.00 Build 0)  -->
<svg version="1.1"
	 id="svg2" xmlns:cc="http://creativecommons.org/ns#" xmlns:dc="http://purl.org/dc/elements/1.1/" xmlns:rdf="http://www.w3.org/1999/02/22-rdf-syntax-ns#" xmlns:svg="http://www.w3.org/2000/svg"
	 xmlns="http://www.w3.org/2000/svg" xmlns:xlink="http://www.w3.org/1999/xlink" x="0px" y="0px" viewBox="0 0 737 226.8"
	 style="enable-background:new 0 0 737 226.8;" xml:space="preserve">
<style type="text/css">
	.st0{fill:#BCBFBE;}
	.st1{fill:#03448B;}
	.st2{fill-rule:evenodd;clip-rule:evenodd;fill:#121212;}
	.st3{fill:#121212;}
</style>
<g>
	<path class="st0" d="M109.2,37.9H50.5c-3.9,0-6.5,3.1-6.5,7.2V63h60.8L102,78.3H44v41.5H28V44.1c0-11.7,5.5-21.5,20.7-21.5h63.2
		L109.2,37.9L109.2,37.9z"/>
	<path class="st1" d="M125.4,22.6v71.3c0,16.8,4.3,26,23.8,26h105.8V22.6H239v82.6h-32.5c-5.1,0-7.2-1.8-7.2-6.7v-76h-15.8h-0.3
		v82.6h-32.9c-6.4,0-8.6-2.3-8.6-8.6v-74H125.4L125.4,22.6z"/>
	<path class="st1" d="M352.3,37.9h-58.6c-3.9,0-6.5,3.1-6.5,7.2V63H348l-2.7,15.3h-58v41.5h-16V44.1c0-11.7,5.5-21.6,20.7-21.6h63.2
		L352.3,37.9L352.3,37.9z"/>
	<path class="st2" d="M126.6,204.6h0.7c1.5,0,3.3,0.1,5.4,0.1c2.5,0.1,4.4,0.1,6.2,0.1c4.4,0,7.5-0.7,9.5-2.1
		c3.7-2.6,5.8-8.1,5.8-15c0-7.4-2.1-12.9-5.7-15.5c-2.1-1.5-4.7-2.1-8.4-2.1c-0.5,0-3.2,0.1-8,0.2h-5.1h-0.3v0.4
		c0.1,0.9,0.1,3.7,0.2,8.2l0.1,8.6l-0.1,8.5c-0.1,4.5-0.1,7.3-0.2,8.2L126.6,204.6L126.6,204.6z M132.4,201v-0.4l-0.1-6l-0.1-7.1
		v-1.1c0-1.4,0-3.8,0.1-7.2c0-2.1,0.1-3.8,0.1-4.7v-0.6c1.3-0.2,4.2-0.3,6.1-0.3c6.9,0,10.1,4.4,10.1,14c0,6-1.3,10.3-3.8,12.1
		c-1.4,0.9-3.7,1.5-6.4,1.5l-2.8-0.1c-1.5-0.1-2.3-0.1-2.7-0.2C132.7,201,132.6,201,132.4,201L132.4,201z"/>
	<path class="st2" d="M181.8,203.9v-4.1c-2.8,1.3-5.6,1.9-8.4,1.9c-5.6,0-8.3-3.2-8.3-10v-0.9l0.6-0.1c0.9-0.1,3.5-0.1,7.6-0.1
		c4.9,0,7.7,0,8.7,0.1l0.6,0.1c0.1-0.9,0.1-1.4,0.1-2.2c0-3.6-0.4-5.4-1.7-7c-1.6-2.1-4.6-3.1-8.6-3.1c-8.4,0-12.2,4.4-12.2,13.5
		c0,8.9,4,13.2,12.4,13.2C175.5,205.2,178.9,204.8,181.8,203.9L181.8,203.9z M165.4,187.9c0.3-4.3,2.3-6.2,6.4-6.2
		c4.2,0,5.9,1.6,5.9,5.7v0.3h-0.4c-0.9,0.1-2.5,0.1-4.7,0.1h-0.9c-3.2,0-5.1,0-5.7-0.1L165.4,187.9L165.4,187.9z"/>
	<path class="st2" d="M189.5,204.6h5.2v-0.5c-0.2-1.6-0.3-4.7-0.3-9.1v-1.1c0-4.4,0.2-6,0.9-7.9c0.9-2.5,2.6-3.7,4.9-3.7
		c0.9,0,1.9,0.2,3.2,0.5v-3.7c-1.1-0.4-2-0.7-3-0.7c-2.1,0-3.8,0.9-5,2.6c-0.6,0.8-0.7,1.1-1.4,2.6v-0.7l0.1-3.2v-0.6h-4.6
		c0.1,0.3,0.1,0.4,0.1,0.5c0.1,0.9,0.1,2.9,0.2,6l0.1,6.2l-0.1,6.5c-0.1,2.9-0.1,4.9-0.2,5.7C189.5,204.3,189.5,204.5,189.5,204.6
		L189.5,204.6z"/>
	<path class="st3" d="M228.7,204.6h5.7l0.1-0.5l1.9-7.4l1.7-6.6c1.6-5.9,2.9-10.7,3.5-12.6l0.3-0.9l0.3,1.1l1.5,5.4
		c1.7,6.3,2.4,8.9,3.7,14.2c0.7,2.8,1.2,5.1,1.6,6.9l0.2,0.5h5.8l0.1-0.5c0.5-1.6,1.3-4.5,2.4-8.5c0.9-3.4,1.6-6.1,2.2-8.1l2.6-8.8
		l2.3-7.9l0.2-0.5h-4.9l-0.1,0.5l-1.5,6.5l-2,8.5l-1.6,6.5l-1.5,5.5l-0.3,1c-0.2-0.4-0.3-0.8-0.3-0.9c-0.1-0.3-0.6-2.1-1.4-5.2
		l-1.7-6.6l-2-8.4l-1.6-6.8c-0.1-0.1-0.1-0.3-0.1-0.5h-6.2l-0.1,0.5c-0.3,1.3-0.8,3.6-1.6,7c-1.1,4.4-1.8,7.4-2.1,8.5l-1.6,6.3
		l-1.5,5.4l-0.3,0.9l-0.3-1c-0.1-0.3-0.5-2.1-1.4-5.2c-0.9-3.2-1.4-5.2-1.6-6.2l-2-8.2l-1.7-7.4l-0.1-0.5H219l0.2,0.5
		c1.8,5.7,3.1,9.7,5,16.7l2.2,7.9l2.2,8.8L228.7,204.6L228.7,204.6z"/>
	<path class="st2" d="M268.3,204.6h5.3c-0.1-0.2-0.1-0.4-0.1-0.5c-0.1-0.9-0.1-2.7-0.2-5.7l-0.1-6.5l0.1-6.2c0.1-3.2,0.1-5.2,0.2-6
		c0-0.1,0-0.3,0.1-0.5h-5.3c0,0.3,0,0.4,0.1,0.5c0.1,0.9,0.1,2.9,0.1,6l0.1,6.2l-0.1,6.5c0,2.9-0.1,4.9-0.1,5.7
		C268.3,204.3,268.3,204.5,268.3,204.6L268.3,204.6z M268.1,171.5c0,2.1,0.9,3.2,2.8,3.2c2,0,2.9-1,2.9-3.2s-0.9-3.2-2.8-3.2
		C269,168.3,268.1,169.3,268.1,171.5L268.1,171.5z"/>
	<path class="st3" d="M280,203.9c3.5,0.9,6.5,1.4,9.6,1.4c6.4,0,10.5-3.2,10.5-8.1c0-2.2-0.9-4.4-2.6-5.5c-1.5-1-2.7-1.5-6-2.4
		c-3-0.8-3.6-0.9-4.4-1.5c-1.1-0.6-1.7-1.5-1.7-2.6c0-2.1,1.9-3.3,5-3.3c2.1,0,4.7,0.6,7.8,1.7v-4.4c-0.7,0-0.9,0-2-0.1
		c-2.9-0.3-4.9-0.4-6.4-0.4c-5.7,0-9.4,2.9-9.4,7.4c0,2.1,0.9,3.9,2.4,5c1.2,0.9,2.4,1.4,5,2.1c1.6,0.4,2.6,0.8,3.2,0.9
		c0.8,0.2,1.5,0.4,2.1,0.9c0.4,0.2,0.9,0.4,1.1,0.9c0.6,0.6,0.9,1.5,0.9,2.3c0,2.4-2.1,3.9-5.7,3.9c-2.8,0-5.6-0.7-9.1-2.3
		L280,203.9L280,203.9z"/>
	<path class="st3" d="M305.1,203.9c3.5,0.9,6.5,1.4,9.6,1.4c6.4,0,10.5-3.2,10.5-8.1c0-2.2-0.9-4.4-2.6-5.5c-1.5-1-2.7-1.5-6-2.4
		c-3-0.8-3.6-0.9-4.4-1.5c-1.1-0.6-1.7-1.5-1.7-2.6c0-2.1,1.9-3.3,5-3.3c2.1,0,4.7,0.6,7.8,1.7v-4.4c-0.7,0-0.9,0-2-0.1
		c-2.9-0.3-4.9-0.4-6.4-0.4c-5.7,0-9.4,2.9-9.4,7.4c0,2.1,0.9,3.9,2.4,5c1.2,0.9,2.4,1.4,5,2.1c1.6,0.4,2.6,0.8,3.2,0.9
		c0.8,0.2,1.5,0.4,2.1,0.9c0.4,0.2,0.9,0.4,1.1,0.9c0.6,0.6,0.9,1.5,0.9,2.3c0,2.4-2.1,3.9-5.7,3.9c-2.8,0-5.6-0.7-9.1-2.3
		L305.1,203.9L305.1,203.9z"/>
	<path class="st2" d="M352.1,203.9v-4.1c-2.8,1.3-5.6,1.9-8.4,1.9c-5.6,0-8.3-3.2-8.3-10v-0.9l0.6-0.1c0.9-0.1,3.5-0.1,7.6-0.1
		c4.9,0,7.7,0,8.7,0.1l0.6,0.1c0.1-0.9,0.1-1.4,0.1-2.2c0-3.6-0.4-5.4-1.7-7c-1.6-2.1-4.6-3.1-8.6-3.1c-8.4,0-12.2,4.4-12.2,13.5
		c0,8.9,4,13.2,12.4,13.2C345.8,205.2,349.2,204.8,352.1,203.9L352.1,203.9z M335.7,187.9c0.3-4.3,2.3-6.2,6.4-6.2
		c4.2,0,5.9,1.6,5.9,5.7v0.3h-0.4c-0.9,0.1-2.5,0.1-4.7,0.1H342c-3.2,0-5.1,0-5.7-0.1L335.7,187.9L335.7,187.9z"/>
	<path class="st2" d="M359.8,204.6h5.3l-0.1-0.5l-0.1-4.6l-0.1-5.6l0.1-4.9c0-3.1,0.3-4.4,1.3-5.4c1.1-1.2,2.6-1.7,5-1.7
		c2,0,3.4,0.4,4.4,1.2c1.2,1,1.6,2.4,1.6,5.5l-0.1,4.6l-0.1,7.5v0.6c0,1.6,0,2,0.2,3.3h5.5c-0.3-1.4-0.3-1.9-0.3-3.8
		c-0.1-2.4-0.1-6-0.1-8.8v-2.6c0-0.5,0.1-0.9,0.1-1.5c0-3.6-0.2-4.7-0.9-6c-0.4-0.9-1.1-1.5-2-2.1c-1.6-1-3.7-1.5-6.3-1.5
		c-3.8,0-6.6,1-8.5,3.2v-0.6l-0.1-1.5l0.1-0.5h-4.9c0.1,0.3,0.1,0.4,0.1,0.5c0.1,0.9,0.1,2.9,0.2,6l0.1,6.2l-0.1,6.5
		c-0.1,2.9-0.1,4.9-0.2,5.7C359.9,204.3,359.9,204.5,359.8,204.6L359.8,204.6z"/>
	<path class="st3" d="M388.9,203.9c3.5,0.9,6.5,1.4,9.6,1.4c6.4,0,10.5-3.2,10.5-8.1c0-2.2-0.9-4.4-2.6-5.5c-1.5-1-2.7-1.5-6-2.4
		c-3-0.8-3.6-0.9-4.4-1.5c-1.1-0.6-1.7-1.5-1.7-2.6c0-2.1,1.9-3.3,5-3.3c2.1,0,4.7,0.6,7.8,1.7v-4.4c-0.7,0-0.9,0-2-0.1
		c-2.9-0.3-4.9-0.4-6.4-0.4c-5.7,0-9.4,2.9-9.4,7.4c0,2.1,0.9,3.9,2.4,5c1.2,0.9,2.4,1.4,5,2.1c1.6,0.4,2.6,0.8,3.2,0.9
		c0.8,0.2,1.5,0.4,2.1,0.9c0.4,0.2,0.9,0.4,1.1,0.9c0.6,0.6,0.9,1.5,0.9,2.3c0,2.4-2.1,3.9-5.7,3.9c-2.8,0-5.6-0.7-9.1-2.3
		L388.9,203.9L388.9,203.9z"/>
	<path class="st3" d="M433.6,178.9l-0.6-0.1c-1.4-0.2-3.2-0.3-3.9-0.3c-0.8-0.1-1.5-0.1-2.4-0.1c-4.6,0-7.4,0.9-9.2,2.9
		c-2.2,2.4-3.3,6-3.3,10.5c0,4.4,0.9,7.7,3.1,10c2.1,2.3,4.4,3.2,8.5,3.2c2.8,0,5.5-0.4,7.9-1.4v-3.9c-1.8,1-4.7,1.7-7,1.7
		c-4.9,0-7.3-3.3-7.3-10c0-7.1,2.1-9.8,7.4-9.8c2.1,0,4.4,0.4,6.8,1.2L433.6,178.9L433.6,178.9z"/>
	<path class="st3" d="M440.6,204.6h5.3l-0.1-0.5c-0.1-1.4-0.1-3.5-0.1-6.4c-0.1-2.8-0.1-5.2-0.1-7.2v-0.6c0-3.4,0.3-5,1.2-6.2
		c1-1.2,2.8-1.9,5.1-1.9c4.4,0,6,1.7,6,6.5v0.4l-0.2,10.1v1.2c0,2.2,0,2.8,0.2,4.5h5.4c-0.3-3.2-0.4-6-0.4-10.7c0-1.9,0-3.9,0.1-6.2
		v-0.6c0-3.3-0.4-5-1.6-6.2c-1.6-1.6-4.3-2.6-7.7-2.6s-5.8,0.9-7.9,2.7c0-0.4-0.1-0.7-0.1-0.9c0-0.3,0.1-2.1,0.1-5.3l0.2-6.4
		l0.1-0.5h-5.5l0.1,0.5l0.2,9.7l0.1,8.8l-0.1,8.7l-0.2,8.3L440.6,204.6L440.6,204.6z"/>
	<path class="st2" d="M486.9,200.4c0,1.8,0.1,3.2,0.3,4.2h4.6c-0.5-2.2-0.7-5.6-0.7-11.4v-0.7l0.1-4.7v-0.6c0-4-0.3-5.2-1.7-6.5
		c-1.7-1.6-4.1-2.2-8.2-2.2c-1.5,0-3,0.1-4.5,0.3c-1.7,0.2-3.1,0.3-3.8,0.3c-0.1,0-0.3,0-0.4-0.1l-0.3,4.2c3.1-0.9,5.6-1.4,8.3-1.4
		c4.2,0,5.9,1.2,5.9,4.4v1.4v0.6c-1.7-0.1-4.2-0.2-5.6-0.2c-7.3,0-11.2,2.9-11.2,8.6c0,5.6,3.2,8.6,9,8.6
		C482.6,205.2,485.2,203.9,486.9,200.4L486.9,200.4z M486.2,191.2v0.3c0,2.6-0.3,4.7-0.7,6.2c-0.8,2.5-3.1,4.1-5.9,4.1
		c-3.2,0-5.2-2-5.2-5.2c0-3.9,2.4-5.6,7.9-5.6c1.1,0,1.9,0,3.4,0.2L486.2,191.2L486.2,191.2z"/>
	<path class="st3" d="M500.6,204.6h5.3l-0.1-0.5c-0.1-1.4-0.1-3.6-0.1-6.5c0-2.6-0.1-4.8-0.1-6.4c-0.1-2.5-0.1-4.1-0.1-4.9v-4v-0.4
		h0.6l2.8,0.1c1.9,0.1,2.2,0.1,3.5,0.2l0.3-3.1h-0.4c-1.5,0.1-3.3,0.2-5.4,0.2h-0.9h-0.5v-0.5l0.1-2.5c0.1-2.6,0.2-3.2,0.9-3.9
		c0.7-0.7,1.5-0.9,2.9-0.9c1.3,0,2.6,0.2,4.1,0.6v-4c-0.6,0.1-0.7,0.1-1.4,0.1h-0.4h-2.3c-3,0-4.6,0.3-5.8,0.9
		c-1.9,0.9-2.6,2.9-2.6,6.2v3.6v0.4c-0.3,0.1-0.4,0.1-0.6,0.1c-0.2,0-0.5,0-0.9-0.1h-0.9c-0.1,0-0.3-0.1-0.4-0.1v3l0.4-0.1l0.9-0.1
		l1-0.1h0.4v0.5l-0.1,4.3l-0.1,4.7l-0.1,6.3l-0.1,6.4L500.6,204.6L500.6,204.6z"/>
	<path class="st3" d="M531.1,204.4v-3.2c-1.6,0.4-2.6,0.5-3.6,0.5c-2.1,0-3.2-0.9-3.3-2.8c-0.1-0.9-0.1-1.4-0.2-4.4V191l-0.1-3.8
		v-4.8v-0.4h0.5h3.1c1.7,0,2.8,0.1,3.3,0.1c0.2,0,0.2,0,0.3,0.1l0.3-3.2c-1.5,0.2-2,0.2-3.9,0.2l-3.2,0.1H524v-0.9
		c0-0.3,0-1.1,0.1-2.5l0.1-3.4l0.1-0.6l-5.1,1.5l0.1,0.4l0.1,2.9v2.1v0.5h-0.4h-1.2c-0.3-0.1-0.7-0.1-1.1-0.1l-0.3-0.1v3h0.3
		l1.4-0.1h0.9h0.5v0.6l0.1,3.8l-0.1,4.1l-0.1,3.8c-0.1,2.6-0.2,4.4-0.2,5.2c0,3.9,2.1,5.8,6.5,5.8
		C527.5,205.2,528.9,205.1,531.1,204.4L531.1,204.4z"/>
	<path class="st3" d="M535.7,203.9c3.5,0.9,6.5,1.4,9.6,1.4c6.4,0,10.5-3.2,10.5-8.1c0-2.2-0.9-4.4-2.6-5.5c-1.5-1-2.7-1.5-6-2.4
		c-3-0.8-3.6-0.9-4.4-1.5c-1.1-0.6-1.7-1.5-1.7-2.6c0-2.1,1.9-3.3,5-3.3c2.1,0,4.7,0.6,7.8,1.7v-4.4c-0.7,0-0.9,0-2-0.1
		c-2.9-0.3-4.9-0.4-6.4-0.4c-5.7,0-9.4,2.9-9.4,7.4c0,2.1,0.9,3.9,2.4,5c1.2,0.9,2.4,1.4,5,2.1c1.6,0.4,2.6,0.8,3.2,0.9
		c0.8,0.2,1.5,0.4,2.1,0.9c0.4,0.2,0.9,0.4,1.1,0.9c0.6,0.6,0.9,1.5,0.9,2.3c0,2.4-2.1,3.9-5.7,3.9c-2.8,0-5.6-0.7-9.1-2.3
		L535.7,203.9L535.7,203.9z"/>
	<path class="st3" d="M562.4,204.6h5.3l-0.1-0.5c-0.1-1.4-0.1-3.6-0.1-6.5c0-2.6-0.1-4.8-0.1-6.4c-0.1-2.5-0.1-4.1-0.1-4.9v-4v-0.4
		h0.6l2.8,0.1c1.9,0.1,2.2,0.1,3.5,0.2l0.3-3.1h-0.4c-1.5,0.1-3.3,0.2-5.4,0.2h-0.9h-0.5v-0.5l0.1-2.5c0.1-2.6,0.2-3.2,0.9-3.9
		c0.7-0.7,1.5-0.9,2.9-0.9c1.3,0,2.6,0.2,4.1,0.6v-4c-0.6,0.1-0.7,0.1-1.4,0.1h-0.4h-2.3c-3,0-4.6,0.3-5.8,0.9
		c-1.9,0.9-2.6,2.9-2.6,6.2v3.6v0.4c-0.3,0.1-0.4,0.1-0.6,0.1c-0.2,0-0.5,0-0.9-0.1h-0.9c-0.1,0-0.3-0.1-0.4-0.1v3l0.4-0.1l0.9-0.1
		l1-0.1h0.4v0.5l-0.1,4.3l-0.1,4.7l-0.1,6.3l-0.1,6.4L562.4,204.6L562.4,204.6z"/>
	<path class="st2" d="M576.2,191.9c0,9.1,3.9,13.4,12.4,13.4c8.4,0,12.5-4.2,12.5-13.1c0-9.4-3.8-13.7-12.4-13.7
		C580,178.6,576.2,182.7,576.2,191.9L576.2,191.9z M581.5,191.8c0-7.1,2.1-10,7.1-10c5,0,7.2,3.1,7.2,9.7c0,7.4-2.1,10.3-7.1,10.3
		C583.5,202,581.5,199,581.5,191.8L581.5,191.8z"/>
	<path class="st2" d="M607.5,204.6h5.3l-0.1-0.5l-0.1-4.6l-0.1-5.6l0.1-4.9c0-3.1,0.3-4.4,1.3-5.4c1.1-1.2,2.6-1.7,5-1.7
		c2,0,3.4,0.4,4.4,1.2c1.2,1,1.6,2.4,1.6,5.5l-0.1,4.6l-0.1,7.5v0.6c0,1.6,0,2,0.2,3.3h5.5c-0.3-1.4-0.3-1.9-0.3-3.8
		c-0.1-2.4-0.1-6-0.1-8.8v-2.6c0-0.5,0.1-0.9,0.1-1.5c0-3.6-0.2-4.7-0.9-6c-0.4-0.9-1.1-1.5-2-2.1c-1.6-1-3.7-1.5-6.3-1.5
		c-3.8,0-6.6,1-8.5,3.2v-0.6l-0.1-1.5l0.1-0.5h-5c0.1,0.3,0.1,0.4,0.1,0.5c0.1,0.9,0.1,2.9,0.2,6l0.1,6.2l-0.1,6.5
		c-0.1,2.9-0.1,4.9-0.2,5.7C607.5,204.3,607.5,204.5,607.5,204.6L607.5,204.6z"/>
	<path class="st2" d="M655.6,200.5c0,2.1,0.1,3.2,0.2,4.2h4.8c-0.3-1.6-0.4-3.3-0.6-6c-0.1-2.5-0.2-7.4-0.2-12.4
		c0-6.7,0.2-15.2,0.3-17.9v-0.3h-5.2v0.4c0.1,1.2,0.1,3.1,0.2,5.4c0.1,1.9,0.1,3.4,0.1,4.4v0.6l-0.1,0.6c-0.8-0.3-1-0.3-1.5-0.4
		c-1.3-0.3-2.9-0.4-4.4-0.4c-7.8,0-12.1,5-12.1,13.9c0,8.5,3.6,12.7,10.8,12.7C652,205.2,654.1,203.9,655.6,200.5L655.6,200.5z
		 M655,182.8l0.1,0.6v2.2c0,2.6-0.1,5.6-0.1,8.1c-0.1,1.6-0.2,3-0.6,4.1c-0.7,2.4-2.9,3.9-5.7,3.9c-4.4,0-6.5-3.2-6.5-9.7
		c0-6.9,2.5-10.3,7.6-10.3C651.5,181.9,653,182.1,655,182.8L655,182.8z"/>
	<path class="st3" d="M666.5,203.9c3.5,0.9,6.5,1.4,9.6,1.4c6.4,0,10.5-3.2,10.5-8.1c0-2.2-0.9-4.4-2.6-5.5c-1.5-1-2.7-1.5-6-2.4
		c-3-0.8-3.6-0.9-4.4-1.5c-1.1-0.6-1.7-1.5-1.7-2.6c0-2.1,1.9-3.3,5-3.3c2.1,0,4.7,0.6,7.8,1.7v-4.4c-0.7,0-0.9,0-2-0.1
		c-2.9-0.3-4.9-0.4-6.4-0.4c-5.7,0-9.4,2.9-9.4,7.4c0,2.1,0.9,3.9,2.4,5c1.2,0.9,2.4,1.4,5,2.1c1.6,0.4,2.6,0.8,3.2,0.9
		c0.8,0.2,1.5,0.4,2.1,0.9c0.4,0.2,0.9,0.4,1.1,0.9c0.6,0.6,0.9,1.5,0.9,2.3c0,2.4-2.1,3.9-5.7,3.9c-2.8,0-5.6-0.7-9.1-2.3
		L666.5,203.9L666.5,203.9z"/>
	<path class="st3" d="M692.4,202.1c0,2.1,0.9,3.2,2.8,3.2c2,0,2.9-1,2.9-3.1c0-2.2-0.9-3.2-2.8-3.2
		C693.3,198.8,692.4,199.8,692.4,202.1L692.4,202.1z"/>
</g>
</svg>
