<svg xmlns="http://www.w3.org/2000/svg" style="position: absolute; width: 0; height: 0; overflow: hidden;" version="1.1">
  <defs>
    <symbol viewBox="0 0 24 24" id="icon-search">
      <path fill="currentColor" d="M10 4a6 6 0 1 1-4.24 1.76A6 6 0 0 1 10 4m0-2a8 8 0 1 0 5.66 2.34A8 8 0 0 0 10 2z"></path>
      <path fill="currentColor" d="M17.07 15.66h-.71l-1.09-1.1-.71.71 1.1 1.09v.71l4.85 4.85 1.41-1.41-4.85-4.85"></path>
    </symbol>
    <symbol id="icon-comments" viewBox="0 0 16 16">
      <title>icon-comments</title>
      <rect x="2" y="4" width="12" height="8" rx="1" ry="1"></rect>
      <path d="M5 12v3l3-3H5z"></path>
    </symbol>
    <symbol id="icon-arrow" viewBox="0 0 24 24">
      <title>icon-arrow</title>
      <path d="M4,11V13H16L10.5,18.5L11.92,19.92L19.84,12L11.92,4.08L10.5,5.5L16,11H4Z" />
    </symbol>
    <symbol id="icon-video" viewBox="0 0 16 16">
      <title>icon-video</title>
      <rect x="2" y="4" width="9" height="8" rx="1" ry="1"></rect>
      <path d="M10 8l4-3v6l-4-3z"></path>
    </symbol>
    <symbol viewBox="0 0 16 16" id="icon-audio">
      <title>icon-audio</title>
      <path fill="currentColor" d="M8.19 2.12L4 6H2v4h2l4.19 3.88a.5.5 0 0 0 .81-.43V2.55a.5.5 0 0 0-.81-.43zM11 5v2a1 1 0 0 1 0 2v2a3 3 0 0 0 0-6z"></path>
    </symbol>
    <symbol id="icon-chevron" viewBox="0 0 24 24">
      <title>icon-chevron</title>
      <path fill="none" stroke="currentColor" stroke-miterlimit="10" stroke-width="2" d="M9 6.02l6 6-6 6"></path>
    </symbol>
    <svg id="icon-arrow" viewBox="0 0 24 24">
      <title>icon-arrow</title>
      <path fill="none" stroke="currentColor" stroke-width="2" stroke-miterlimit="10" d="M4 12h15m-6-6l6 6-6 6"></path>
    </svg>
    <symbol id="icon-user" viewBox="0 0 24 24">
      <title>icon-user</title>
      <ellipse fill="currentColor" cx="12" cy="7.5" rx="3" ry="3.5"></ellipse>
      <path fill="currentColor" d="M12 13c-7 0-7 6-7 6h14s0-6-7-6z"></path>
    </symbol>
    <symbol id="icon-poll" viewBox="0 0 16 16">
      <title>icon-poll</title>
      <path fill="currentColor" d="M3 5h2v9H3zm4-3h2v12H7zm4 6h2v6h-2z"></path>
    </symbol>
    <symbol id="icon-download" viewBox="0 0 24 24">
      <title>icon-download</title>
      <path fill="none" stroke="currentColor" stroke-width="2" stroke-miterlimit="10" d="M12 3v13m5-5l-5 5-5-5"></path>
      <path fill="currentColor" d="M3 19h18v2H3z"></path>
    </symbol>
    <symbol id="icon-download-pdf" viewBox="0 0 24 24">
      <title>icon-download-pdf</title>
      <path fill="none" d="M24 0v24H0V0z"></path>
      <path d="M6.05 18a2.91 2.91 0 0 1-2.05.64 4.31 4.31 0 0 1-.64 0V21H2v-7h2.4a2.45 2.45 0 0 1 1.86.57 2.17 2.17 0 0 1 .59 1.57 2.41 2.41 0 0 1-.8 1.86zm-1.78-2.86h-.93v2.33H4c1 0 1.5-.38 1.5-1.24s-.4-1.09-1.23-1.09zM14.48 20a3.67 3.67 0 0 1-2.83 1H9.06v-7h2.6a3.51 3.51 0 0 1 2.84 1 3.66 3.66 0 0 1 0 4.94zm-1.28-4.41a2.74 2.74 0 0 0-1.68-.41h-1.06v4.65h1.06A2.18 2.18 0 0 0 14 17.49a2.36 2.36 0 0 0-.8-1.9zM19.23 15.14v1.8h2.46v1.12h-2.46V21h-1.34v-7h4.34v1.14z" fill="currentColor"></path>
      <path fill="none" stroke="currentColor" stroke-miterlimit="10" stroke-width="2" d="M12 2v9M17 6l-5 5-5-5"></path>
    </symbol>
    <symbol id="icon-info" viewBox="0 0 24 28">
      <title>icon-info</title>
      <path d="M12 2c6.625 0 12 5.375 12 12s-5.375 12-12 12-12-5.375-12-12 5.375-12 12-12zM14 21.484v-2.969c0-0.281-0.219-0.516-0.484-0.516h-3c-0.281 0-0.516 0.234-0.516 0.516v2.969c0 0.281 0.234 0.516 0.516 0.516h3c0.266 0 0.484-0.234 0.484-0.516zM13.969 16.109l0.281-9.703c0-0.109-0.047-0.219-0.156-0.281-0.094-0.078-0.234-0.125-0.375-0.125h-3.437c-0.141 0-0.281 0.047-0.375 0.125-0.109 0.063-0.156 0.172-0.156 0.281l0.266 9.703c0 0.219 0.234 0.391 0.531 0.391h2.891c0.281 0 0.516-0.172 0.531-0.391z"/>
    </symbol>
    <symbol id="icon-warning" viewBox="0 0 28 28">
      <title>icon-warning</title>
      <path d="M16 21.484v-2.969c0-0.281-0.219-0.516-0.5-0.516h-3c-0.281 0-0.5 0.234-0.5 0.516v2.969c0 0.281 0.219 0.516 0.5 0.516h3c0.281 0 0.5-0.234 0.5-0.516zM15.969 15.641l0.281-7.172c0-0.094-0.047-0.219-0.156-0.297-0.094-0.078-0.234-0.172-0.375-0.172h-3.437c-0.141 0-0.281 0.094-0.375 0.172-0.109 0.078-0.156 0.234-0.156 0.328l0.266 7.141c0 0.203 0.234 0.359 0.531 0.359h2.891c0.281 0 0.516-0.156 0.531-0.359zM15.75 1.047l12 22c0.344 0.609 0.328 1.359-0.031 1.969s-1.016 0.984-1.719 0.984h-24c-0.703 0-1.359-0.375-1.719-0.984s-0.375-1.359-0.031-1.969l12-22c0.344-0.641 1.016-1.047 1.75-1.047s1.406 0.406 1.75 1.047z"/>
    </symbol>
    <symbol id="icon-check-circle" viewBox="0 0 24 28">
      <title>icon-check-circle</title>
      <path d="M20.062 11.469c0-0.266-0.094-0.531-0.281-0.719l-1.422-1.406c-0.187-0.187-0.438-0.297-0.703-0.297s-0.516 0.109-0.703 0.297l-6.375 6.359-3.531-3.531c-0.187-0.187-0.438-0.297-0.703-0.297s-0.516 0.109-0.703 0.297l-1.422 1.406c-0.187 0.187-0.281 0.453-0.281 0.719s0.094 0.516 0.281 0.703l5.656 5.656c0.187 0.187 0.453 0.297 0.703 0.297 0.266 0 0.531-0.109 0.719-0.297l8.484-8.484c0.187-0.187 0.281-0.438 0.281-0.703zM24 14c0 6.625-5.375 12-12 12s-12-5.375-12-12 5.375-12 12-12 12 5.375 12 12z"/>
    </symbol>
    <symbol id="icon-ex-circle" viewBox="0 0 24 28">
      <title>icon-ex-circle</title>
      <path d="M17.953 17.531c0-0.266-0.109-0.516-0.297-0.703l-2.828-2.828 2.828-2.828c0.187-0.187 0.297-0.438 0.297-0.703s-0.109-0.531-0.297-0.719l-1.406-1.406c-0.187-0.187-0.453-0.297-0.719-0.297s-0.516 0.109-0.703 0.297l-2.828 2.828-2.828-2.828c-0.187-0.187-0.438-0.297-0.703-0.297s-0.531 0.109-0.719 0.297l-1.406 1.406c-0.187 0.187-0.297 0.453-0.297 0.719s0.109 0.516 0.297 0.703l2.828 2.828-2.828 2.828c-0.187 0.187-0.297 0.438-0.297 0.703s0.109 0.531 0.297 0.719l1.406 1.406c0.187 0.187 0.453 0.297 0.719 0.297s0.516-0.109 0.703-0.297l2.828-2.828 2.828 2.828c0.187 0.187 0.438 0.297 0.703 0.297s0.531-0.109 0.719-0.297l1.406-1.406c0.187-0.187 0.297-0.453 0.297-0.719zM24 14c0 6.625-5.375 12-12 12s-12-5.375-12-12 5.375-12 12-12 12 5.375 12 12z"/>
    </symbol>
    <symbol id="icon-readmore" viewBox="0 0 24 24">
      <title>icon-readmore</title>
      <path fill="currentColor" d="M18 20.77l-6-3.6-6 3.6V5a2 2 0 0 1 2-2h8a2 2 0 0 1 2 2zm-6-5.93l4 2.4V5H8v12.23z"></path>
    </symbol>
    <symbol viewBox="0 0 16 16" id="icon-plus">
      <title>icon-plus</title>
      <path fill="currentColor" d="M14 7H9V2H7v5H2v2h5v5h2V9h5V7z"></path>
    </symbol>
    <symbol id="icon-code" viewBox="0 0 30 28">
      <title>icon-code</title>
      <path d="M9.641 21.859l-0.781 0.781c-0.203 0.203-0.516 0.203-0.719 0l-7.281-7.281c-0.203-0.203-0.203-0.516 0-0.719l7.281-7.281c0.203-0.203 0.516-0.203 0.719 0l0.781 0.781c0.203 0.203 0.203 0.516 0 0.719l-6.141 6.141 6.141 6.141c0.203 0.203 0.203 0.516 0 0.719zM18.875 5.187l-5.828 20.172c-0.078 0.266-0.359 0.422-0.609 0.344l-0.969-0.266c-0.266-0.078-0.422-0.359-0.344-0.625l5.828-20.172c0.078-0.266 0.359-0.422 0.609-0.344l0.969 0.266c0.266 0.078 0.422 0.359 0.344 0.625zM29.141 15.359l-7.281 7.281c-0.203 0.203-0.516 0.203-0.719 0l-0.781-0.781c-0.203-0.203-0.203-0.516 0-0.719l6.141-6.141-6.141-6.141c-0.203-0.203-0.203-0.516 0-0.719l0.781-0.781c0.203-0.203 0.516-0.203 0.719 0l7.281 7.281c0.203 0.203 0.203 0.516 0 0.719z"/>
    </symbol>
    <symbol id="icon-fork" viewBox="0 0 16 28">
      <title>icon-fork</title>
      <path d="M4.5 23c0-0.828-0.672-1.5-1.5-1.5s-1.5 0.672-1.5 1.5 0.672 1.5 1.5 1.5 1.5-0.672 1.5-1.5zM4.5 5c0-0.828-0.672-1.5-1.5-1.5s-1.5 0.672-1.5 1.5 0.672 1.5 1.5 1.5 1.5-0.672 1.5-1.5zM14.5 7c0-0.828-0.672-1.5-1.5-1.5s-1.5 0.672-1.5 1.5 0.672 1.5 1.5 1.5 1.5-0.672 1.5-1.5zM16 7c0 1.109-0.609 2.078-1.5 2.594-0.047 5.641-4.047 6.891-6.703 7.734-2.484 0.781-3.297 1.156-3.297 2.672v0.406c0.891 0.516 1.5 1.484 1.5 2.594 0 1.656-1.344 3-3 3s-3-1.344-3-3c0-1.109 0.609-2.078 1.5-2.594v-12.812c-0.891-0.516-1.5-1.484-1.5-2.594 0-1.656 1.344-3 3-3s3 1.344 3 3c0 1.109-0.609 2.078-1.5 2.594v7.766c0.797-0.391 1.641-0.656 2.406-0.891 2.906-0.922 4.562-1.609 4.594-4.875-0.891-0.516-1.5-1.484-1.5-2.594 0-1.656 1.344-3 3-3s3 1.344 3 3z"/>
    </symbol>
    <symbol id="icon-menu" viewBox="0 0 32 32">
      <title>icon-menu</title>
      <path d="M2 6h28v6h-28zM2 14h28v6h-28zM2 22h28v6h-28z"/>
    </symbol>
    <symbol id="icon-translations" viewBox="0 0 2412 2794">
      <title>icon-translations</title>
      <g id="Language-Icon-Fireworks-[Converted]" stroke="none" stroke-width="1" fill="none" fill-rule="evenodd">
        <polyline id="Fill-1" fill="#000105" points="1204.57 359.16 271.83 29.96 271.83 2060.05 1204.57 1758.28 1204.57 359.16"/>
        <polyline id="Fill-2" fill="#FFFFFE" points="1182.18 358.14 2150.63 28.95 2150.63 2059.04 1182.18 1757.27 1182.18 358.14"/>
        <polyline id="Fill-3" fill="#FFFFFE" points="29.96 2415.43 1182.18 2031.38 1182.18 357.92 29.96 741.97 29.96 2415.43"/>
        <polyline id="Fill-4" fill="#000105" points="1707.21 2440.71 1870.51 2709.37 1956.62 2459.8 1707.21 2440.71"/>
        <path d="M421.74,934.75 C415.62,928.74 429.71,983.86 449.32,1003.69 C484.09,1038.77 511.25,1043.29 525.71,1043.87 C557.71,1045.15 597.2,1035.9 620.65,1026.07 C643.34,1016.39 683.1,996.09 698.15,966.48 C701.34,960.15 710.05,949.52 704.58,923.26 C700.43,903.06 687.57,895.99 671.89,897.11 C656.21,898.17 608.74,910.83 585.78,917.89 C562.81,924.86 515.5,939.26 494.88,943.73 C474.31,948.19 428.96,941.66 421.74,934.75" id="Fill-5" fill="#000105"/>
        <path d="M1003.1,1593.67 C994.02,1590.37 806.16,1512.55 779.53,1499.8 C757.74,1489.32 704.31,1466.73 679.17,1456.47 C749.98,1347.29 794.68,1264.9 800.63,1252.35 C811.64,1229.39 886.59,1082.73 888.34,1073.7 C890.04,1064.55 892.17,1030.75 890.52,1022.72 C888.87,1014.53 861.39,1030.27 824.08,1042.92 C786.71,1055.52 715.69,1101.71 688.26,1107.5 C660.73,1113.24 572.75,1146.57 527.73,1161.51 C482.71,1176.45 397.55,1202.44 362.52,1211.9 C327.44,1221.36 296.82,1222.11 277.2,1228.06 C277.2,1228.06 279.81,1255.54 285.02,1263.78 C290.17,1272.02 308.73,1292.22 330.31,1297.86 C351.89,1303.54 387.61,1301.26 403.88,1297.54 C420.14,1293.76 448.31,1280 452.09,1273.99 C455.91,1267.88 450.12,1249.06 456.55,1243.37 C463.04,1237.74 548.78,1217.7 581.15,1207.92 C613.52,1197.97 737.43,1155.29 754.23,1157.47 C748.91,1175.12 649.24,1372.54 617.14,1431.44 C585.03,1490.33 398.51,1749.42 358.8,1795.08 C328.66,1829.79 255.62,1918.61 230.32,1938.65 C236.7,1940.41 281.93,1936.53 290.17,1931.43 C341.52,1899.8 427.05,1793.33 454.59,1760.9 C536.45,1664.9 608.37,1564.06 665.4,1477.52 L665.46,1477.52 C676.57,1482.15 766.4,1555.34 789.84,1571.56 C813.28,1587.77 905.78,1639.38 925.82,1647.94 C945.86,1656.61 1022.88,1692.12 1026.12,1680.1 C1029.36,1667.98 1012.19,1597.12 1003.1,1593.67" id="Fill-6" fill="#000105"/>
        <path d="M569,2572 C587,2583 604,2592 623,2601 C661,2620 704,2640 745,2655 C801,2676 857,2693 913,2706 C944,2713 978,2719 1011,2724 C1014,2724 1103,2735 1121,2735 L1211,2735 C1246,2732 1279,2730 1314,2725 C1342,2721 1373,2716 1403,2709 C1425,2704 1448,2699 1470,2692 C1491,2686 1515,2678 1538,2670 C1553,2665 1569,2658 1585,2652 C1598,2646 1614,2639 1629,2633 C1647,2625 1668,2614 1688,2604 C1704,2596 1722,2586 1739,2576 C1752,2569 1782,2546 1798,2546 C1816,2546 1828,2562 1828,2576 C1828,2605 1789,2614 1771,2627 C1752,2640 1729,2650 1709,2661 C1669,2682 1628,2700 1589,2715 C1538,2734 1482,2752 1432,2764 C1413,2768 1394,2773 1375,2776 C1365,2778 1261,2794 1232,2794 L1100,2794 C1065,2791 1028,2787 993,2782 C962,2777 929,2771 898,2764 C874,2759 848,2752 825,2745 C785,2734 746,2720 708,2705 C639,2679 567,2645 499,2600 C487,2592 486,2584 486,2575 C486,2560 497,2546 515,2546 C531,2546 563,2569 569,2572" id="Fill-7" fill="#000105"/>
        <g id="Group-11">
          <mask id="mask-2" fill="white">
            <polygon id="path-1" points="0 0.04 2181 0.04 2181 2445 0 2445"/>
          </mask>
          <g id="Clip-9"/>
          <path d="M1212,354 L1212,2034 C1211,2039 1209,2044 1205,2049 C1203,2052 1199,2056 1196,2057 C1171,2067 45,2445 30,2445 C18,2445 7,2437 1,2424 C1,2423 0,2422 0,2420 L0,739 C2,734 3,727 7,723 C15,712 29,710 38,707 C55,701 1164,329 1180,329 C1190,329 1212,336 1212,354 Z M1151,2009 L61,2372 L61,764 L1151,401 L1151,2009 L1151,2009 Z" id="Fill-8" fill="#000105" mask="url(#mask-2)"/>
          <path d="M2181,32 L2181,2055 C2180,2078 2164,2088 2149,2088 C2136,2088 2042,2056 2026,2051 C1900,2012 1773,1973 1648,1934 C1620,1925 1591,1916 1564,1907 C1540,1900 1514,1892 1490,1884 C1383,1851 1274,1818 1167,1782 C1163,1781 1153,1767 1153,1764 L1153,351 C1155,346 1157,340 1162,336 C1170,327 1513,213 1648,168 C1684,155 2135,0 2149,0 C2167,0 2181,13 2181,32 Z M2120,2017 L1213,1735 L1213,380 L2120,72 L2120,2017 L2120,2017 Z" id="Fill-10" fill="#000105" mask="url(#mask-2)"/>
        </g>
        <polyline id="Fill-12" fill="#000105" points="2411.21 2440.71 1199.5 2054.5 1204.57 373.2 2411.21 757.25 2411.21 2440.71"/>
        <path d="M1728.98,853.19 L1885.09,900.48 L2169.5,1925.5 L2009.15,1876.85 L1951.54,1666.42 L1620.16,1565.98 L1548.9,1737.4 L1388.5,1688.74 L1728.98,853.19 Z M1800.35,1124.55 L1681.42,1412.01 L1900.07,1478.29 L1800.35,1124.55 L1800.35,1124.55 Z" id="Fill-13" fill="#FFFFFE"/>
      </g>
    </symbol>
    <symbol id="icon-rss" viewBox="0 0 24 24">
      <title>icon-rss</title>
      <path fill="currentColor" d="M6 16c1.1 0 2 .9 2 2s-.9 2-2 2-2-.9-2-2 .9-2 2-2M4 4.4c8.6 0 15.6 7 15.6 15.6h-2.8C16.7 13 11 7.3 4 7.3V4.4"></path>
      <path fill="currentColor" d="M4 10.1c5.5 0 9.9 4.4 9.9 9.9h-2.8c0-3.9-3.2-7.1-7.1-7.1v-2.8z"></path>
    </symbol>
    <symbol id="icon-twitter" viewBox="0 0 32 32">
      <title>icon-twitter</title>
      <path d="M31.939 6.092c-1.18 0.519-2.44 0.872-3.767 1.033 1.352-0.815 2.392-2.099 2.884-3.631-1.268 0.74-2.673 1.279-4.169 1.579-1.195-1.279-2.897-2.079-4.788-2.079-3.623 0-6.56 2.937-6.56 6.556 0 0.52 0.060 1.020 0.169 1.499-5.453-0.257-10.287-2.876-13.521-6.835-0.569 0.963-0.888 2.081-0.888 3.3 0 2.28 1.16 4.284 2.917 5.461-1.076-0.035-2.088-0.331-2.971-0.821v0.081c0 3.18 2.257 5.832 5.261 6.436-0.551 0.148-1.132 0.228-1.728 0.228-0.419 0-0.82-0.040-1.221-0.115 0.841 2.604 3.26 4.503 6.139 4.556-2.24 1.759-5.079 2.807-8.136 2.807-0.52 0-1.039-0.031-1.56-0.089 2.919 1.859 6.357 2.945 10.076 2.945 12.072 0 18.665-9.995 18.665-18.648 0-0.279 0-0.56-0.020-0.84 1.281-0.919 2.4-2.080 3.28-3.397l-0.063-0.027z"/>
    </symbol>
    <symbol id="icon-youtube" viewBox="0 0 32 32">
      <title>icon-youtube</title>
      <path d="M31.327 8.273c-0.386-1.353-1.431-2.398-2.756-2.777l-0.028-0.007c-2.493-0.668-12.528-0.668-12.528-0.668s-10.009-0.013-12.528 0.668c-1.353 0.386-2.398 1.431-2.777 2.756l-0.007 0.028c-0.443 2.281-0.696 4.903-0.696 7.585 0 0.054 0 0.109 0 0.163l-0-0.008c-0 0.037-0 0.082-0 0.126 0 2.682 0.253 5.304 0.737 7.845l-0.041-0.26c0.386 1.353 1.431 2.398 2.756 2.777l0.028 0.007c2.491 0.669 12.528 0.669 12.528 0.669s10.008 0 12.528-0.669c1.353-0.386 2.398-1.431 2.777-2.756l0.007-0.028c0.425-2.233 0.668-4.803 0.668-7.429 0-0.099-0-0.198-0.001-0.297l0 0.015c0.001-0.092 0.001-0.201 0.001-0.31 0-2.626-0.243-5.196-0.708-7.687l0.040 0.258zM12.812 20.801v-9.591l8.352 4.803z"/>
    </symbol>
    <symbol id="icon-linkedin" viewBox="0 0 16 16">
      <title>icon-linkedin</title>
      <path d="M14 1H2a1 1 0 0 0-1 1v12a1 1 0 0 0 1 1h12a1 1 0 0 0 1-1V2a1 1 0 0 0-1-1zM5 13H3V6h2zm0-8H3V3h2zm8 8h-2.24V9.58c0-.81 0-1.56-1.17-1.56s-1.35.59-1.35 1.5V13H6V6h2.15v1a2.32 2.32 0 0 1 2.12-1A2.41 2.41 0 0 1 13 8.65z"></path>
    </symbol>
    <symbol id="icon-share" viewBox="0 0 24 24">
      <title>icon-share</title>
      <circle fill="currentColor" cx="7" cy="12" r="3"></circle>
      <circle fill="currentColor" cx="17" cy="6" r="3"></circle>
      <circle fill="currentColor" cx="17" cy="18" r="3"></circle>
      <path fill="none" stroke="currentColor" stroke-width="2" stroke-miterlimit="10" d="M17 6L7 12l10 6"></path>
    </symbol>
    <symbol id="icon-permissions" viewBox="0 0 24 24">
      <title>icon-permissions</title>
      <path fill="currentColor" d="M12 3.8A8.2 8.2 0 1 1 3.8 12 8.21 8.21 0 0 1 12 3.8M12 2a10 10 0 1 0 10 10A10 10 0 0 0 12 2z"></path>
      <path fill="currentColor" d="M12 9a3 3 0 1 1-3 3 3 3 0 0 1 3-3m0-2a5 5 0 1 0 5 5 5 5 0 0 0-5-5z"></path>
      <path fill="#fff" d="M18 15l-7-3 7-3v6"></path>
    </symbol>
    <symbol id="icon-close" viewBox="0 0 24 24">
      <title>icon-close</title>
      <path fill="none" stroke="currentColor" stroke-miterlimit="10" stroke-width="2" d="M6 18L18 6m0 12L6 6"></path>
    </symbol>
  </defs>
</svg>
