<?xml version="1.0" encoding="utf-8"?>
<!-- Generator: Adobe Illustrator 12.0.0, SVG Export Plug-In . SVG Version: 6.00 Build 51448)  -->
<!DOCTYPE svg PUBLIC "-//W3C//DTD SVG 1.1//EN" "http://www.w3.org/Graphics/SVG/1.1/DTD/svg11.dtd" [
	<!ENTITY ns_svg "http://www.w3.org/2000/svg">
	<!ENTITY ns_xlink "http://www.w3.org/1999/xlink">
]>
<svg  version="1.1" id="Layer_1" xmlns="&ns_svg;" xmlns:xlink="&ns_xlink;" width="820" height="235" viewBox="0 0 820 235"
	 overflow="visible" enable-background="new 0 0 820 235" xml:space="preserve">
<g>
	<path fill-rule="evenodd" clip-rule="evenodd" d="M155.219,36.397c0.698,0.34,1.592,0.049,1.943-0.67
		c0.349-0.717,0.03-1.602-0.668-1.943c-0.717-0.349-1.594-0.047-1.943,0.67S154.502,36.046,155.219,36.397L155.219,36.397z
		 M158.252,30.179c0.698,0.342,1.594,0.048,1.943-0.668c0.349-0.719,0.03-1.604-0.668-1.943c-0.719-0.351-1.593-0.048-1.943,0.67
		C157.235,28.954,157.536,29.83,158.252,30.179L158.252,30.179z"/>
	<path fill="none" stroke="#000000" stroke-width="1.5" stroke-miterlimit="3.8637" d="M80.413,170.775c0,0,8.05,6.934,38.173,6.934
		c30.124,0,38.995-6.354,38.995-6.354v5.765c0,0-8.871,6.351-38.995,6.351c-30.123,0-38.173-6.934-38.173-6.934V170.775
		L80.413,170.775z"/>
	<path fill="none" stroke="#000000" stroke-width="1.5" stroke-linecap="round" stroke-miterlimit="3.8637" d="M182.277,182.816
		c0-1.87,1.516-3.383,3.387-3.383c1.869,0,3.384,1.513,3.384,3.383c0,1.871-1.516,3.387-3.384,3.387
		C183.793,186.203,182.277,184.688,182.277,182.816L182.277,182.816z M165.07,196.59c0-1.866,1.516-3.383,3.386-3.383
		s3.387,1.517,3.387,3.383c0,1.871-1.516,3.387-3.387,3.387S165.07,198.461,165.07,196.59L165.07,196.59z"/>
	<path d="M113.146,114.25c0-0.674,0.545-1.219,1.221-1.219c0.672,0,1.217,0.545,1.217,1.219c0,0.674-0.545,1.219-1.217,1.219
		C113.691,115.469,113.146,114.924,113.146,114.25L113.146,114.25z"/>
	<path d="M115.091,116.079c0-0.674,0.545-1.219,1.219-1.219s1.219,0.545,1.219,1.219c0,0.672-0.545,1.217-1.219,1.217
		S115.091,116.751,115.091,116.079L115.091,116.079z"/>
	<path d="M117.037,117.907c0-0.674,0.545-1.219,1.219-1.219s1.219,0.545,1.219,1.219c0,0.672-0.545,1.219-1.219,1.219
		S117.037,118.579,117.037,117.907L117.037,117.907z"/>
	<path d="M118.586,120.226c0-0.676,0.545-1.221,1.219-1.221c0.672,0,1.219,0.545,1.219,1.221c0,0.672-0.547,1.217-1.219,1.217
		C119.131,121.442,118.586,120.897,118.586,120.226L118.586,120.226z"/>
	<path d="M119.281,123.021c0-0.672,0.547-1.217,1.221-1.217c0.672,0,1.219,0.545,1.219,1.217c0,0.673-0.547,1.218-1.219,1.218
		C119.828,124.239,119.281,123.694,119.281,123.021L119.281,123.021z"/>
	<path d="M119.49,125.576c0-0.673,0.547-1.222,1.221-1.222c0.672,0,1.217,0.549,1.217,1.222c0,0.672-0.545,1.217-1.217,1.217
		C120.037,126.793,119.49,126.248,119.49,125.576L119.49,125.576z"/>
	<path d="M119.09,128.495c0-0.672,0.545-1.217,1.219-1.217c0.672,0,1.219,0.545,1.219,1.217c0,0.673-0.547,1.222-1.219,1.222
		C119.635,129.717,119.09,129.168,119.09,128.495L119.09,128.495z"/>
	<path d="M118.687,131.415c0-0.672,0.547-1.217,1.219-1.217c0.674,0,1.221,0.545,1.221,1.217s-0.547,1.221-1.221,1.221
		C119.234,132.636,118.687,132.087,118.687,131.415L118.687,131.415z"/>
	<path d="M120.968,129.951c0-0.672,0.547-1.217,1.221-1.217c0.672,0,1.217,0.545,1.217,1.217c0,0.676-0.545,1.222-1.217,1.222
		C121.515,131.173,120.968,130.627,120.968,129.951L120.968,129.951z"/>
	<path d="M122.518,127.76c0-0.676,0.547-1.221,1.219-1.221c0.674,0,1.219,0.545,1.219,1.221c0,0.672-0.545,1.218-1.219,1.218
		C123.064,128.978,122.518,128.432,122.518,127.76L122.518,127.76z"/>
	<path d="M123.946,125.206c0-0.676,0.545-1.221,1.219-1.221c0.672,0,1.217,0.545,1.217,1.221c0,0.672-0.545,1.217-1.217,1.217
		C124.491,126.423,123.946,125.878,123.946,125.206L123.946,125.206z"/>
	<path d="M125.372,122.648c0-0.672,0.547-1.217,1.219-1.217c0.674,0,1.219,0.545,1.219,1.217c0,0.676-0.545,1.221-1.219,1.221
		C125.919,123.869,125.372,123.324,125.372,122.648L125.372,122.648z"/>
	<path d="M126.068,119.853c0-0.675,0.545-1.22,1.219-1.22c0.674,0,1.219,0.545,1.219,1.22c0,0.672-0.545,1.221-1.219,1.221
		C126.613,121.073,126.068,120.524,126.068,119.853L126.068,119.853z"/>
	<path d="M126.277,117.296c0-0.672,0.545-1.217,1.219-1.217c0.672,0,1.219,0.545,1.219,1.217c0,0.674-0.547,1.221-1.219,1.221
		C126.823,118.518,126.277,117.97,126.277,117.296L126.277,117.296z"/>
	<path d="M125.876,114.376c0-0.672,0.545-1.219,1.219-1.219c0.672,0,1.219,0.547,1.219,1.219c0,0.674-0.547,1.219-1.219,1.219
		C126.421,115.596,125.876,115.051,125.876,114.376L125.876,114.376z"/>
	<polygon fill="none" stroke="#000000" stroke-width="1.5" stroke-miterlimit="3.8637" points="60.24,85.043 79.891,85.043 
		79.891,91.76 60.24,91.76 60.24,85.043 	"/>
	
		<path fill="none" stroke="#000000" stroke-width="1.5" stroke-linecap="round" stroke-linejoin="round" stroke-miterlimit="3.8637" d="
		M85.633,99.283c-0.086,12.489,0.343,19.001,1.451,31.99c1.393,16.38,2.531,21.312,5.414,34.7 M83.674,96.365
		c-0.394,21.03,0.394,34.038,0.59,49.761c0.205,16.436,0.59,15.33,2.162,20.636 M149.914,127.79
		c-1.113,20.337-4.938,36.862-7.484,38.691 M154.291,126.677c-1.112,20.338-2.07,35.94-4.452,41.28"/>
	<path fill="none" stroke="#000000" stroke-width="1.5" stroke-linecap="round" stroke-miterlimit="3.8637" d="M61.235,195.455
		c0-1.87,1.514-3.387,3.384-3.387s3.387,1.517,3.387,3.387s-1.516,3.387-3.387,3.387S61.235,197.325,61.235,195.455L61.235,195.455z
		 M45.507,182.324c0-1.871,1.516-3.387,3.387-3.387c1.869,0,3.386,1.516,3.386,3.387c0,1.87-1.518,3.386-3.386,3.386
		C47.023,185.71,45.507,184.194,45.507,182.324L45.507,182.324z"/>
	<path fill="none" stroke="#000000" stroke-width="1.5" stroke-miterlimit="1" d="M117.896,91.127l-5.119,2.608
		c-0.743,2.999-1.116,4.703-1.697,7.738c-0.362,1.895-1.798,3.194-0.848,4.874c0.446,0.79,0.874,1.21,1.697,1.591
		c1.012,0.468,1.792,0.427,2.86,0.106c0.836-0.252,1.363-0.487,1.908-1.167c0.788-0.98,0.5-1.923,0.53-3.179
		c0.052-2.205-2.503-4.34-1.271-5.513C118.147,96.102,118.702,93.914,117.896,91.127L117.896,91.127z"/>
	<path fill="none" stroke="#000000" stroke-width="1.5" stroke-miterlimit="3.8637" d="M130.187,96.601
		c0.122,2.683,2.194,3.272,2.194,5.481c0,2.311,0.2,2.126-0.366,3.286c-0.442,0.907-0.846,1.419-1.706,1.945
		c-1.262,0.771-2.388,0.879-3.773,0.366"/>
	<path fill="none" stroke="#000000" stroke-width="1.5" stroke-miterlimit="3.8637" d="M115.95,107.191
		c0.265,1.014,0.317,1.631,0.239,2.675c-0.093,1.23-0.293,1.945-0.847,3.049 M125.725,108.087c0.162,1.689,0.097,2.688-0.284,4.34
		c-0.282,1.229-0.528,1.914-1.096,3.041"/>
	<path fill="none" stroke="#000000" stroke-width="1.5" stroke-miterlimit="3.8637" d="M118.594,91.346
		c2.375-0.459,3.754-0.579,6.17-0.542c2.048,0.034,3.211,0.153,5.221,0.542c0.349,1.454,0.411,2.335,0.271,3.825
		c-0.051,0.519-0.095,0.81-0.204,1.32c0.36,1.695,0.345,2.759-0.067,4.441c-0.364,1.488-0.941,2.207-1.665,3.556
		c-0.526,0.98-0.846,1.523-1.447,2.459c-0.368,0.603-0.685,0.913-1.299,1.262c-1.208,0.685-2.351,0.685-3.556,0
		c-2.28-1.116-4.036-3.946-5.201-5.937"/>
	<polygon points="119.771,95.006 124.224,94.9 123.791,96.41 120.393,96.86 119.771,95.006 	"/>
	<polygon points="129.841,94.793 126.515,94.719 126.873,96.173 129.311,96.703 129.841,94.793 	"/>
	<polygon points="126.025,95.219 126.025,98.505 126.556,99.882 125.919,100.517 126.979,100.836 127.086,96.278 126.873,95.219 
		126.025,95.219 	"/>
	<polygon points="127.403,102.957 123.164,102.957 123.8,103.805 124.859,104.333 127.192,104.439 127.403,102.957 	"/>
	<path fill="none" stroke="#000000" stroke-width="1.5" stroke-miterlimit="3.8637" d="M112.665,93.317
		c2.313-1.283,3.752-1.835,6.329-2.435c4.206-0.976,6.864-0.976,11.07,0l0.732-3.651c-4.417-1.357-7.352-1.447-11.843-0.36
		c-3.063,0.741-4.783,1.507-7.385,3.286L112.665,93.317L112.665,93.317z M110.958,89.791l-5.23-5.235
		c1.344-1.396,2.686-1.924,4.622-1.824c1.994,0.104,3.323,0.823,4.503,2.433l2.556-1.585c-0.356-1.135-0.415-1.863-0.245-3.041
		c0.252-1.744,2.072-4.014,2.072-4.014c0.123,0,2.755,0.917,3.769,2.311c0.846,1.167,1.133,2.089,1.096,3.53l3.288,0.366
		c0.192-1.648,0.825-2.705,2.188-3.651c1.833-1.273,3.838-1.316,5.724-0.122c-1.368,1.667-2.052,2.705-3.041,4.621
		c-0.597,1.154-0.817,1.859-1.342,3.048"/>
	
		<path fill="none" stroke="#000000" stroke-width="1.5" stroke-linecap="round" stroke-linejoin="round" stroke-miterlimit="3.8637" d="
		M117.113,73.875c-3.896-11.201-6.308-21.112,1.473-21.446c9.917-0.426,8.431,8.137,3.827,21.526 M125.307,75.365
		c2.834-10.49,4.167-21.416,11.7-18.452c7.204,2.834,6.407,8.683-4.309,17.937 M135.115,86.496
		c11.604-3.827,19.499-8.479,21.69-2.879 M136.465,75.419c3.917-5.361,11.572-12.204,15.129-5.055
		c4.268,8.578-5.703,9.489-14.513,12.035 M114.921,75.093c-3.829-10.219-7.305-21.185-12.717-18.81
		c-7.279,3.192-4.816,8.341,8.333,21.489 M102.014,84.834c-11.337-4.098-17.311-8.205-20.147-1.904 M107.859,78.746
		c-4.135-4.73-16.764-19.54-20.731-9.592c-3.455,8.67,7.204,9.165,15.618,12.271"/>
	<path fill="none" stroke="#000000" stroke-width="1.5" stroke-miterlimit="3.8637" d="M103.907,196.911
		c-6.252-3.887-12.241-5.519-17.181-10.155c-2.171-2.039-2.685-4.638-1.65-6.422"/>
	
		<path fill="none" stroke="#000000" stroke-width="1.5" stroke-linecap="round" stroke-linejoin="round" stroke-miterlimit="3.8637" d="
		M113.615,197.964c-4.621-3.136-7.322-4.188-8.356-8.371c-0.534-2.165-0.149-4.039,1.484-5.521 M117.052,196.311
		c-2.836-3.585-3.732-3.596-4.188-6.721c-0.282-1.935,0.601-4.036,2.102-4.918 M109.579,197.513
		c-6.573-3.137-8.81-3.081-12.995-8.674c-1.783-2.386-1.633-3.435-0.75-5.82 M119.09,196.311c2.835-3.585,3.73-3.596,4.187-6.721
		c0.282-1.935-0.601-4.036-2.104-4.918 M121.274,198.054c5.22-2.404,9.088-4.88,10.122-9.065c0.534-2.165,0.433-3.285-1.202-4.768
		 M126.563,197.513c6.571-3.137,9.907-3.514,14.089-9.106c1.785-2.383,2.449-3.286,0.452-5.238 M132.234,196.911
		c6.252-3.887,11.554-4.167,16.492-8.804c2.171-2.039,1.184-5.089,0.151-6.874"/>
	<path d="M65.202,189.926c0-0.743,0.603-1.345,1.344-1.345s1.342,0.602,1.342,1.345c0,0.739-0.601,1.34-1.342,1.34
		S65.202,190.665,65.202,189.926L65.202,189.926z"/>
	<path d="M68.309,193.633c0-0.743,0.601-1.344,1.344-1.344c0.741,0,1.342,0.601,1.342,1.344c0,0.739-0.601,1.341-1.342,1.341
		C68.91,194.974,68.309,194.372,68.309,193.633L68.309,193.633z"/>
	<path d="M67.329,199.342c0-0.743,0.603-1.344,1.342-1.344c0.743,0,1.344,0.601,1.344,1.344s-0.601,1.341-1.344,1.341
		C67.932,200.683,67.329,200.085,67.329,199.342L67.329,199.342z"/>
	<path d="M61.379,200.966c0-0.743,0.601-1.344,1.342-1.344s1.342,0.601,1.342,1.344c0,0.739-0.601,1.341-1.342,1.341
		S61.379,201.705,61.379,200.966L61.379,200.966z"/>
	<path d="M58.112,196.814c0-0.739,0.603-1.341,1.344-1.341s1.342,0.602,1.342,1.341c0,0.743-0.601,1.344-1.342,1.344
		S58.112,197.558,58.112,196.814L58.112,196.814z"/>
	<path d="M59.535,191.464c0-0.739,0.601-1.341,1.344-1.341c0.741,0,1.342,0.602,1.342,1.341c0,0.743-0.601,1.344-1.342,1.344
		C60.136,192.808,59.535,192.207,59.535,191.464L59.535,191.464z"/>
	<path d="M49.476,176.794c0-0.739,0.601-1.344,1.342-1.344s1.342,0.604,1.342,1.344c0,0.743-0.601,1.345-1.342,1.345
		S49.476,177.537,49.476,176.794L49.476,176.794z"/>
	<path d="M52.583,180.502c0-0.743,0.601-1.345,1.342-1.345c0.741,0,1.342,0.602,1.342,1.345s-0.601,1.34-1.342,1.34
		C53.184,181.842,52.583,181.245,52.583,180.502L52.583,180.502z"/>
	<path d="M51.601,186.211c0-0.743,0.601-1.345,1.344-1.345c0.741,0,1.342,0.602,1.342,1.345c0,0.742-0.601,1.344-1.342,1.344
		C52.202,187.555,51.601,186.953,51.601,186.211L51.601,186.211z"/>
	<path d="M45.651,187.835c0-0.743,0.601-1.345,1.342-1.345c0.743,0,1.344,0.602,1.344,1.345c0,0.739-0.601,1.34-1.344,1.34
		C46.252,189.175,45.651,188.574,45.651,187.835L45.651,187.835z"/>
	<path d="M42.386,183.687c0-0.743,0.601-1.344,1.342-1.344s1.342,0.601,1.342,1.344c0,0.739-0.601,1.341-1.342,1.341
		S42.386,184.426,42.386,183.687L42.386,183.687z"/>
	<path d="M43.808,178.336c0-0.743,0.601-1.344,1.342-1.344s1.342,0.601,1.342,1.344c0,0.739-0.601,1.341-1.342,1.341
		S43.808,179.075,43.808,178.336L43.808,178.336z"/>
	<path d="M169.039,191.064c0-0.743,0.601-1.345,1.342-1.345s1.342,0.602,1.342,1.345c0,0.739-0.601,1.34-1.342,1.34
		S169.039,191.804,169.039,191.064L169.039,191.064z"/>
	<path d="M172.146,194.769c0-0.739,0.601-1.341,1.342-1.341s1.342,0.602,1.342,1.341c0,0.742-0.601,1.344-1.342,1.344
		S172.146,195.511,172.146,194.769L172.146,194.769z"/>
	<path d="M171.164,200.477c0-0.739,0.603-1.34,1.344-1.34s1.342,0.601,1.342,1.34c0,0.743-0.601,1.345-1.342,1.345
		S171.164,201.22,171.164,200.477L171.164,200.477z"/>
	<path d="M165.214,202.101c0-0.742,0.601-1.344,1.342-1.344s1.344,0.602,1.344,1.344c0,0.743-0.603,1.341-1.344,1.341
		S165.214,202.844,165.214,202.101L165.214,202.101z"/>
	<path d="M161.949,197.953c0-0.743,0.602-1.345,1.342-1.345c0.741,0,1.342,0.602,1.342,1.345c0,0.739-0.601,1.34-1.342,1.34
		C162.55,199.293,161.949,198.692,161.949,197.953L161.949,197.953z"/>
	<path d="M163.372,192.603c0-0.743,0.601-1.344,1.342-1.344s1.342,0.601,1.342,1.344s-0.601,1.344-1.342,1.344
		S163.372,193.346,163.372,192.603L163.372,192.603z"/>
	<path d="M82.392,25.17c0-0.743,0.601-1.344,1.344-1.344c0.741,0,1.342,0.601,1.342,1.344c0,0.741-0.601,1.342-1.342,1.342
		C82.993,26.512,82.392,25.911,82.392,25.17L82.392,25.17z"/>
	<path d="M85.499,28.875c0-0.741,0.601-1.342,1.344-1.342c0.739,0,1.342,0.601,1.342,1.342s-0.603,1.342-1.342,1.342
		C86.1,30.218,85.499,29.617,85.499,28.875L85.499,28.875z"/>
	<path d="M84.518,34.584c0-0.741,0.602-1.342,1.342-1.342c0.743,0,1.344,0.601,1.344,1.342s-0.601,1.342-1.344,1.342
		C85.12,35.927,84.518,35.326,84.518,34.584L84.518,34.584z"/>
	<path d="M78.569,36.207c0-0.741,0.601-1.342,1.34-1.342c0.743,0,1.344,0.602,1.344,1.342c0,0.741-0.601,1.342-1.344,1.342
		C79.17,37.549,78.569,36.948,78.569,36.207L78.569,36.207z"/>
	<path d="M75.302,32.059c0-0.741,0.601-1.342,1.344-1.342c0.741,0,1.342,0.601,1.342,1.342s-0.602,1.342-1.342,1.342
		C75.903,33.401,75.302,32.8,75.302,32.059L75.302,32.059z"/>
	<path d="M76.724,26.708c0-0.741,0.601-1.342,1.344-1.342c0.741,0,1.342,0.601,1.342,1.342c0,0.743-0.601,1.344-1.342,1.344
		C77.325,28.052,76.724,27.451,76.724,26.708L76.724,26.708z"/>
	<path stroke="#000000" stroke-width="1.5" stroke-miterlimit="3.8637" d="M154.052,27.236l0.915-3.039
		c-0.545-0.297-1.736-0.987-3.032-1.434c-2.822-0.973-4.842-0.325-5.563,1.764c-0.534,1.547,0.093,2.804,0.995,3.958
		c1.387,1.755,3.409,3.229,2.757,5.128c-0.407,1.18-1.669,1.762-3.351,1.184c-2.535-0.874-2.36-2.827-2.251-3.893l-0.562-0.194
		l-0.983,3.233c0.597,0.401,1.734,1.182,3.263,1.708c2.94,1.014,5.395,0.731,6.336-1.996c0.454-1.316,0.069-2.401-0.625-3.463
		c-1.064-1.623-4.045-3.644-3.392-5.541c0.347-1.006,1.49-1.499,3.058-0.959c2.05,0.706,2.08,2.251,1.874,3.351L154.052,27.236
		L154.052,27.236z"/>
	<path d="M184.086,46.208l1.947-2.509c-0.405-0.474-1.268-1.546-2.317-2.427c-2.289-1.919-4.406-2.039-5.827-0.345
		c-1.053,1.254-0.917,2.651-0.491,4.051c0.667,2.134,2.025,4.238,0.735,5.774c-0.803,0.956-2.188,1.049-3.551-0.095
		c-2.053-1.723-1.191-3.484-0.708-4.441l-0.454-0.381l-2.078,2.666c0.415,0.588,1.195,1.725,2.435,2.765
		c2.38,1.998,4.773,2.615,6.629,0.405c0.896-1.066,0.926-2.216,0.657-3.456c-0.411-1.895-2.47-4.852-1.18-6.389
		c0.683-0.815,1.928-0.866,3.198,0.198c1.662,1.395,1.133,2.849,0.549,3.801L184.086,46.208L184.086,46.208z"/>
	<path fill="none" stroke="#000000" stroke-width="1.5" stroke-miterlimit="3.8637" d="M184.086,46.208l1.947-2.509
		c-0.405-0.474-1.268-1.546-2.317-2.427c-2.289-1.919-4.406-2.039-5.827-0.345c-1.053,1.254-0.917,2.651-0.491,4.051
		c0.667,2.134,2.025,4.238,0.735,5.774c-0.803,0.956-2.188,1.049-3.551-0.095c-2.053-1.723-1.191-3.484-0.708-4.441l-0.454-0.381
		l-2.078,2.666c0.415,0.588,1.195,1.725,2.435,2.765c2.38,1.998,4.773,2.615,6.629,0.405c0.896-1.066,0.926-2.216,0.657-3.456
		c-0.411-1.895-2.47-4.852-1.18-6.389c0.683-0.815,1.928-0.866,3.198,0.198c1.662,1.395,1.133,2.849,0.549,3.801L184.086,46.208
		L184.086,46.208z"/>
	<path fill-rule="evenodd" clip-rule="evenodd" d="M180.324,56.63l3.209,3.825l0.392-0.329c-0.698-0.831-0.846-1.295-0.36-1.703
		c0.204-0.172,0.461-0.278,0.715-0.358l2.098-0.747l3.405,4.06l-1.168,2.046c-0.121,0.235-0.286,0.456-0.474,0.612
		c-0.485,0.407-1.021-0.104-1.535-0.715l-0.392,0.329l3.747,4.467l0.394-0.328c-0.922-1.098-0.94-1.695-0.149-3.106l5.927-10.421
		l-1.077-1.284l-11.05,3.901c-1.708,0.605-2.382,0.504-3.289-0.579L180.324,56.63L180.324,56.63z M193.558,54.793l-3.276,5.712
		l-2.959-3.524L193.558,54.793L193.558,54.793z"/>
	<path fill="none" stroke="#000000" stroke-width="1.5" stroke-miterlimit="3.8637" d="M180.324,56.63l3.209,3.825l0.392-0.329
		c-0.698-0.831-0.846-1.295-0.36-1.703c0.204-0.172,0.461-0.278,0.715-0.358l2.098-0.747l3.405,4.06l-1.168,2.046
		c-0.121,0.235-0.286,0.456-0.474,0.612c-0.485,0.407-1.021-0.104-1.535-0.715l-0.392,0.329l3.747,4.467l0.394-0.328
		c-0.922-1.098-0.94-1.695-0.149-3.106l5.927-10.421l-1.077-1.284l-11.05,3.901c-1.708,0.605-2.382,0.504-3.289-0.579L180.324,56.63
		L180.324,56.63z M193.558,54.793l-3.276,5.712l-2.959-3.524L193.558,54.793L193.558,54.793z"/>
	<path fill-rule="evenodd" clip-rule="evenodd" d="M191.523,70.575l2.778,5.009l0.446-0.247c-0.695-1.252-0.573-1.671,0.821-2.444
		l3.17-1.756l0.368,0.663c1.219,2.199,2.964,4.928,6.151,3.162c2.472-1.37,2.257-3.659,0.997-5.931l-2.806-5.065L203,64.215
		c0.695,1.252,0.573,1.671-0.823,2.444l-7.699,4.266c-1.396,0.774-1.813,0.655-2.507-0.598L191.523,70.575L191.523,70.575z
		 M203.27,68.628c1.073-0.596,1.366-0.573,1.893,0.375c0.853,1.54,1.077,2.748-1.034,3.918c-2.437,1.35-3.377-0.095-4.219-1.615
		l-0.347-0.627L203.27,68.628L203.27,68.628z"/>
	<path fill="none" stroke="#000000" stroke-width="1.5" stroke-miterlimit="3.8637" d="M191.523,70.575l2.778,5.009l0.446-0.247
		c-0.695-1.252-0.573-1.671,0.821-2.444l3.17-1.756l0.368,0.663c1.219,2.199,2.964,4.928,6.151,3.162
		c2.472-1.37,2.257-3.659,0.997-5.931l-2.806-5.065L203,64.215c0.695,1.252,0.573,1.671-0.823,2.444l-7.699,4.266
		c-1.396,0.774-1.813,0.655-2.507-0.598L191.523,70.575L191.523,70.575z M203.27,68.628c1.073-0.596,1.366-0.573,1.893,0.375
		c0.853,1.54,1.077,2.748-1.034,3.918c-2.437,1.35-3.377-0.095-4.219-1.615l-0.347-0.627L203.27,68.628L203.27,68.628z"/>
	<path d="M198.041,82.948l2.145,5.312l0.476-0.192c-0.538-1.327-0.368-1.727,1.112-2.324l8.162-3.297
		c1.48-0.597,1.88-0.429,2.417,0.9l0.474-0.192l-2.147-5.311l-0.472,0.192c0.543,1.346,0.366,1.727-1.115,2.324l-8.162,3.297
		c-1.48,0.597-1.873,0.448-2.417-0.9L198.041,82.948L198.041,82.948z"/>
	<path fill="none" stroke="#000000" stroke-width="1.5" stroke-miterlimit="3.8637" d="M198.041,82.948l2.145,5.312l0.476-0.192
		c-0.538-1.327-0.368-1.727,1.112-2.324l8.162-3.297c1.48-0.597,1.88-0.429,2.417,0.9l0.474-0.192l-2.147-5.311l-0.472,0.192
		c0.543,1.346,0.366,1.727-1.115,2.324l-8.162,3.297c-1.48,0.597-1.873,0.448-2.417-0.9L198.041,82.948L198.041,82.948z"/>
	<path d="M201.369,91.325l2.408,9.666l2.91-0.597l-0.144-0.577c-1.266,0.252-2.119-0.125-2.544-1.832l-0.456-1.826
		c-0.258-1.034-0.196-1.217,1.133-1.548l4.11-1.025l0.65,2.601c0.321,1.29-0.047,1.591-1.238,1.889l0.133,0.536l4.112-1.025
		l-0.134-0.536c-1.311,0.327-1.637,0.198-1.96-1.092l-0.648-2.601l3.515-0.877c1.113-0.276,1.484-0.138,1.727,0.836l0.317,1.27
		c0.554,2.223-0.276,2.703-1.33,3.05l0.144,0.575l2.851-0.836l-2.33-9.349l-0.497,0.123c0.348,1.391,0.124,1.762-1.426,2.149
		l-8.541,2.128c-1.549,0.386-1.921,0.163-2.268-1.227L201.369,91.325L201.369,91.325z"/>
	<path fill="none" stroke="#000000" stroke-width="1.5" stroke-miterlimit="3.8637" d="M201.369,91.325l2.408,9.666l2.91-0.597
		l-0.144-0.577c-1.266,0.252-2.119-0.125-2.544-1.832l-0.456-1.826c-0.258-1.034-0.196-1.217,1.133-1.548l4.11-1.025l0.65,2.601
		c0.321,1.29-0.047,1.591-1.238,1.889l0.133,0.536l4.112-1.025l-0.134-0.536c-1.311,0.327-1.637,0.198-1.96-1.092l-0.648-2.601
		l3.515-0.877c1.113-0.276,1.484-0.138,1.727,0.836l0.317,1.27c0.554,2.223-0.276,2.703-1.33,3.05l0.144,0.575l2.851-0.836
		l-2.33-9.349l-0.497,0.123c0.348,1.391,0.124,1.762-1.426,2.149l-8.541,2.128c-1.549,0.386-1.921,0.163-2.268-1.227L201.369,91.325
		L201.369,91.325z"/>
	<path fill-rule="evenodd" clip-rule="evenodd" d="M204.675,104.964l0.331,4.755l0.511-0.035c-0.101-1.449,0.185-1.757,1.777-1.869
		l9.129-0.637l0.001,0.041l-11.068,7.521l0.135,1.938l11.191-0.782c1.592-0.11,1.917,0.132,2.018,1.602l0.512-0.036l-0.333-4.755
		l-0.51,0.036c0.099,1.428-0.185,1.757-1.777,1.867l-8.558,0.598l-0.002-0.04l10.52-7.153l-0.278-4.001l-0.511,0.038
		c0.101,1.428-0.185,1.755-1.777,1.865l-8.782,0.614c-1.592,0.112-1.919-0.173-2.02-1.602L204.675,104.964L204.675,104.964z"/>
	<path fill="none" stroke="#000000" stroke-width="1.5" stroke-miterlimit="3.8637" d="M204.675,104.964l0.331,4.755l0.511-0.035
		c-0.101-1.449,0.185-1.757,1.777-1.869l9.129-0.637l0.001,0.041l-11.068,7.521l0.135,1.938l11.191-0.782
		c1.592-0.11,1.917,0.132,2.018,1.602l0.512-0.036l-0.333-4.755l-0.51,0.036c0.099,1.428-0.185,1.757-1.777,1.867l-8.558,0.598
		l-0.002-0.04l10.52-7.153l-0.278-4.001l-0.511,0.038c0.101,1.428-0.185,1.755-1.777,1.865l-8.782,0.614
		c-1.592,0.112-1.919-0.173-2.02-1.602L204.675,104.964L204.675,104.964z"/>
	<path d="M205.347,123.533l-0.502,5.709l0.511,0.045c0.125-1.427,0.458-1.706,2.048-1.568l10.236,0.896l-0.067,0.776
		c-0.188,2.14-0.943,2.543-2.47,2.617l-0.051,0.59l3.17,0.176l0.909-10.376l-3.149-0.396l-0.054,0.59
		c1.469,0.354,2.167,0.848,1.979,2.986l-0.069,0.796l-10.238-0.896c-1.591-0.142-1.869-0.474-1.744-1.9L205.347,123.533
		L205.347,123.533z"/>
	<path fill="none" stroke="#000000" stroke-width="1.5" stroke-miterlimit="3.8637" d="M205.347,123.533l-0.502,5.709l0.511,0.045
		c0.125-1.427,0.458-1.706,2.048-1.568l10.236,0.896l-0.067,0.776c-0.188,2.14-0.943,2.543-2.47,2.617l-0.051,0.59l3.17,0.176
		l0.909-10.376l-3.149-0.396l-0.054,0.59c1.469,0.354,2.167,0.848,1.979,2.986l-0.069,0.796l-10.238-0.896
		c-1.591-0.142-1.869-0.474-1.744-1.9L205.347,123.533L205.347,123.533z"/>
	<path d="M203.99,134.507l-1.191,5.604l0.499,0.104c0.299-1.4,0.663-1.636,2.226-1.304l8.608,1.83
		c1.563,0.332,1.799,0.698,1.501,2.098l0.5,0.104l1.193-5.6l-0.5-0.108c-0.303,1.422-0.663,1.635-2.224,1.307l-8.61-1.833
		c-1.563-0.329-1.803-0.676-1.501-2.095L203.99,134.507L203.99,134.507z"/>
	<path fill="none" stroke="#000000" stroke-width="1.5" stroke-miterlimit="3.8637" d="M203.99,134.507l-1.191,5.604l0.499,0.104
		c0.299-1.4,0.663-1.636,2.226-1.304l8.608,1.83c1.563,0.332,1.799,0.698,1.501,2.098l0.5,0.104l1.193-5.6l-0.5-0.108
		c-0.303,1.422-0.663,1.635-2.224,1.307l-8.61-1.833c-1.563-0.329-1.803-0.676-1.501-2.095L203.99,134.507L203.99,134.507z"/>
	<path fill-rule="evenodd" clip-rule="evenodd" d="M202.276,142.833l-1.789,4.659l0.478,0.184c0.388-1.013,0.721-1.367,1.314-1.14
		c0.248,0.098,0.466,0.27,0.659,0.452l1.671,1.475l-1.9,4.943l-2.356-0.025c-0.267,0.007-0.538-0.03-0.768-0.12
		c-0.591-0.228-0.403-0.944-0.117-1.688l-0.478-0.183l-2.091,5.443l0.478,0.183c0.513-1.336,1.026-1.646,2.645-1.639l11.987,0.135
		l0.603-1.568l-8.769-7.77c-1.359-1.202-1.594-1.841-1.09-3.159L202.276,142.833L202.276,142.833z M210.3,153.519l-6.586-0.097
		l1.65-4.298L210.3,153.519L210.3,153.519z"/>
	<path fill="none" stroke="#000000" stroke-width="1.5" stroke-miterlimit="3.8637" d="M202.276,142.833l-1.789,4.659l0.478,0.184
		c0.388-1.013,0.721-1.367,1.314-1.14c0.248,0.098,0.466,0.27,0.659,0.452l1.671,1.475l-1.9,4.943l-2.356-0.025
		c-0.267,0.007-0.538-0.03-0.768-0.12c-0.591-0.228-0.403-0.944-0.117-1.688l-0.478-0.183l-2.091,5.443l0.478,0.183
		c0.513-1.336,1.026-1.646,2.645-1.639l11.987,0.135l0.603-1.568l-8.769-7.77c-1.359-1.202-1.594-1.841-1.09-3.159L202.276,142.833
		L202.276,142.833z M210.3,153.519l-6.586-0.097l1.65-4.298L210.3,153.519L210.3,153.519z"/>
	<path d="M195.435,159.317l-5.132,8.538l2.479,1.636l0.306-0.512c-1.074-0.717-1.41-1.587-0.504-3.095l0.969-1.613
		c0.549-0.911,0.722-1.001,1.896-0.291l3.631,2.181l-1.381,2.3c-0.683,1.139-1.157,1.09-2.21,0.459l-0.284,0.475l3.631,2.18
		l0.284-0.47c-1.158-0.698-1.297-1.02-0.612-2.162l1.381-2.296l3.104,1.866c0.982,0.59,1.146,0.952,0.631,1.812l-0.676,1.12
		c-1.18,1.967-2.105,1.721-3.095,1.221l-0.306,0.508l2.608,1.422l4.964-8.259l-0.438-0.261c-0.737,1.225-1.159,1.333-2.528,0.508
		l-7.544-4.533c-1.368-0.821-1.475-1.243-0.735-2.472L195.435,159.317L195.435,159.317z"/>
	<path fill="none" stroke="#000000" stroke-width="1.5" stroke-miterlimit="3.8637" d="M195.435,159.317l-5.132,8.538l2.479,1.636
		l0.306-0.512c-1.074-0.717-1.41-1.587-0.504-3.095l0.969-1.613c0.549-0.911,0.722-1.001,1.896-0.291l3.631,2.181l-1.381,2.3
		c-0.683,1.139-1.157,1.09-2.21,0.459l-0.284,0.475l3.631,2.18l0.284-0.47c-1.158-0.698-1.297-1.02-0.612-2.162l1.381-2.296
		l3.104,1.866c0.982,0.59,1.146,0.952,0.631,1.812l-0.676,1.12c-1.18,1.967-2.105,1.721-3.095,1.221l-0.306,0.508l2.608,1.422
		l4.964-8.259l-0.438-0.261c-0.737,1.225-1.159,1.333-2.528,0.508l-7.544-4.533c-1.368-0.821-1.475-1.243-0.735-2.472
		L195.435,159.317L195.435,159.317z"/>
	<path d="M150.091,211.077l1.301,2.896c0.606-0.134,1.96-0.396,3.231-0.907c2.771-1.12,3.868-2.935,3.041-4.98
		c-0.614-1.52-1.91-2.057-3.349-2.333c-2.197-0.419-4.691-0.202-5.444-2.062c-0.468-1.161,0.103-2.427,1.753-3.092
		c2.485-1.004,3.635,0.583,4.253,1.46l0.551-0.224l-1.38-3.084c-0.713,0.09-2.085,0.246-3.584,0.852
		c-2.882,1.165-4.551,2.986-3.473,5.664c0.523,1.288,1.523,1.855,2.745,2.202c1.867,0.523,5.445,0.094,6.196,1.953
		c0.399,0.989-0.14,2.109-1.676,2.733c-2.013,0.81-3.049-0.337-3.614-1.3L150.091,211.077L150.091,211.077z"/>
	<path fill="none" stroke="#000000" stroke-width="1.5" stroke-miterlimit="3.8637" d="M150.091,211.077l1.301,2.896
		c0.606-0.134,1.96-0.396,3.231-0.907c2.771-1.12,3.868-2.935,3.041-4.98c-0.614-1.52-1.91-2.057-3.349-2.333
		c-2.197-0.419-4.691-0.202-5.444-2.062c-0.468-1.161,0.103-2.427,1.753-3.092c2.485-1.004,3.635,0.583,4.253,1.46l0.551-0.224
		l-1.38-3.084c-0.713,0.09-2.085,0.246-3.584,0.852c-2.882,1.165-4.551,2.986-3.473,5.664c0.523,1.288,1.523,1.855,2.745,2.202
		c1.867,0.523,5.445,0.094,6.196,1.953c0.399,0.989-0.14,2.109-1.676,2.733c-2.013,0.81-3.049-0.337-3.614-1.3L150.091,211.077
		L150.091,211.077z"/>
	<path d="M138.783,203.636l-5.604,1.19l0.106,0.501c1.4-0.299,1.764-0.063,2.096,1.501l2.134,10.047l-0.76,0.164
		c-2.1,0.444-2.71-0.156-3.224-1.598l-0.583,0.123l0.76,3.084l10.187-2.165l-0.538-3.129l-0.583,0.123
		c0.092,1.509-0.175,2.318-2.277,2.767l-0.78,0.164l-2.136-10.051c-0.331-1.561-0.095-1.923,1.307-2.222L138.783,203.636
		L138.783,203.636z"/>
	<path fill="none" stroke="#000000" stroke-width="1.5" stroke-miterlimit="3.8637" d="M138.783,203.636l-5.604,1.19l0.106,0.501
		c1.4-0.299,1.764-0.063,2.096,1.501l2.134,10.047l-0.76,0.164c-2.1,0.444-2.71-0.156-3.224-1.598l-0.583,0.123l0.76,3.084
		l10.187-2.165l-0.538-3.129l-0.583,0.123c0.092,1.509-0.175,2.318-2.277,2.767l-0.78,0.164l-2.136-10.051
		c-0.331-1.561-0.095-1.923,1.307-2.222L138.783,203.636L138.783,203.636z"/>
	<path d="M116.042,217.428c0.054,1.595-0.241,1.912-1.672,1.964l0.019,0.512l4.968-0.176l-0.017-0.512
		c-1.432,0.053-1.749-0.246-1.805-1.841l-0.237-6.832c-0.087-2.558,0.611-3.667,3.045-3.753c2.554-0.089,2.979,1.494,3.049,3.54
		l0.237,6.833c0.056,1.594-0.239,1.911-1.671,1.964l0.017,0.511l5.728-0.201l-0.019-0.512c-1.432,0.053-1.749-0.246-1.805-1.841
		l-0.237-6.832c-0.103-2.987-1.508-4.537-5.067-4.41c-4.211,0.146-4.848,2.442-4.768,4.753L116.042,217.428L116.042,217.428z"/>
	<path fill="none" stroke="#000000" stroke-width="1.5" stroke-miterlimit="3.8637" d="M116.042,217.428
		c0.054,1.595-0.241,1.912-1.672,1.964l0.019,0.512l4.968-0.176l-0.017-0.512c-1.432,0.053-1.749-0.246-1.805-1.841l-0.237-6.832
		c-0.087-2.558,0.611-3.667,3.045-3.753c2.554-0.089,2.979,1.494,3.049,3.54l0.237,6.833c0.056,1.594-0.239,1.911-1.671,1.964
		l0.017,0.511l5.728-0.201l-0.019-0.512c-1.432,0.053-1.749-0.246-1.805-1.841l-0.237-6.832c-0.103-2.987-1.508-4.537-5.067-4.41
		c-4.211,0.146-4.848,2.442-4.768,4.753L116.042,217.428L116.042,217.428z"/>
	<path fill-rule="evenodd" clip-rule="evenodd" d="M109.993,205.958l-5.235-0.829c-3.899-0.62-6.756-0.115-7.682,5.724
		c-0.895,5.642,1.708,7.132,5.546,7.74l5.234,0.829l0.08-0.508c-1.434-0.229-1.669-0.575-1.418-2.151l1.377-8.691
		c0.25-1.576,0.581-1.837,2.016-1.609L109.993,205.958L109.993,205.958z M104.295,216.412c-0.2,1.251-0.454,1.419-1.525,1.251
		c-3.799-0.602-3.898-2.711-3.308-6.434c0.64-4.039,1.672-5.72,5.148-5.171c1.234,0.194,1.223,0.649,1.063,1.658L104.295,216.412
		L104.295,216.412z"/>
	<path fill="none" stroke="#000000" stroke-width="1.5" stroke-miterlimit="3.8637" d="M109.993,205.958l-5.235-0.829
		c-3.899-0.62-6.756-0.115-7.682,5.724c-0.895,5.642,1.708,7.132,5.546,7.74l5.234,0.829l0.08-0.508
		c-1.434-0.229-1.669-0.575-1.418-2.151l1.377-8.691c0.25-1.576,0.581-1.837,2.016-1.609L109.993,205.958L109.993,205.958z
		 M104.295,216.412c-0.2,1.251-0.454,1.419-1.525,1.251c-3.799-0.602-3.898-2.711-3.308-6.434c0.64-4.039,1.672-5.72,5.148-5.171
		c1.234,0.194,1.223,0.649,1.063,1.658L104.295,216.412L104.295,216.412z"/>
	<path d="M93.358,202.698l-5.417-1.863l-0.167,0.482c1.354,0.466,1.544,0.858,1.025,2.367l-2.867,8.322
		c-0.519,1.508-0.911,1.698-2.265,1.231l-0.166,0.485l5.416,1.863l0.166-0.481c-1.372-0.475-1.543-0.858-1.023-2.367l2.868-8.322
		c0.519-1.509,0.89-1.706,2.263-1.232L93.358,202.698L93.358,202.698z"/>
	<path fill="none" stroke="#000000" stroke-width="1.5" stroke-miterlimit="3.8637" d="M93.358,202.698l-5.417-1.863l-0.167,0.482
		c1.354,0.466,1.544,0.858,1.025,2.367l-2.867,8.322c-0.519,1.508-0.911,1.698-2.265,1.231l-0.166,0.485l5.416,1.863l0.166-0.481
		c-1.372-0.475-1.543-0.858-1.023-2.367l2.868-8.322c0.519-1.509,0.89-1.706,2.263-1.232L93.358,202.698L93.358,202.698z"/>
	<path d="M84.225,199.432l-5.234-2.33l-0.208,0.467c1.309,0.582,1.464,0.989,0.814,2.445l-3.583,8.043
		c-0.649,1.456-1.055,1.612-2.363,1.03l-0.207,0.467l5.232,2.329l0.209-0.466c-1.328-0.591-1.466-0.99-0.816-2.446l3.583-8.042
		c0.649-1.456,1.036-1.62,2.363-1.03L84.225,199.432L84.225,199.432z"/>
	<path fill="none" stroke="#000000" stroke-width="1.5" stroke-miterlimit="3.8637" d="M84.225,199.432l-5.234-2.33l-0.208,0.467
		c1.309,0.582,1.464,0.989,0.814,2.445l-3.583,8.043c-0.649,1.456-1.055,1.612-2.363,1.03l-0.207,0.467l5.232,2.329l0.209-0.466
		c-1.328-0.591-1.466-0.99-0.816-2.446l3.583-8.042c0.649-1.456,1.036-1.62,2.363-1.03L84.225,199.432L84.225,199.432z"/>
	<path fill-rule="evenodd" clip-rule="evenodd" d="M43.354,164.63l-0.917-1.527l-12.011,2.226c-1.411,0.276-1.882,0.131-2.61-1.079
		l-0.437,0.262l2.623,4.368l0.439-0.266c-0.643-1.067-0.672-1.553-0.215-1.829c0.192-0.115,0.463-0.183,0.995-0.287l9.25-1.736
		l0.021,0.033l-5.953,7.184c-0.362,0.43-0.558,0.62-0.752,0.735c-0.51,0.307-0.893-0.015-1.396-0.854l-0.438,0.262l2.992,4.98
		l0.437-0.262c-0.79-1.317-0.635-1.695,0.481-3.058L43.354,164.63L43.354,164.63z"/>
	<path fill="none" stroke="#000000" stroke-width="1.5" stroke-miterlimit="3.8637" d="M43.354,164.63l-0.917-1.527l-12.011,2.226
		c-1.411,0.276-1.882,0.131-2.61-1.079l-0.437,0.262l2.623,4.368l0.439-0.266c-0.643-1.067-0.672-1.553-0.215-1.829
		c0.192-0.115,0.463-0.183,0.995-0.287l9.25-1.736l0.021,0.033l-5.953,7.184c-0.362,0.43-0.558,0.62-0.752,0.735
		c-0.51,0.307-0.893-0.015-1.396-0.854l-0.438,0.262l2.992,4.98l0.437-0.262c-0.79-1.317-0.635-1.695,0.481-3.058L43.354,164.63
		L43.354,164.63z"/>
	<path d="M37.851,154.127l-2.145-5.31l-0.474,0.19c0.534,1.33,0.366,1.729-1.114,2.326l-8.164,3.297
		c-1.479,0.598-1.878,0.43-2.416-0.899l-0.474,0.194l2.145,5.309l0.474-0.19c-0.543-1.348-0.366-1.729,1.115-2.325l8.162-3.297
		c1.48-0.598,1.875-0.448,2.417,0.899L37.851,154.127L37.851,154.127z"/>
	<path fill="none" stroke="#000000" stroke-width="1.5" stroke-miterlimit="3.8637" d="M37.851,154.127l-2.145-5.31l-0.474,0.19
		c0.534,1.33,0.366,1.729-1.114,2.326l-8.164,3.297c-1.479,0.598-1.878,0.43-2.416-0.899l-0.474,0.194l2.145,5.309l0.474-0.19
		c-0.543-1.348-0.366-1.729,1.115-2.325l8.162-3.297c1.48-0.598,1.875-0.448,2.417,0.899L37.851,154.127L37.851,154.127z"/>
	<path d="M34.295,144.969l-2.41-9.663l-2.91,0.598l0.144,0.575c1.268-0.254,2.119,0.127,2.544,1.833l0.456,1.825
		c0.258,1.031,0.198,1.218-1.133,1.546l-4.113,1.027l-0.646-2.603c-0.321-1.288,0.044-1.591,1.237-1.89l-0.134-0.534l-4.111,1.023
		l0.133,0.538c1.311-0.329,1.639-0.198,1.96,1.09l0.648,2.603l-3.515,0.877c-1.113,0.276-1.486,0.139-1.727-0.836l-0.317-1.27
		c-0.554-2.226,0.276-2.707,1.329-3.051l-0.144-0.574l-2.851,0.836l2.33,9.349l0.497-0.127c-0.345-1.389-0.123-1.758,1.428-2.146
		l8.541-2.128c1.547-0.385,1.921-0.161,2.268,1.229L34.295,144.969L34.295,144.969z"/>
	<path fill="none" stroke="#000000" stroke-width="1.5" stroke-miterlimit="3.8637" d="M34.295,144.969l-2.41-9.663l-2.91,0.598
		l0.144,0.575c1.268-0.254,2.119,0.127,2.544,1.833l0.456,1.825c0.258,1.031,0.198,1.218-1.133,1.546l-4.113,1.027l-0.646-2.603
		c-0.321-1.288,0.044-1.591,1.237-1.89l-0.134-0.534l-4.111,1.023l0.133,0.538c1.311-0.329,1.639-0.198,1.96,1.09l0.648,2.603
		l-3.515,0.877c-1.113,0.276-1.486,0.139-1.727-0.836l-0.317-1.27c-0.554-2.226,0.276-2.707,1.329-3.051l-0.144-0.574l-2.851,0.836
		l2.33,9.349l0.497-0.127c-0.345-1.389-0.123-1.758,1.428-2.146l8.541-2.128c1.547-0.385,1.921-0.161,2.268,1.229L34.295,144.969
		L34.295,144.969z"/>
	<path fill-rule="evenodd" clip-rule="evenodd" d="M30.841,130.366l-0.25-4.761l-0.509,0.026c0.076,1.452-0.217,1.755-1.811,1.837
		l-9.138,0.478l-0.002-0.037l11.199-7.325l-0.101-1.943l-11.203,0.588c-1.596,0.082-1.915-0.168-1.992-1.639l-0.512,0.028
		l0.249,4.758l0.511-0.026c-0.075-1.43,0.215-1.751,1.811-1.833l8.565-0.452l0.002,0.041l-10.645,6.972l0.211,4.002l0.511-0.026
		c-0.077-1.43,0.215-1.751,1.809-1.837l8.791-0.459c1.594-0.082,1.917,0.205,1.992,1.636L30.841,130.366L30.841,130.366z"/>
	<path fill="none" stroke="#000000" stroke-width="1.5" stroke-miterlimit="3.8637" d="M30.841,130.366l-0.25-4.761l-0.509,0.026
		c0.076,1.452-0.217,1.755-1.811,1.837l-9.138,0.478l-0.002-0.037l11.199-7.325l-0.101-1.943l-11.203,0.588
		c-1.596,0.082-1.915-0.168-1.992-1.639l-0.512,0.028l0.249,4.758l0.511-0.026c-0.075-1.43,0.215-1.751,1.811-1.833l8.565-0.452
		l0.002,0.041l-10.645,6.972l0.211,4.002l0.511-0.026c-0.077-1.43,0.215-1.751,1.809-1.837l8.791-0.459
		c1.594-0.082,1.917,0.205,1.992,1.636L30.841,130.366L30.841,130.366z"/>
	<path d="M30.21,113.07l0.665-4.719l-0.506-0.071c-0.204,1.437-0.547,1.678-2.128,1.456l-9.06-1.273l0.005-0.041l12.39-5.055
		l0.269-1.925l-11.108-1.561c-1.579-0.222-1.848-0.528-1.643-1.986l-0.506-0.071l-0.665,4.72l0.507,0.071
		c0.2-1.419,0.547-1.678,2.126-1.456l8.494,1.193l-0.005,0.041l-11.778,4.811l-0.559,3.971l0.506,0.069
		c0.2-1.417,0.547-1.678,2.128-1.456l8.716,1.227c1.581,0.22,1.843,0.567,1.643,1.986L30.21,113.07L30.21,113.07z"/>
	<path fill="none" stroke="#000000" stroke-width="1.5" stroke-miterlimit="3.8637" d="M30.21,113.07l0.665-4.719l-0.506-0.071
		c-0.204,1.437-0.547,1.678-2.128,1.456l-9.06-1.273l0.005-0.041l12.39-5.055l0.269-1.925l-11.108-1.561
		c-1.579-0.222-1.848-0.528-1.643-1.986l-0.506-0.071l-0.665,4.72l0.507,0.071c0.2-1.419,0.547-1.678,2.126-1.456l8.494,1.193
		l-0.005,0.041l-11.778,4.811l-0.559,3.971l0.506,0.069c0.2-1.417,0.547-1.678,2.128-1.456l8.716,1.227
		c1.581,0.22,1.843,0.567,1.643,1.986L30.21,113.07L30.21,113.07z"/>
	<path d="M33.136,95.992l3.08-9.476l-2.785-1.033l-0.183,0.564c1.208,0.458,1.73,1.229,1.188,2.903l-0.583,1.791
		c-0.329,1.01-0.476,1.135-1.781,0.711l-4.03-1.311l0.829-2.548c0.411-1.264,0.885-1.326,2.052-0.947l0.17-0.526l-4.029-1.309
		l-0.169,0.526c1.284,0.417,1.491,0.7,1.081,1.964l-0.827,2.55l-3.446-1.12c-1.09-0.354-1.333-0.67-1.021-1.622l0.403-1.246
		c0.709-2.18,1.667-2.148,2.744-1.885l0.183-0.564l-2.86-0.799l-2.979,9.163l0.485,0.159c0.444-1.363,0.831-1.559,2.349-1.066
		l8.371,2.72c1.52,0.495,1.718,0.879,1.273,2.242L33.136,95.992L33.136,95.992z"/>
	<path fill="none" stroke="#000000" stroke-width="1.5" stroke-miterlimit="3.8637" d="M33.136,95.992l3.08-9.476l-2.785-1.033
		l-0.183,0.564c1.208,0.458,1.73,1.229,1.188,2.903l-0.583,1.791c-0.329,1.01-0.476,1.135-1.781,0.711l-4.03-1.311l0.829-2.548
		c0.411-1.264,0.885-1.326,2.052-0.947l0.17-0.526l-4.029-1.309l-0.169,0.526c1.284,0.417,1.491,0.7,1.081,1.964l-0.827,2.55
		l-3.446-1.12c-1.09-0.354-1.333-0.67-1.021-1.622l0.403-1.246c0.709-2.18,1.667-2.148,2.744-1.885l0.183-0.564l-2.86-0.799
		l-2.979,9.163l0.485,0.159c0.444-1.363,0.831-1.559,2.349-1.066l8.371,2.72c1.52,0.495,1.718,0.879,1.273,2.242L33.136,95.992
		L33.136,95.992z"/>
	<path d="M38.038,81.877l2.311-4.167l-0.448-0.25c-0.704,1.271-1.111,1.372-2.507,0.599l-8.003-4.436l0.021-0.035l13.378-0.28
		l0.944-1.699l-9.812-5.44c-1.396-0.773-1.535-1.154-0.821-2.442l-0.448-0.248l-2.311,4.168l0.448,0.247
		c0.694-1.251,1.111-1.371,2.509-0.598l7.501,4.159l-0.021,0.036L28.06,71.762l-1.945,3.508l0.448,0.247
		c0.694-1.251,1.111-1.372,2.509-0.597l7.697,4.266c1.396,0.774,1.516,1.193,0.821,2.445L38.038,81.877L38.038,81.877z"/>
	<path fill="none" stroke="#000000" stroke-width="1.5" stroke-miterlimit="3.8637" d="M38.038,81.877l2.311-4.167l-0.448-0.25
		c-0.704,1.271-1.111,1.372-2.507,0.599l-8.003-4.436l0.021-0.035l13.378-0.28l0.944-1.699l-9.812-5.44
		c-1.396-0.773-1.535-1.154-0.821-2.442l-0.448-0.248l-2.311,4.168l0.448,0.247c0.694-1.251,1.111-1.371,2.509-0.598l7.501,4.159
		l-0.021,0.036L28.06,71.762l-1.945,3.508l0.448,0.247c0.694-1.251,1.111-1.372,2.509-0.597l7.697,4.266
		c1.396,0.774,1.516,1.193,0.821,2.445L38.038,81.877L38.038,81.877z"/>
	<path d="M44.751,53.225l-2.542-1.902c-0.465,0.413-1.521,1.294-2.386,2.36c-1.88,2.32-1.962,4.439-0.245,5.83
		c1.273,1.031,2.666,0.87,4.06,0.418c2.123-0.702,4.203-2.099,5.761-0.836c0.971,0.786,1.086,2.169-0.034,3.554
		c-1.686,2.082-3.463,1.249-4.428,0.784l-0.373,0.459l2.701,2.031c0.583-0.426,1.705-1.227,2.722-2.483
		c1.958-2.416,2.533-4.818,0.292-6.635c-1.083-0.875-2.233-0.887-3.469-0.597c-1.887,0.446-4.809,2.556-6.368,1.293
		c-0.827-0.67-0.898-1.913,0.144-3.202c1.367-1.684,2.83-1.183,3.792-0.614L44.751,53.225L44.751,53.225z"/>
	<path fill="none" stroke="#000000" stroke-width="1.5" stroke-miterlimit="3.8637" d="M44.751,53.225l-2.542-1.902
		c-0.465,0.413-1.521,1.294-2.386,2.36c-1.88,2.32-1.962,4.439-0.245,5.83c1.273,1.031,2.666,0.87,4.06,0.418
		c2.123-0.702,4.203-2.099,5.761-0.836c0.971,0.786,1.086,2.169-0.034,3.554c-1.686,2.082-3.463,1.249-4.428,0.784l-0.373,0.459
		l2.701,2.031c0.583-0.426,1.705-1.227,2.722-2.483c1.958-2.416,2.533-4.818,0.292-6.635c-1.083-0.875-2.233-0.887-3.469-0.597
		c-1.887,0.446-4.809,2.556-6.368,1.293c-0.827-0.67-0.898-1.913,0.144-3.202c1.367-1.684,2.83-1.183,3.792-0.614L44.751,53.225
		L44.751,53.225z"/>
	<path d="M56.686,55.721l4.258-3.833l-0.342-0.379c-1.064,0.958-1.497,0.935-2.565-0.252l-5.89-6.54
		c-1.07-1.188-1.047-1.621,0.019-2.578l-0.342-0.381l-4.258,3.833l0.341,0.381c1.081-0.973,1.499-0.936,2.567,0.25l5.888,6.542
		c1.07,1.186,1.062,1.605-0.019,2.578L56.686,55.721L56.686,55.721z"/>
	<path fill="none" stroke="#000000" stroke-width="1.5" stroke-miterlimit="3.8637" d="M56.686,55.721l4.258-3.833l-0.342-0.379
		c-1.064,0.958-1.497,0.935-2.565-0.252l-5.89-6.54c-1.07-1.188-1.047-1.621,0.019-2.578l-0.342-0.381l-4.258,3.833l0.341,0.381
		c1.081-0.973,1.499-0.936,2.567,0.25l5.888,6.542c1.07,1.186,1.062,1.605-0.019,2.578L56.686,55.721L56.686,55.721z"/>
	<path d="M65.717,35.453l-1.921-2.528c-0.56,0.269-1.82,0.825-2.942,1.611c-2.448,1.711-3.112,3.726-1.843,5.535
		c0.937,1.342,2.322,1.572,3.786,1.523c2.234-0.091,4.618-0.86,5.769,0.782c0.717,1.023,0.448,2.386-1.012,3.407
		c-2.195,1.536-3.672,0.246-4.473-0.467l-0.485,0.34l2.039,2.696c0.676-0.249,1.975-0.709,3.3-1.636
		c2.546-1.785,3.764-3.935,2.11-6.298c-0.799-1.139-1.902-1.467-3.17-1.529c-1.938-0.091-5.328,1.131-6.478-0.511
		c-0.61-0.872-0.338-2.087,1.019-3.038c1.777-1.245,3.047-0.358,3.816,0.452L65.717,35.453L65.717,35.453z"/>
	<path fill="none" stroke="#000000" stroke-width="1.5" stroke-miterlimit="3.8637" d="M65.717,35.453l-1.921-2.528
		c-0.56,0.269-1.82,0.825-2.942,1.611c-2.448,1.711-3.112,3.726-1.843,5.535c0.937,1.342,2.322,1.572,3.786,1.523
		c2.234-0.091,4.618-0.86,5.769,0.782c0.717,1.023,0.448,2.386-1.012,3.407c-2.195,1.536-3.672,0.246-4.473-0.467l-0.485,0.34
		l2.039,2.696c0.676-0.249,1.975-0.709,3.3-1.636c2.546-1.785,3.764-3.935,2.11-6.298c-0.799-1.139-1.902-1.467-3.17-1.529
		c-1.938-0.091-5.328,1.131-6.478-0.511c-0.61-0.872-0.338-2.087,1.019-3.038c1.777-1.245,3.047-0.358,3.816,0.452L65.717,35.453
		L65.717,35.453z"/>
	<path d="M167.359,32.061c0-0.741,0.601-1.342,1.344-1.342c0.741,0,1.34,0.601,1.34,1.342c0,0.743-0.599,1.344-1.34,1.344
		C167.96,33.405,167.359,32.804,167.359,32.061L167.359,32.061z"/>
	<path d="M170.465,35.768c0-0.741,0.601-1.342,1.344-1.342c0.741,0,1.342,0.601,1.342,1.342s-0.601,1.344-1.342,1.344
		C171.066,37.112,170.465,36.509,170.465,35.768L170.465,35.768z"/>
	<path d="M169.485,41.479c0-0.743,0.601-1.344,1.342-1.344c0.743,0,1.342,0.601,1.342,1.344c0,0.741-0.599,1.342-1.342,1.342
		C170.086,42.821,169.485,42.22,169.485,41.479L169.485,41.479z"/>
	<path d="M163.534,43.099c0-0.741,0.603-1.342,1.342-1.342c0.743,0,1.344,0.601,1.344,1.342c0,0.743-0.601,1.344-1.344,1.344
		C164.137,44.443,163.534,43.842,163.534,43.099L163.534,43.099z"/>
	<path d="M160.269,38.951c0-0.741,0.602-1.342,1.344-1.342c0.741,0,1.34,0.601,1.34,1.342c0,0.743-0.599,1.344-1.34,1.344
		C160.87,40.295,160.269,39.694,160.269,38.951L160.269,38.951z"/>
	<path d="M161.691,33.603c0-0.741,0.601-1.344,1.344-1.344c0.739,0,1.34,0.603,1.34,1.344s-0.601,1.342-1.34,1.342
		C162.292,34.945,161.691,34.344,161.691,33.603L161.691,33.603z"/>
	<path d="M186.246,177.287c0-0.739,0.601-1.341,1.342-1.341c0.743,0,1.344,0.602,1.344,1.341c0,0.743-0.601,1.344-1.344,1.344
		C186.847,178.631,186.246,178.03,186.246,177.287L186.246,177.287z"/>
	<path d="M189.352,180.994c0-0.739,0.601-1.34,1.342-1.34s1.344,0.601,1.344,1.34c0,0.743-0.603,1.345-1.344,1.345
		S189.352,181.737,189.352,180.994L189.352,180.994z"/>
	<path d="M188.372,186.703c0-0.739,0.601-1.34,1.34-1.34c0.743,0,1.344,0.601,1.344,1.34c0,0.743-0.601,1.345-1.344,1.345
		C188.973,188.048,188.372,187.446,188.372,186.703L188.372,186.703z"/>
	<path d="M182.421,188.327c0-0.742,0.601-1.344,1.342-1.344c0.741,0,1.342,0.602,1.342,1.344c0,0.743-0.601,1.345-1.342,1.345
		C183.022,189.672,182.421,189.07,182.421,188.327L182.421,188.327z"/>
	<path d="M179.156,184.18c0-0.743,0.601-1.345,1.342-1.345c0.743,0,1.342,0.602,1.342,1.345c0,0.739-0.599,1.34-1.342,1.34
		C179.757,185.52,179.156,184.919,179.156,184.18L179.156,184.18z"/>
	<path d="M180.578,178.829c0-0.743,0.599-1.344,1.342-1.344c0.741,0,1.342,0.601,1.342,1.344s-0.601,1.344-1.342,1.344
		C181.177,180.173,180.578,179.572,180.578,178.829L180.578,178.829z"/>
	
		<path fill="none" stroke="#000000" stroke-width="1.5" stroke-linecap="round" stroke-linejoin="round" stroke-miterlimit="3.8637" d="
		M171.167,141.466l-3.469,6.008l-3.47-6.008H171.167L171.167,141.466z M171.167,131.849l-3.469-6.012l-3.47,6.012H171.167
		L171.167,131.849z"/>
	<path fill="none" stroke="#000000" stroke-width="1.5" stroke-linecap="round" stroke-miterlimit="3.8637" d="M164.512,136.516
		c0-1.759,1.426-3.185,3.187-3.185c1.759,0,3.185,1.426,3.185,3.185s-1.426,3.185-3.185,3.185
		C165.938,139.7,164.512,138.274,164.512,136.516L164.512,136.516z M167.699,113.415v8.572 M167.699,149.157v10.059"/>
	
		<path fill="none" stroke="#000000" stroke-width="1.5" stroke-linecap="round" stroke-linejoin="round" stroke-miterlimit="3.8637" d="
		M160.522,109.176h13.792 M160.522,165.187h13.792"/>
	<path fill="none" stroke="#000000" stroke-width="1.5" stroke-miterlimit="3.8637" d="M158.73,85.381h19.652V92.1H158.73V85.381
		L158.73,85.381z M158.37,97.803h19.652v6.719H158.37V97.803L158.37,97.803z M160.586,104.899h14.81v65.578h-14.81V104.899
		L160.586,104.899z"/>
	<path fill="none" stroke="#000000" stroke-width="1.5" stroke-linecap="round" stroke-miterlimit="3.8637" d="M159.567,93.298
		v3.086c0.87,0.041,1.467-0.189,2.085-0.801c0.67-0.666,0.909-1.348,0.801-2.285H159.567L159.567,93.298z M176.813,93.298v3.497
		c-1.081-0.036-1.799-0.385-2.496-1.212c-0.609-0.722-0.825-1.34-0.801-2.285H176.813L176.813,93.298z M162.864,93.298
		c0.005,0.846,0.155,1.365,0.601,2.083c0.417,0.676,0.778,1.019,1.473,1.402c0.762-0.446,1.156-0.838,1.602-1.602
		c0.39-0.665,0.534-1.116,0.601-1.883H162.864L162.864,93.298z M167.953,93.298c0.004,0.846,0.153,1.365,0.599,2.083
		c0.417,0.676,0.779,1.019,1.473,1.402c0.946-0.331,1.477-0.752,2.012-1.602c0.413-0.651,0.56-1.114,0.602-1.883H167.953
		L167.953,93.298z"/>
	<polygon fill="none" stroke="#000000" stroke-width="1.5" stroke-miterlimit="3.8637" points="157.138,170.402 178.022,170.402 
		178.022,177.123 157.138,177.123 157.138,170.402 	"/>
	<path fill="none" stroke="#000000" stroke-width="1.5" stroke-linecap="round" stroke-miterlimit="3.8637" d="M61.592,93.226v3.084
		c0.87,0.043,1.467-0.187,2.085-0.799c0.67-0.667,0.909-1.348,0.801-2.285H61.592L61.592,93.226z M78.837,93.226v3.497
		c-1.083-0.038-1.799-0.385-2.496-1.212c-0.609-0.722-0.825-1.342-0.801-2.285H78.837L78.837,93.226z M64.889,93.226
		c0.005,0.846,0.155,1.364,0.601,2.085c0.416,0.674,0.776,1.018,1.471,1.4c0.761-0.446,1.157-0.84,1.602-1.602
		c0.392-0.665,0.536-1.116,0.601-1.883H64.889L64.889,93.226z M69.976,93.226c0.006,0.846,0.155,1.364,0.601,2.085
		c0.417,0.674,0.779,1.018,1.473,1.4c0.946-0.333,1.477-0.754,2.012-1.602c0.413-0.651,0.56-1.114,0.601-1.883H69.976L69.976,93.226
		z"/>
	
		<line fill="none" stroke="#000000" stroke-width="1.5" stroke-linecap="round" stroke-linejoin="round" stroke-miterlimit="3.8637" x1="63.3" y1="165.187" x2="77.09" y2="165.187"/>
	<path fill="none" stroke="#000000" stroke-width="1.5" stroke-miterlimit="3.8637" d="M62.867,104.899h14.81V170.1h-14.81V104.899
		L62.867,104.899z M59.83,97.803h19.652v6.719H59.83V97.803L59.83,97.803z"/>
	
		<path fill="none" stroke="#000000" stroke-width="1.5" stroke-linecap="round" stroke-linejoin="round" stroke-miterlimit="3.8637" d="
		M73.692,140.48l-3.468,6.012l-3.469-6.012H73.692L73.692,140.48z M73.692,130.862l-3.468-6.007l-3.469,6.007H73.692L73.692,130.862
		z"/>
	<path fill="none" stroke="#000000" stroke-width="1.5" stroke-linecap="round" stroke-miterlimit="3.8637" d="M67.037,135.533
		c0-1.758,1.426-3.188,3.187-3.188c1.758,0,3.185,1.431,3.185,3.188c0,1.759-1.426,3.186-3.185,3.186
		C68.463,138.719,67.037,137.292,67.037,135.533L67.037,135.533z M70.224,112.43v8.576 M70.224,148.176v10.059"/>
	<polygon fill="none" stroke="#000000" stroke-width="1.5" stroke-miterlimit="3.8637" points="59.008,170.402 79.891,170.402 
		79.891,177.123 59.008,177.123 59.008,170.402 	"/>
	
		<line fill="none" stroke="#000000" stroke-width="1.5" stroke-linecap="round" stroke-linejoin="round" stroke-miterlimit="3.8637" x1="63.3" y1="109.176" x2="77.09" y2="109.176"/>
	<path fill="none" stroke="#000000" stroke-width="1.5" stroke-miterlimit="3.8637" d="M109.961,46.51
		c-0.65,0.639-1.553,1.018-2.535,0.982c-1.897-0.065-3.381-1.658-3.315-3.554c0.067-1.897,1.658-3.383,3.556-3.316 M102.212,48.92
		c-0.489,0.767-1.286,1.34-2.248,1.527c-1.865,0.362-3.668-0.855-4.03-2.718c-0.362-1.865,0.855-3.67,2.718-4.031 M95.576,52.233
		c-0.319,0.85-0.979,1.576-1.882,1.96c-1.748,0.741-3.766-0.075-4.507-1.822c-0.743-1.748,0.073-3.765,1.82-4.506 M89.225,56.439
		c-0.136,0.9-0.631,1.746-1.434,2.309c-1.555,1.088-3.698,0.709-4.789-0.846c-1.088-1.555-0.711-3.696,0.846-4.786 M83.426,62.301
		c0.054,0.909-0.254,1.839-0.922,2.558c-1.295,1.387-3.469,1.463-4.857,0.168c-1.389-1.293-1.465-3.469-0.17-4.857 M78.942,68.755
		c0.243,0.875,0.136,1.85-0.37,2.692c-0.978,1.626-3.089,2.154-4.715,1.174c-1.628-0.976-2.154-3.088-1.176-4.715 M75.481,75.662
		c0.405,0.812,0.485,1.792,0.151,2.713c-0.65,1.784-2.623,2.703-4.408,2.055c-1.783-0.65-2.703-2.623-2.054-4.406 M128.771,46.874
		c0.65,0.636,1.553,1.015,2.533,0.982c1.897-0.065,3.381-1.658,3.315-3.555c-0.065-1.898-1.658-3.383-3.556-3.315 M136.519,49.766
		c0.489,0.765,1.286,1.338,2.25,1.527c1.863,0.36,3.668-0.855,4.03-2.72c0.362-1.863-0.855-3.667-2.72-4.031 M143.157,53.559
		c0.317,0.851,0.979,1.577,1.88,1.96c1.75,0.743,3.766-0.073,4.509-1.82c0.741-1.747-0.075-3.765-1.822-4.506 M149.508,57.767
		c0.134,0.898,0.629,1.748,1.434,2.31c1.553,1.088,3.698,0.711,4.787-0.846c1.09-1.553,0.711-3.698-0.844-4.787 M155.307,63.628
		c-0.056,0.908,0.252,1.841,0.92,2.558c1.294,1.389,3.471,1.464,4.859,0.168c1.389-1.293,1.464-3.468,0.168-4.857 M159.789,70.082
		c-0.243,0.876-0.136,1.852,0.37,2.692c0.978,1.628,3.089,2.154,4.717,1.176c1.626-0.976,2.154-3.089,1.176-4.715 M163.25,76.99
		c-0.405,0.814-0.487,1.792-0.151,2.712c0.649,1.785,2.623,2.705,4.407,2.055c1.783-0.649,2.703-2.621,2.054-4.406"/>
	<path fill="none" stroke="#000000" stroke-width="1.5" stroke-miterlimit="3.8637" d="M114.406,42.007
		c0-3.801,2.003-6.881,4.477-6.881s4.479,3.08,4.479,6.881c0,3.803-2.005,6.883-4.479,6.883S114.406,45.81,114.406,42.007
		L114.406,42.007z"/>
	<path fill="none" stroke="#000000" stroke-width="1.5" stroke-miterlimit="3.8637" d="M115.463,35.725
		c-25.109,3.188-48.741,24.329-52.262,49.23l13.479,0.09c3.599-19.947,21.041-35.076,42.024-35.076 M118.724,49.969
		c21.093,0,38.412,14.922,41.884,35.024l13.466-0.038c-3.461-26.386-24.852-47.195-51.693-48.771"/>
	<path fill="none" stroke="#000000" stroke-width="1.5" stroke-linecap="round" stroke-miterlimit="3.8637" d="M122.4,123.011h1.824
		 M113.635,112.06l-5.476,1.579l-1.34,0.977l2.315,4.138l1.092,5.108l8.359-0.729 M128.508,123.224h1.787l2.445-5.322l-0.36-1.462
		l-2.804-1.458 M111.08,113.396l2.311,4.505l0.366,2.433h3.528 M121.79,119.486l3.409-0.366"/>
	
		<path fill="none" stroke="#000000" stroke-width="1.5" stroke-linecap="round" stroke-linejoin="round" stroke-miterlimit="3.8637" d="
		M119.814,116.902h5.907 M106.67,161.617c-0.558,1.571-0.842,2.468-1.288,4.073c-0.513,1.848-1.042,2.871-1.124,4.786
		c-0.019,0.438-0.019,0.684,0,1.124 M114.866,162.404l-1.5,4.783l-0.25,4.036 M129.671,161.243l2.123,6.571l-0.25,4.283
		 M125.348,161.99l0.788,7.613v2.785 M119.314,162.528l0.5,9.86 M100.224,158.996c-0.909,2.441-1.333,3.864-1.914,6.406
		c-0.655,2.879-0.905,4.541-1.124,7.486c1.126,0.373,1.768,0.563,2.912,0.874c2.334,0.627,4.983,1.153,6.071,1.247
		c1.874,0.164,14.47,1.225,23.376-0.747c1.499-0.127,3.161-0.25,5.035-0.377c0.448-0.03,1.471-0.303,1.412-0.747
		c-0.288-2.165-0.149-2.957-0.413-4.823c-0.329-2.334-0.446-3.696-1.249-5.911c-0.444-1.221-0.749-1.896-1.374-3.035"/>
	<path fill="none" stroke="#000000" stroke-width="1.5" stroke-miterlimit="3.8637" d="M135.731,95.895h14.793l5.119,2.705
		 M136.097,96.406l2.602,2.207l-0.044,21.631l-2.552-2.703L136.097,96.406L136.097,96.406z M138.585,98.675h16.912v22.148H138.83
		 M143.574,120.823V98.675l-3.282-2.961 M147.225,95.714l3.678,2.606l-0.026,22.014 M135.951,100.573l2.758,2.966h16.428
		 M135.951,111.979l2.513,3.124h16.794"/>
	<path fill="none" stroke="#000000" stroke-width="1.5" stroke-linecap="round" stroke-miterlimit="3.8637" d="M163.39,37.59
		c0-1.869,1.516-3.384,3.386-3.384c1.871,0,3.387,1.516,3.387,3.384c0,1.873-1.516,3.387-3.387,3.387
		C164.906,40.977,163.39,39.462,163.39,37.59L163.39,37.59z M78.423,30.698c0-1.869,1.518-3.385,3.387-3.385
		c1.871,0,3.386,1.516,3.386,3.385c0,1.871-1.516,3.386-3.386,3.386C79.941,34.084,78.423,32.568,78.423,30.698L78.423,30.698z"/>
	
		<path fill="none" stroke="#000000" stroke-width="1.5" stroke-linecap="round" stroke-linejoin="round" stroke-miterlimit="3.8637" d="
		M97.022,101.929l16.314,44.059 M99.193,100.444l18.116,47.373 M99.537,100.101c-0.219-1.254,0.002-2.158,0.771-3.172
		c0.982-1.294,2.25-1.811,3.857-1.572c-1.021-1.059-2.203-1.393-3.627-1.029c-0.986,0.252-1.561,0.652-2.143,1.486
		c-0.28-0.663-0.487-1.023-0.915-1.6c-0.706-0.95-1.239-1.428-2.259-2.029c-0.478,0.934-0.642,1.553-0.685,2.601
		c-0.041,1.029,0.067,1.646,0.458,2.601c-1.1-0.461-1.957-0.461-3.056,0c-1.209,0.504-1.873,1.234-2.257,2.484
		c1.389-0.69,2.416-0.833,3.943-0.541c0.743,0.142,1.228,0.19,1.828,0.655c0.629,0.491,0.922,0.941,1.114,1.715
		c0.325-0.612,0.646-0.931,1.258-1.256C98.424,100.124,98.857,100.038,99.537,100.101L99.537,100.101z M97.937,104.873
		c0.056-0.542,0.312-0.905,0.799-1.145c0.513-0.25,0.991-0.211,1.458,0.116 M99.08,107.357c-0.14-0.534,0.019-1.004,0.458-1.342
		c0.56-0.433,1.366-0.331,1.799,0.229 M128.633,139.241c2.102,2.688,3.09,4.424,4.324,7.609c1.695,4.372,2.166,7.168,1.998,11.854
		h-5.784c-1.581,0.66-2.52,0.948-4.198,1.288c-2.446,0.496-3.893,0.402-6.387,0.377c-3.286-0.041-5.345-0.25-8.38-0.878
		c-1.455-0.299-2.016-0.433-3.286-0.787c-2.041,0.593-3.409,0.593-5.449,0c-0.934-0.273-1.451-0.497-2.285-0.997
		c0.149-2.39,0.351-3.745,0.913-6.071c0.42-1.751,0.727-2.729,1.373-4.413 M106.67,151.51l-0.375,2.785v2.412 M119.15,139.241
		l0.788,2.912l0.25,5.32 M123.724,139.528c1.572,3.401,2.279,5.429,3.161,9.069c0.741,3.062,1.019,4.843,1.249,7.986
		 M100.597,119.688l1.499,0.377l2.412,2.621l-2.412-5.283l-2.498,1.623l-2.037,3.825l-0.5,1.624l5.41,1.784l3.948,3.125
		 M97.312,125.221c-0.235,0.927-0.433,1.441-0.874,2.289c-1.114,2.136-3.089,2.341-4.324,4.409c-0.61,1.023-0.907,1.646-1.25,2.786
		c-0.358,1.194-0.612,1.919-0.499,3.162c0.11,1.194,0.032,2.203,0.999,2.912c0.624,0.455,1.146,0.59,1.914,0.5
		c0.988-0.601,1.488-1.161,2.623-1.377c4.198-0.788,5.698-1.162,8.733-2.035c1.027-0.344,1.875-0.25,2.162-1.747
		c0.457-2.383-0.625-3.286-1.038-5.201l0.663-1.124 M106.007,137.99c1.109,0.739,1.688,1.262,2.535,2.289
		c0.945,1.143,1.385,1.9,1.912,3.285c-0.853,0.915-1.393,1.393-2.41,2.121c-0.698,0.504-1.114,0.762-1.874,1.165
		c-1.654,0.328-2.653,0.358-4.322,0.123c-2.309-0.321-3.667-0.821-5.574-2.162c-1.417-0.993-2.143-1.729-3.122-3.158
		 M105.132,147.474c-0.039,0.71,0.192,1.225,0.75,1.661c0.627,0.497,1.307,0.579,2.037,0.251c1.787-0.661,5.074-3.536,5.074-3.536
		l-1.914-2.162 M108.169,149.886c0.926,1.654,1.625,2.523,3.036,3.79c1.273,1.139,2.11,1.691,3.661,2.408l1.124,0.873l1.664,0.123
		 M115.114,153.672c0.784,0.582,1.191,0.978,1.789,1.747c0.597,0.77,0.415,1.661,1.249,2.162c0.89,0.537,1.771,0.537,2.662,0
		 M117.776,153.048l1.251,2.121l0.788,2.289 M130.67,125.599c0.859,1.205,1.126,2.184,0.999,3.658
		c-0.09,1.046-0.485,1.568-0.874,2.535c-0.467,1.169-0.773,1.812-1.374,2.913l-6.446-0.747l-4.389-0.127l-6.007,0.623
		 M113.742,137.617l6.946-0.377l8.321,0.75l0.413-2.162 M140.902,121.689c-0.586,0.41-0.861,0.832-0.999,1.534
		c-0.104,0.53-0.073,0.874,0.125,1.374c0.81,0.34,1.279,0.508,2.123,0.75c1.208,0.348,1.913,0.485,3.16,0.624
		c0.383-0.862,0.766-1.329,1.539-1.874c1.376-0.968,2.679,0.003,4.284-0.501c0.771-0.238,1.126-0.612,1.914-0.787
		c0.965-0.21,2.098,0.888,2.535,0c0.217-0.434,0.217-0.811,0-1.247 M138.866,125.722c1.021-0.396,1.697-0.489,2.787-0.374
		c1.451,0.149,2.057,0.99,3.409,1.539c0.5,0.201,1.326-0.041,1.288,0.496c-0.123,1.874-1.363,1.982-2.662,2.001
		c-1.148,0.016-1.4-1.317-2.535-1.501c-0.838-0.134-1.516,0.803-2.162,0.251c-0.299-0.254-0.433-0.485-0.5-0.874 M132.707,118.901
		l2.498,1.914l1.413,6.317 M137.992,127.51l-2.537,1.124l-3.536,4.323 M143.938,129.795c-1.912,3.162-2.285,4.163-3.411,8.195
		c-0.599,2.154-1.536,5.074-4.034,7.448c-0.726,0.688-1.288,1.24-2.287,1.161c-0.461-0.037-0.734-0.127-1.126-0.373
		 M149.762,122.851l1.247-0.165"/>
	<path d="M392.141,24.039c0-4.129-3.54-7.521-7.52-7.521c-4.129,0-7.521,3.392-7.521,7.521s3.392,7.52,7.521,7.52
		C388.601,31.558,392.141,28.168,392.141,24.039L392.141,24.039z"/>
	<path d="M390.519,45.479c-2.212,0.147-3.982,0.442-5.897,0.442c-2.064,0-3.984-0.295-5.899-0.442v70.488
		c1.915-0.149,3.834-0.442,5.899-0.442c1.916,0,3.685,0.293,5.897,0.442V45.479L390.519,45.479z"/>
	<path d="M448.047,77.331l-8.849,20.791c-0.586,1.327-1.77,2.655-2.801,4.129c-9.144-20.644-17.843-43.059-21.973-56.772
		c-2.505,0.147-4.424,0.442-6.489,0.442c-2.36,0-4.572-0.295-6.637-0.442c9.29,20.498,23.745,56.477,28.905,70.488
		c1.475-0.149,2.949-0.442,4.573-0.442c1.325,0,2.801,0.293,4.421,0.442c7.374-21.383,22.122-53.825,30.082-70.488
		c-1.766,0.147-3.244,0.442-4.716,0.442c-1.624,0-3.244-0.295-4.719-0.442L448.047,77.331L448.047,77.331z"/>
	<path fill-rule="evenodd" clip-rule="evenodd" d="M530.673,100.777c-3.979,3.834-11.795,10.174-21.823,10.174
		c-17.843,0-26.838-14.154-25.512-30.67h20.792c9.88,0,19.908,0.146,29.937,0.442c1.476-24.627-13.567-36.129-29.937-36.129
		c-21.969,0-33.767,15.779-33.767,36.276c0,22.856,14.449,36.274,34.801,36.274c8.995,0,18.135-3.54,25.363-8.699L530.673,100.777
		L530.673,100.777z M483.338,74.824c0.885-12.387,6.933-25.658,20.792-25.658c14.599,0,18.139,12.829,18.434,25.658H483.338
		L483.338,74.824z"/>
	<path d="M543.995,115.967c1.915-0.149,3.83-0.442,5.896-0.442c1.919,0,3.688,0.293,5.898,0.442V77.773
		c0-7.964,0.295-12.831,5.455-18.728c2.214-2.507,6.194-3.687,9.438-3.687c2.51,0,4.72,1.77,6.934,2.36l2.064-12.386
		c-1.329-0.59-2.509-0.738-4.573-0.738c-7.37,0-13.714,6.194-18.579,13.861l-0.739,1.77V45.479c-2.21,0.147-3.979,0.442-5.898,0.442
		c-2.065,0-3.98-0.295-5.896-0.442V115.967L543.995,115.967z"/>
	<path d="M582.866,101.662c-0.587,3.687-1.916,7.227-3.096,10.766c5.16,3.097,12.389,4.717,18.434,4.717
		c12.975,0,27.132-7.52,27.132-23.298c0-23.595-34.801-13.566-34.801-32.442c0-7.962,6.048-12.239,13.418-12.239
		c5.455,0,10.619,4.865,12.534,9.732h1.329c0.885-3.54,2.065-7.077,3.54-10.471c-2.655-1.62-8.994-3.833-16.663-3.833
		c-13.273,0-24.038,7.667-24.038,21.825c0,25.805,34.802,12.829,34.802,32.735c0,7.816-7.225,13.419-14.453,13.419
		c-6.93,0-13.419-5.16-16.954-10.912H582.866L582.866,101.662z"/>
	<path d="M652.192,24.039c0-4.129-3.539-7.521-7.52-7.521c-4.129,0-7.52,3.392-7.52,7.521s3.391,7.52,7.52,7.52
		C648.653,31.558,652.192,28.168,652.192,24.039L652.192,24.039z"/>
	<path d="M650.572,45.479c-2.21,0.147-3.98,0.442-5.899,0.442c-2.064,0-3.979-0.295-5.899-0.442v70.488
		c1.92-0.149,3.835-0.442,5.899-0.442c1.919,0,3.689,0.293,5.899,0.442V45.479L650.572,45.479z"/>
	<path d="M672.619,30.881v14.599h-9.144c0.444,1.917,0.444,3.687,0,5.602h9.144v42.911c-0.739,17.993,5.75,23.152,16.959,23.152
		c4.274,0,8.404-1.178,12.385-2.654v-3.54c-2.211,0.444-4.425,1.034-6.635,1.034c-12.239,0-10.914-14.896-10.914-23.89V51.082
		h15.633c-0.444-1.473-0.444-3.538,0-5.602h-15.633V26.309L672.619,30.881L672.619,30.881z"/>
	<path d="M781.714,30.881v14.599h-9.141c0.44,1.917,0.44,3.687,0,5.602h9.141v42.911c-0.735,17.993,5.753,23.152,16.958,23.152
		c4.279,0,8.404-1.178,12.389-2.654v-3.54c-2.215,0.444-4.425,1.034-6.635,1.034c-12.243,0-10.914-14.896-10.914-23.89V51.082
		h15.629c-0.44-1.473-0.44-3.538,0-5.602h-15.629V26.309L781.714,30.881L781.714,30.881z"/>
	<path d="M369.933,130c-1.77,0.149-3.097,0.444-4.572,0.444c-1.768,0-3.245-0.295-4.72-0.444
		c-3.095,10.029-15.041,39.077-21.676,54.855c-6.784-15.483-15.041-39.962-18.875-54.855c-1.475,0.149-2.655,0.444-3.834,0.444
		c-1.327,0-2.653-0.295-3.833-0.444c-4.867,15.483-14.599,41.731-20.646,54.71c-7.077-17.108-13.566-36.866-18.726-54.71
		c-2.509,0.149-4.424,0.444-6.489,0.444c-2.212,0-4.424-0.295-6.489-0.444c7.964,18.434,17.401,43.796,26.101,70.488
		c1.327-0.149,2.654-0.444,3.982-0.444c1.327,0,2.507,0.295,3.982,0.444c7.077-22.563,15.188-44.091,20.055-53.529
		c5.455,13.567,14.304,39.226,18.138,53.529c1.326-0.149,2.653-0.444,3.98-0.444c1.18,0,2.359,0.295,3.981,0.444
		C349.435,173.501,364.771,140.175,369.933,130L369.933,130z"/>
	<path d="M390.498,130c-2.212,0.149-3.982,0.444-5.899,0.444c-2.064,0-3.982-0.295-5.899-0.444v70.488
		c1.917-0.149,3.834-0.444,5.899-0.444c1.917,0,3.687,0.295,5.899,0.444V130L390.498,130z"/>
	<path fill-rule="evenodd" clip-rule="evenodd" d="M463.657,185.3c-3.983,3.834-11.798,10.174-21.827,10.174
		c-17.839,0-26.838-14.158-25.508-30.672h20.792c9.88,0,19.908,0.146,29.934,0.44c1.475-24.623-13.564-36.127-29.934-36.127
		c-21.973,0-33.771,15.778-33.771,36.276c0,22.857,14.453,36.276,34.802,36.276c8.994,0,18.138-3.54,25.362-8.699L463.657,185.3
		L463.657,185.3z M416.322,159.347c0.885-12.388,6.93-25.657,20.792-25.657c14.599,0,18.139,12.828,18.434,25.657H416.322
		L416.322,159.347z"/>
	<path d="M476.681,200.488c1.919-0.149,3.834-0.444,5.899-0.444c1.915,0,3.685,0.295,5.898,0.444v-34.212
		c0-18.138,3.835-29.492,19.318-29.492c13.859,0,16.368,10.765,16.368,24.478v39.227c1.915-0.149,3.835-0.444,5.896-0.444
		c1.919,0,3.689,0.295,5.899,0.444v-42.616c0-19.468-6.635-28.757-23.739-28.757c-10.473,0-18.582,5.31-23.742,14.304V130
		c-2.214,0.149-3.983,0.444-5.898,0.444c-2.065,0-3.98-0.295-5.899-0.444V200.488L476.681,200.488z"/>
	<path fill-rule="evenodd" clip-rule="evenodd" d="M760.342,69.317c0-16.85-8.498-25.053-24.152-25.053
		c-8.801,0-16.854,3.282-24.008,8.203v8.349h1.639c1.046-3.28,6.859-10.286,17.742-10.286c11.187,0,17.448,6.411,17.448,17.445
		c0,7.156-4.025,8.052-15.805,9.989c-14.017,2.237-27.589,4.475-27.589,21.473c0,11.035,9.249,18.192,19.834,18.192
		c8.945,0,15.805-3.131,22.069-9.394l1.341-1.342c1.194,8.798,7.605,9.991,15.36,8.649c1.639-0.299,3.427-1.043,4.473-1.492v-3.28
		c-8.797,1.938-8.353-1.043-8.353-6.859V69.317L760.342,69.317z M748.413,101.077c0,1.044-2.979,3.579-4.025,4.623
		c-2.833,2.832-7.903,5.666-11.929,5.666c-9.095,0-14.613-4.622-14.613-14.016c0-13.568,15.211-15.06,25.348-17l5.22-1.043V101.077
		L748.413,101.077z"/>
	<path d="M725.937,24.039c0-3.922-3.36-7.144-7.143-7.144c-3.924,0-7.146,3.222-7.146,7.144s3.223,7.145,7.146,7.145
		C722.576,31.183,725.937,27.961,725.937,24.039L725.937,24.039z"/>
	<path d="M759.271,24.039c0-3.922-3.364-7.144-7.146-7.144c-3.92,0-7.143,3.222-7.143,7.144s3.223,7.145,7.143,7.145
		C755.906,31.183,759.271,27.961,759.271,24.039L759.271,24.039z"/>
	<path d="M315.7,45.479v13.096c5.169-8.798,13.211-13.981,23.554-13.981c17.106,0,23.742,9.29,23.742,28.755v42.618
		c-2.212-0.149-3.982-0.442-5.899-0.442c-2.065,0-3.98,0.293-5.899,0.442V76.741c0-13.714-2.505-24.479-16.366-24.479
		c-13.585,0-18.202,8.74-19.131,23.134v40.572c-2.312-0.151-4.035-0.442-5.897-0.442c-2.182,0.015-4.038,0.298-5.899,0.442
		l-0.187-12.333c-4.753,8.772-13.072,13.51-23.259,13.51c-16.221,0-24.331-8.404-24.331-28.313V45.479
		c1.916,0.147,3.833,0.442,5.897,0.442c1.917,0,3.687-0.295,5.897-0.442v39.814c0,15.483,4.572,24.627,17.843,24.627
		c13.029,0,17.097-9.958,17.952-19.428V45.479c2.042,0.144,3.909,0.423,5.897,0.442c2.051,0,3.774-0.292,5.899-0.442H315.7
		L315.7,45.479z"/>
	<path fill="none" stroke="#000000" stroke-width="1.5" stroke-miterlimit="3.8637" d="M59.12,172.811
		c-14.152-13.789-21.67-33.405-21.67-55.234c0-43.131,35.839-80.25,78.975-81.308 M11.06,117.576
		c0-59.416,48.163-107.578,107.577-107.578c59.414,0,107.578,48.163,107.578,107.578c0,59.412-48.165,107.576-107.578,107.576
		C59.223,225.152,11.06,176.988,11.06,117.576L11.06,117.576z M121.689,36.416c42.898,2.175,78.136,37.721,78.136,81.16
		c0,21.041-8.664,40.602-21.793,55.025 M167.139,182.667c-10.48,8.199-30.504,15.61-46.2,16.63 M114.216,198.998
		c-16.837-0.877-30.456-6.541-43.045-16.141"/>
	
		<path fill="none" stroke="#000000" stroke-width="1.5" stroke-linecap="round" stroke-linejoin="round" stroke-miterlimit="3.8637" d="
		M66.785,180.263c0-1.706,1.385-3.092,3.093-3.092c1.708,0,3.093,1.386,3.093,3.092c0,1.71-1.385,3.096-3.093,3.096
		C68.17,183.358,66.785,181.973,66.785,180.263L66.785,180.263z M165.36,180.263c0-1.706,1.387-3.092,3.095-3.092
		c1.708,0,3.093,1.386,3.093,3.092c0,1.71-1.385,3.096-3.093,3.096C166.747,183.358,165.36,181.973,165.36,180.263L165.36,180.263z"
		/>
	<path fill="none" stroke="#000000" stroke-width="1.5" stroke-linecap="round" stroke-miterlimit="3.8637" d="M111.606,20.884
		c0.801-2.658,4.21-4.012,6.618-2.628c1.467,0.844,2.195,2.005,2.273,3.696c0.088,1.912-1.004,3.026-2.496,4.227
		c-0.991,0.801-1.707,1.139-2.955,1.398 M101.861,27.268c-5.703,3.476-7.723,0.908-7.809-2.109
		c-0.079-2.782,2.583-4.133,5.599-4.424c5.666-0.549,7.495,6.622,14.918,6.836l1.758-0.03l1.604-0.028
		c7.41-0.476,8.989-7.704,14.67-7.354c3.022,0.185,5.729,1.445,5.75,4.229c0.021,3.015-1.91,5.653-7.73,2.378"/>
	<path fill="none" stroke="#000000" stroke-width="1.5" stroke-miterlimit="3.8637" d="M52.741,91.415c0,0-2.97,4.37-4.494,7.372
		c-1.297,2.562-2.884,6.773-2.884,6.773c1.357,1.557,2.095,2.041,2.884,3.687c1,2.083,0.777,2.571,0.534,3.989 M54.02,110.929
		c-4.122,1.9-10.667,4.811-10.82,6.973c-0.228,3.28,5.574,7.57,9.935,10.46c2.123-2.853,2.905-5.025,3.086-8.572
		C56.404,116.232,55.844,113.984,54.02,110.929L54.02,110.929z M55.42,114.616l-4.488,1.883 M56.021,119.785h-5.289 M55.22,124.475
		l-4.887-1.886 M48.443,125.195c-0.257,1.19-0.481,1.859-0.997,2.964c-0.823,1.771-1.494,2.719-2.884,4.089
		c1.574,2.154,2.572,3.304,4.486,5.167c1.501,1.464,2.406,2.236,4.086,3.487"/>
	<path fill="none" stroke="#000000" stroke-width="1.5" stroke-miterlimit="3.8637" d="M184.767,91.415c0,0,2.97,4.37,4.494,7.372
		c1.299,2.562,2.886,6.773,2.886,6.773c-1.359,1.557-2.097,2.041-2.886,3.687c-1,2.083-0.952,2.739-0.709,4.157 M183.49,110.929
		c4.664,0.526,10.505,7.426,11.524,9.387c1.059,2.034-6.86,6.32-10.641,8.046c-2.123-2.853-2.905-5.025-3.086-8.572
		C181.106,116.232,181.665,113.984,183.49,110.929L183.49,110.929z M182.088,114.616l4.486,1.883 M181.487,119.785h5.289
		 M182.288,124.475l4.887-1.886 M189.059,126.021c0.144,1.561,0.374,2.452,1.002,3.887c0.782,1.788,1.464,2.751,2.884,4.088
		c-1.574,2.154-2.572,3.308-4.488,5.171c-1.499,1.46-2.404,2.233-4.084,3.483"/>
	
		<path fill="none" stroke="#000000" stroke-width="1.5" stroke-linecap="round" stroke-linejoin="round" stroke-miterlimit="3.8637" d="
		M83.021,169.354l14.563-0.127 M136.118,169.354l17.053-0.127 M107.419,135.455l1.25-0.5 M121.312,157.581
		c0-0.635-0.026-0.993-0.123-1.624c-0.271-1.732-0.657-2.733-1.624-4.197l-1.664-3.035l-2.537-1.501l-1.622-0.624"/>
</g>
</svg>
